<svg xmlns="http://www.w3.org/2000/svg" xmlns:xlink="http://www.w3.org/1999/xlink" width="200" zoomAndPan="magnify" viewBox="0 0 150 149.999998" height="200" preserveAspectRatio="xMidYMid meet" version="1.0"><defs><clipPath id="00deffa8d3"><path d="M 22.5 0 L 127.5 0 C 139.925781 0 150 10.074219 150 22.5 L 150 127.5 C 150 139.925781 139.925781 150 127.5 150 L 22.5 150 C 10.074219 150 0 139.925781 0 127.5 L 0 22.5 C 0 10.074219 10.074219 0 22.5 0 Z M 22.5 0 " clip-rule="nonzero"/></clipPath><clipPath id="7d41ee7fcf"><path d="M 0 0 L 150 0 L 150 150 L 0 150 Z M 0 0 " clip-rule="nonzero"/></clipPath><clipPath id="484af46393"><path d="M 22.5 0 L 127.5 0 C 139.925781 0 150 10.074219 150 22.5 L 150 127.5 C 150 139.925781 139.925781 150 127.5 150 L 22.5 150 C 10.074219 150 0 139.925781 0 127.5 L 0 22.5 C 0 10.074219 10.074219 0 22.5 0 Z M 22.5 0 " clip-rule="nonzero"/></clipPath><clipPath id="c3af03ef36"><rect x="0" width="150" y="0" height="150"/></clipPath><clipPath id="51ce0b7370"><path d="M 13.476562 7.378906 L 136.464844 7.378906 L 136.464844 142.378906 L 13.476562 142.378906 Z M 13.476562 7.378906 " clip-rule="nonzero"/></clipPath></defs><g clip-path="url(#00deffa8d3)"><g transform="matrix(1, 0, 0, 1, 0, -0.000000000000007527)"><g clip-path="url(#c3af03ef36)"><g clip-path="url(#7d41ee7fcf)"><g clip-path="url(#484af46393)"><rect x="-33" width="216" fill="#671833" height="215.999996" y="-32.999999" fill-opacity="1"/></g></g></g></g></g><g clip-path="url(#51ce0b7370)"><path fill="#f2f2f2" d="M 59.734375 92.253906 L 71.648438 92.253906 L 69.800781 76.972656 L 61.585938 76.972656 L 60.121094 89.0625 L 61.585938 76.972656 Z M 121.292969 124.640625 L 121.292969 123.417969 L 118.765625 123.417969 L 116.296875 125.515625 L 115.925781 125.832031 L 116.96875 127.285156 L 114.71875 129.199219 L 121.292969 129.199219 Z M 94.933594 71.121094 C 94.820312 71.089844 94.710938 71.050781 94.601562 70.996094 C 93.851562 70.613281 93.421875 69.796875 93.441406 68.953125 L 93.003906 68.730469 L 92.710938 66.5 L 92.707031 66.5 L 93.46875 64.726562 L 93.734375 64.109375 L 71.980469 53.066406 L 71.527344 54.121094 L 70.652344 56.148438 L 69 55.308594 C 68.863281 55.632812 68.6875 55.925781 68.484375 56.183594 L 70.910156 56.183594 L 79.753906 129.199219 L 88.535156 129.199219 L 88.535156 110.609375 C 88.535156 104.757812 93.917969 100.015625 100.5625 100.015625 C 101.59375 100.015625 102.59375 100.132812 103.550781 100.347656 Z M 28.917969 34.570312 C 29.160156 34.011719 29.1875 33.515625 28.992188 33.214844 C 28.800781 32.914062 28.363281 32.769531 27.796875 32.824219 L 24.6875 33.117188 C 23.675781 33.214844 22.703125 33.96875 22.261719 35 C 22.113281 35.335938 22.035156 35.679688 22.023438 36.023438 C 21.894531 39.625 22.113281 43.472656 22.683594 47.453125 C 22.75 47.929688 22.847656 48.160156 22.90625 48.265625 C 22.992188 48.183594 23.152344 47.984375 23.347656 47.535156 Z M 34.140625 20.636719 C 34.265625 20.625 34.414062 20.449219 34.53125 20.171875 C 34.597656 20.023438 34.652344 19.847656 34.699219 19.648438 L 36.015625 13.777344 C 36.15625 13.15625 36.082031 12.628906 35.808594 12.375 C 35.566406 12.152344 35.160156 12.148438 34.6875 12.359375 C 33.839844 12.738281 33.007812 13.195312 32.214844 13.710938 C 31.875 13.933594 31.609375 14.261719 31.4375 14.660156 C 31.074219 15.5 31.167969 16.550781 31.675781 17.335938 L 33.367188 19.964844 C 33.703125 20.484375 33.992188 20.648438 34.140625 20.636719 Z M 24.632812 23.011719 C 24.082031 24.289062 23.613281 25.6875 23.234375 27.160156 C 23.078125 27.753906 23.15625 28.289062 23.453125 28.671875 C 23.765625 29.085938 24.304688 29.289062 24.925781 29.230469 L 28.839844 28.859375 C 30.394531 28.707031 31.800781 27.867188 32.085938 27.203125 C 32.371094 26.539062 32.066406 24.828125 31.171875 23.433594 L 28.921875 19.910156 C 28.550781 19.335938 28.042969 19.007812 27.519531 19.007812 C 27.058594 19.011719 26.632812 19.28125 26.324219 19.773438 C 25.695312 20.777344 25.125 21.867188 24.632812 23.011719 Z M 98.277344 67.167969 L 98.542969 66.550781 L 95.210938 64.859375 L 94.945312 65.476562 Z M 57.960938 106.890625 L 57.6875 109.144531 L 73.695312 109.144531 L 71.84375 93.859375 L 59.539062 93.859375 Z M 56.574219 125.832031 L 75.71875 125.832031 L 73.890625 110.75 L 57.496094 110.75 L 55.667969 125.832031 Z M 61.777344 75.363281 L 69.605469 75.363281 L 67.835938 60.753906 L 67.691406 59.554688 L 63.695312 59.554688 L 61.777344 75.363281 L 63.621094 60.179688 Z M 15.375 138.464844 L 16.226562 137.195312 C 16.078125 136.996094 15.984375 136.75 15.984375 136.476562 C 15.984375 136.457031 15.992188 136.4375 15.992188 136.417969 L 14.617188 135.933594 C 14.585938 136.109375 14.566406 136.289062 14.566406 136.476562 C 14.566406 137.261719 14.878906 137.96875 15.375 138.464844 Z M 16.769531 135.375 L 16.769531 135.183594 L 16.191406 135.183594 L 16.191406 133.953125 C 15.570312 134.203125 15.0625 134.714844 14.789062 135.367188 L 16.160156 135.851562 C 16.296875 135.617188 16.515625 135.449219 16.769531 135.375 Z M 16.921875 138.5 L 16.921875 137.609375 C 16.832031 137.601562 16.746094 137.578125 16.664062 137.546875 L 15.820312 138.8125 C 16.148438 139.015625 16.523438 139.140625 16.921875 139.164062 Z M 13.476562 136.476562 C 13.476562 134.65625 14.632812 133.128906 16.191406 132.714844 L 16.191406 131.4375 L 16.980469 131.4375 L 16.980469 130.890625 L 17.273438 130.890625 L 17.273438 130.65625 L 17.972656 130.65625 L 17.972656 130.890625 L 18.261719 130.890625 L 18.261719 131.4375 L 19.167969 131.4375 L 19.167969 114.226562 L 17.53125 114.226562 L 17.53125 112.863281 L 19.167969 112.863281 L 19.167969 111.390625 L 21.09375 111.390625 L 21.09375 74.660156 L 20.257812 74.660156 L 20.257812 73.421875 L 19.246094 73.421875 L 19.246094 72.054688 L 20.257812 72.054688 L 20.257812 70.65625 L 19.246094 70.65625 L 19.246094 69.289062 L 20.257812 69.289062 L 20.257812 65.953125 L 21.171875 65.953125 L 21.171875 56.175781 L 20.367188 56.175781 L 20.292969 55.886719 C 20.089844 55.113281 15.4375 35.160156 21.371094 21.355469 C 26.679688 9.007812 37.484375 7.417969 37.59375 7.402344 L 37.761719 7.378906 L 40.8125 8.925781 L 37.410156 24.054688 L 37.386719 24.113281 L 97.753906 54.757812 L 98.058594 54.050781 L 99.535156 54.800781 L 99.230469 55.503906 L 102.5625 57.195312 L 102.863281 56.488281 L 104.339844 57.238281 L 104.039062 57.945312 L 105.238281 58.554688 L 104.855469 59.441406 L 104.789062 59.601562 L 101.929688 66.25 L 101.875 66.382812 L 101.21875 67.90625 L 100.015625 67.296875 L 99.507812 68.484375 L 98.992188 69.6875 L 98.992188 69.691406 L 97.226562 70.875 L 97.128906 70.824219 L 106.085938 101.199219 C 106.464844 101.375 106.832031 101.5625 107.183594 101.765625 C 107.578125 101.996094 107.957031 102.246094 108.316406 102.515625 C 110.203125 101.273438 112.648438 101.222656 114.617188 102.617188 C 114.949219 102.851562 115.25 103.121094 115.523438 103.410156 C 115.527344 103.414062 115.53125 103.417969 115.539062 103.425781 C 115.542969 103.429688 115.546875 103.4375 115.554688 103.441406 C 117.507812 105.527344 118.988281 107.105469 120.164062 108.355469 C 120.847656 107.917969 121.339844 108.28125 121.289062 109.269531 L 121.273438 109.539062 C 124.015625 112.460938 124.808594 113.308594 127.238281 115.898438 C 128.117188 116.828125 128.296875 118.335938 127.597656 119.492188 C 126.902344 120.652344 125.5625 121.078125 124.425781 120.582031 C 122.890625 119.914062 121.859375 119.464844 120.796875 119.003906 L 120.753906 119.835938 C 120.738281 120.132812 120.671875 120.457031 120.570312 120.785156 L 132.167969 120.785156 L 132.167969 123.417969 L 123.273438 123.417969 L 123.273438 129.199219 L 136.519531 129.199219 L 136.519531 142.613281 L 42.042969 142.613281 L 42.042969 139.855469 L 46.933594 139.855469 L 46.933594 129.199219 L 51.632812 129.199219 L 60.476562 56.183594 L 62.910156 56.183594 C 62.023438 55.039062 61.769531 53.394531 62.386719 51.953125 L 60.734375 51.113281 L 62.0625 48.03125 L 33.367188 33.464844 L 23.605469 56.175781 L 22.863281 56.175781 L 22.863281 65.953125 L 23.777344 65.953125 L 23.777344 69.289062 L 24.785156 69.289062 L 24.785156 70.65625 L 23.777344 70.65625 L 23.777344 72.054688 L 24.785156 72.054688 L 24.785156 73.421875 L 23.777344 73.421875 L 23.777344 74.660156 L 22.9375 74.660156 L 22.9375 111.390625 L 24.867188 111.390625 L 24.867188 112.863281 L 26.503906 112.863281 L 26.503906 114.226562 L 24.867188 114.226562 L 24.867188 131.4375 L 25.769531 131.4375 L 25.769531 130.890625 L 26.0625 130.890625 L 26.0625 130.65625 L 26.761719 130.65625 L 26.761719 130.890625 L 27.054688 130.890625 L 27.054688 131.4375 L 27.839844 131.4375 L 27.839844 135.183594 L 27.113281 135.183594 L 27.113281 142.613281 L 16.921875 142.613281 L 16.921875 140.347656 C 15.011719 140.277344 13.476562 138.570312 13.476562 136.476562 " fill-opacity="1" fill-rule="nonzero"/></g></svg>