<svg xmlns="http://www.w3.org/2000/svg" xmlns:xlink="http://www.w3.org/1999/xlink" width="200" zoomAndPan="magnify" viewBox="0 0 150 149.999998" height="200" preserveAspectRatio="xMidYMid meet" version="1.0"><defs><clipPath id="d9a94bc0b4"><path d="M 22.5 0 L 127.5 0 C 139.925781 0 150 10.074219 150 22.5 L 150 127.5 C 150 139.925781 139.925781 150 127.5 150 L 22.5 150 C 10.074219 150 0 139.925781 0 127.5 L 0 22.5 C 0 10.074219 10.074219 0 22.5 0 Z M 22.5 0 " clip-rule="nonzero"/></clipPath><clipPath id="d561f6720a"><path d="M 0 0 L 150 0 L 150 150 L 0 150 Z M 0 0 " clip-rule="nonzero"/></clipPath><clipPath id="c6e8f8e423"><path d="M 22.5 0 L 127.5 0 C 139.925781 0 150 10.074219 150 22.5 L 150 127.5 C 150 139.925781 139.925781 150 127.5 150 L 22.5 150 C 10.074219 150 0 139.925781 0 127.5 L 0 22.5 C 0 10.074219 10.074219 0 22.5 0 Z M 22.5 0 " clip-rule="nonzero"/></clipPath><clipPath id="658acad916"><rect x="0" width="150" y="0" height="150"/></clipPath><clipPath id="aade2d3e1b"><path d="M 74 7.378906 L 76 7.378906 L 76 27 L 74 27 Z M 74 7.378906 " clip-rule="nonzero"/></clipPath><clipPath id="dad8c2531b"><path d="M 72 28 L 78 28 L 78 142.378906 L 72 142.378906 Z M 72 28 " clip-rule="nonzero"/></clipPath><clipPath id="61cbfba4ed"><path d="M 37 106 L 114 106 L 114 142.378906 L 37 142.378906 Z M 37 106 " clip-rule="nonzero"/></clipPath><clipPath id="f10058a146"><path d="M 31.722656 139 L 117.972656 139 L 117.972656 142.378906 L 31.722656 142.378906 Z M 31.722656 139 " clip-rule="nonzero"/></clipPath></defs><g clip-path="url(#d9a94bc0b4)"><g transform="matrix(1, 0, 0, 1, 0, -0.000000000000007527)"><g clip-path="url(#658acad916)"><g clip-path="url(#d561f6720a)"><g clip-path="url(#c6e8f8e423)"><rect x="-33" width="216" fill="#671833" height="215.999996" y="-32.999999" fill-opacity="1"/></g></g></g></g></g><g clip-path="url(#aade2d3e1b)"><path fill="#ffffff" d="M 75.429688 26.664062 L 75.421875 26.664062 C 75.171875 26.664062 74.96875 26.484375 74.96875 26.265625 L 74.96875 7.804688 C 74.96875 7.585938 75.171875 7.410156 75.421875 7.410156 L 75.429688 7.410156 C 75.683594 7.410156 75.882812 7.585938 75.882812 7.804688 L 75.882812 26.265625 C 75.882812 26.484375 75.683594 26.664062 75.429688 26.664062 " fill-opacity="1" fill-rule="nonzero"/></g><path fill="#ffffff" d="M 74.96875 8.457031 L 72.109375 8.457031 C 71.589844 8.457031 71.167969 8.828125 71.167969 9.28125 L 71.167969 9.289062 L 69.207031 9.289062 L 69.207031 11.886719 L 72.441406 11.886719 C 72.652344 11.886719 72.824219 11.738281 72.824219 11.554688 L 72.824219 11.546875 C 72.824219 11.277344 73.074219 11.058594 73.382812 11.058594 L 74.96875 11.058594 L 74.96875 8.457031 " fill-opacity="1" fill-rule="nonzero"/><g clip-path="url(#dad8c2531b)"><path fill="#ffffff" d="M 77.277344 142.585938 L 72.992188 142.585938 L 72.992188 28.375 L 77.277344 28.375 L 77.277344 142.585938 " fill-opacity="1" fill-rule="nonzero"/></g><path fill="#ffffff" d="M 70.054688 30.433594 L 79.933594 30.433594 L 87.355469 105.71875 L 62.632812 105.71875 Z M 81.800781 28.375 L 68.191406 28.375 L 60.363281 107.773438 L 89.625 107.773438 L 81.800781 28.375 " fill-opacity="1" fill-rule="nonzero"/><g clip-path="url(#61cbfba4ed)"><path fill="#ffffff" d="M 96.828125 134.9375 L 88.128906 119.664062 L 96.828125 119.664062 Z M 53.269531 134.992188 L 53.269531 119.664062 L 62 119.664062 Z M 113.234375 106.804688 L 37.265625 106.804688 L 37.265625 116.949219 C 37.265625 118.449219 38.480469 119.664062 39.980469 119.664062 L 40.007812 119.664062 L 40.007812 142.015625 L 53.613281 142.015625 L 66.34375 119.664062 L 83.785156 119.664062 L 96.515625 142.015625 L 110.089844 142.015625 L 110.089844 119.664062 L 110.121094 119.664062 C 111.839844 119.664062 113.234375 118.269531 113.234375 116.550781 L 113.234375 106.804688 " fill-opacity="1" fill-rule="nonzero"/></g><path fill="#ffffff" d="M 85.339844 105.429688 L 87.480469 105.429688 L 78.480469 75.363281 L 76.335938 75.363281 L 85.339844 105.429688 " fill-opacity="1" fill-rule="nonzero"/><path fill="#ffffff" d="M 114.089844 108.519531 L 36.347656 108.519531 L 36.347656 105.429688 L 114.089844 105.429688 L 114.089844 108.519531 " fill-opacity="1" fill-rule="nonzero"/><g clip-path="url(#f10058a146)"><path fill="#ffffff" d="M 118.265625 139.277344 L 118.265625 139.242188 C 116.679688 140.269531 114.1875 140.929688 111.378906 140.929688 C 108.394531 140.929688 105.765625 140.179688 104.203125 139.042969 L 104.035156 139.042969 C 102.472656 140.179688 99.84375 140.929688 96.859375 140.929688 C 93.875 140.929688 91.246094 140.179688 89.683594 139.042969 L 89.546875 139.042969 C 87.980469 140.179688 85.351562 140.929688 82.367188 140.929688 C 79.386719 140.929688 76.757812 140.179688 75.191406 139.042969 L 75.027344 139.042969 C 73.460938 140.179688 70.832031 140.929688 67.851562 140.929688 C 64.867188 140.929688 62.238281 140.179688 60.671875 139.042969 L 60.507812 139.042969 C 58.941406 140.179688 56.3125 140.929688 53.332031 140.929688 C 50.347656 140.929688 47.71875 140.179688 46.152344 139.042969 L 45.988281 139.042969 C 44.421875 140.179688 41.792969 140.929688 38.8125 140.929688 C 35.882812 140.929688 33.296875 140.210938 31.722656 139.109375 L 31.722656 139.144531 C 31.722656 141.046875 33.265625 142.585938 35.167969 142.585938 L 114.957031 142.585938 C 116.785156 142.585938 118.265625 141.105469 118.265625 139.277344 " fill-opacity="1" fill-rule="nonzero"/></g><path fill="#ffffff" d="M 87.617188 75.363281 L 62.375 75.363281 C 61.910156 75.363281 61.535156 74.988281 61.535156 74.519531 L 61.535156 66.257812 C 61.535156 65.792969 61.910156 65.417969 62.375 65.417969 L 87.617188 65.417969 C 88.082031 65.417969 88.457031 65.792969 88.457031 66.257812 L 88.457031 74.519531 C 88.457031 74.988281 88.082031 75.363281 87.617188 75.363281 " fill-opacity="1" fill-rule="nonzero"/><path fill="#ffffff" d="M 64.675781 105.429688 L 62.53125 105.429688 L 71.535156 75.363281 L 73.675781 75.363281 L 64.675781 105.429688 " fill-opacity="1" fill-rule="nonzero"/><path fill="#ffffff" d="M 80.992188 36.09375 L 68.761719 36.09375 L 68.761719 34.089844 L 80.992188 34.089844 L 80.992188 36.09375 " fill-opacity="1" fill-rule="nonzero"/><path fill="#ffffff" d="M 81.910156 42.609375 L 68.101562 42.609375 L 68.101562 40.609375 L 81.910156 40.609375 L 81.910156 42.609375 " fill-opacity="1" fill-rule="nonzero"/><path fill="#ffffff" d="M 83.320312 49.867188 L 66.691406 49.867188 L 66.691406 47.867188 L 83.320312 47.867188 L 83.320312 49.867188 " fill-opacity="1" fill-rule="nonzero"/><path fill="#ffffff" d="M 83.320312 57.070312 L 66.691406 57.070312 L 66.691406 55.070312 L 83.320312 55.070312 L 83.320312 57.070312 " fill-opacity="1" fill-rule="nonzero"/><path fill="#ffffff" d="M 71.492188 81.585938 L 63.730469 81.585938 L 63.730469 79.585938 L 71.492188 79.585938 L 71.492188 81.585938 " fill-opacity="1" fill-rule="nonzero"/><path fill="#ffffff" d="M 68.101562 89.746094 L 63.089844 89.746094 L 63.089844 87.746094 L 68.101562 87.746094 L 68.101562 89.746094 " fill-opacity="1" fill-rule="nonzero"/><path fill="#ffffff" d="M 66.472656 97.207031 L 62.230469 97.207031 L 62.230469 95.207031 L 66.472656 95.207031 L 66.472656 97.207031 " fill-opacity="1" fill-rule="nonzero"/><path fill="#ffffff" d="M 78.582031 81.9375 L 86.339844 81.9375 L 86.339844 79.9375 L 78.582031 79.9375 L 78.582031 81.9375 " fill-opacity="1" fill-rule="nonzero"/><path fill="#ffffff" d="M 81.96875 90.097656 L 86.980469 90.097656 L 86.980469 88.097656 L 81.96875 88.097656 L 81.96875 90.097656 " fill-opacity="1" fill-rule="nonzero"/><path fill="#ffffff" d="M 83.597656 97.558594 L 87.839844 97.558594 L 87.839844 95.554688 L 83.597656 95.554688 L 83.597656 97.558594 " fill-opacity="1" fill-rule="nonzero"/><path fill="#ffffff" d="M 76.335938 65.417969 L 73.992188 65.417969 L 73.992188 28.375 L 76.335938 28.375 L 76.335938 65.417969 " fill-opacity="1" fill-rule="nonzero"/><path fill="#ffffff" d="M 81.800781 28.375 L 68.199219 28.375 L 68.199219 22.488281 C 68.199219 21.917969 68.660156 21.457031 69.230469 21.457031 L 80.769531 21.457031 C 81.339844 21.457031 81.800781 21.917969 81.800781 22.488281 L 81.800781 28.375 " fill-opacity="1" fill-rule="nonzero"/><path fill="#ffffff" d="M 44.523438 119.863281 L 44.523438 134.65625 C 44.523438 135.53125 45.234375 136.242188 46.109375 136.242188 L 49.539062 136.242188 C 50.414062 136.242188 51.125 135.53125 51.125 134.65625 L 51.125 119.863281 L 44.523438 119.863281 " fill-opacity="1" fill-rule="nonzero"/><path fill="#ffffff" d="M 101.714844 119.863281 L 101.714844 134.65625 C 101.714844 135.53125 102.425781 136.242188 103.300781 136.242188 L 106.730469 136.242188 C 107.609375 136.242188 108.316406 135.53125 108.316406 134.65625 L 108.316406 119.863281 L 101.714844 119.863281 " fill-opacity="1" fill-rule="nonzero"/><path fill="#ffffff" d="M 89.898438 117.710938 L 103.207031 117.710938 C 103.550781 117.710938 103.777344 117.347656 103.617188 117.039062 L 96.859375 103.933594 C 96.6875 103.597656 96.207031 103.601562 96.039062 103.9375 L 89.484375 117.046875 C 89.332031 117.351562 89.554688 117.710938 89.898438 117.710938 " fill-opacity="1" fill-rule="nonzero"/><path fill="#ffffff" d="M 96.453125 104.09375 C 96.421875 104.09375 96.410156 104.113281 96.40625 104.121094 L 89.855469 117.230469 C 89.851562 117.238281 89.839844 117.253906 89.855469 117.277344 C 89.871094 117.300781 89.890625 117.300781 89.898438 117.300781 L 103.207031 117.300781 C 103.214844 117.300781 103.234375 117.300781 103.25 117.277344 C 103.265625 117.253906 103.253906 117.234375 103.25 117.230469 L 96.496094 104.121094 C 96.492188 104.113281 96.480469 104.09375 96.453125 104.09375 Z M 103.207031 118.125 L 89.898438 118.125 C 89.59375 118.125 89.316406 117.96875 89.15625 117.710938 C 88.996094 117.453125 88.980469 117.132812 89.117188 116.863281 L 95.671875 103.753906 C 95.820312 103.457031 96.117188 103.273438 96.453125 103.273438 C 96.777344 103.273438 97.074219 103.453125 97.226562 103.746094 L 103.984375 116.851562 C 104.125 117.125 104.113281 117.445312 103.953125 117.707031 C 103.792969 117.96875 103.515625 118.125 103.207031 118.125 " fill-opacity="1" fill-rule="nonzero"/><path fill="#ffffff" d="M 99.675781 113.027344 L 99.660156 112.992188 C 99.582031 112.128906 99.15625 111.367188 98.519531 110.851562 C 97.976562 110.207031 97.03125 108.9375 96.675781 107.488281 C 96.636719 107.34375 96.4375 107.34375 96.402344 107.488281 C 96.042969 108.9375 95.097656 110.207031 94.554688 110.851562 C 93.921875 111.367188 93.492188 112.128906 93.414062 112.992188 L 93.398438 113.027344 L 93.410156 113.027344 C 93.40625 113.109375 93.398438 113.195312 93.398438 113.28125 C 93.398438 115.015625 94.804688 116.421875 96.539062 116.421875 C 98.269531 116.421875 99.675781 115.015625 99.675781 113.28125 C 99.675781 113.195312 99.671875 113.109375 99.664062 113.027344 L 99.675781 113.027344 " fill-opacity="1" fill-rule="nonzero"/><path fill="#ffffff" d="M 96.558594 110.902344 L 96.558594 115.839844 C 97.914062 115.828125 99.007812 114.726562 99.007812 113.367188 C 99.007812 112.011719 97.914062 110.910156 96.558594 110.902344 " fill-opacity="1" fill-rule="nonzero"/></svg>