<svg xmlns="http://www.w3.org/2000/svg" xmlns:xlink="http://www.w3.org/1999/xlink" width="200" zoomAndPan="magnify" viewBox="0 0 150 149.999998" height="200" preserveAspectRatio="xMidYMid meet" version="1.0"><defs><clipPath id="98386cca87"><path d="M 22.5 0 L 127.5 0 C 139.925781 0 150 10.074219 150 22.5 L 150 127.5 C 150 139.925781 139.925781 150 127.5 150 L 22.5 150 C 10.074219 150 0 139.925781 0 127.5 L 0 22.5 C 0 10.074219 10.074219 0 22.5 0 Z M 22.5 0 " clip-rule="nonzero"/></clipPath><clipPath id="39a34c553b"><path d="M 0 0 L 150 0 L 150 150 L 0 150 Z M 0 0 " clip-rule="nonzero"/></clipPath><clipPath id="4578623acd"><path d="M 22.5 0 L 127.5 0 C 139.925781 0 150 10.074219 150 22.5 L 150 127.5 C 150 139.925781 139.925781 150 127.5 150 L 22.5 150 C 10.074219 150 0 139.925781 0 127.5 L 0 22.5 C 0 10.074219 10.074219 0 22.5 0 Z M 22.5 0 " clip-rule="nonzero"/></clipPath><clipPath id="a678029e2c"><rect x="0" width="150" y="0" height="150"/></clipPath><clipPath id="fd940244fb"><path d="M 13.464844 16.5 L 136.464844 16.5 L 136.464844 146.25 L 13.464844 146.25 Z M 13.464844 16.5 " clip-rule="nonzero"/></clipPath></defs><g clip-path="url(#98386cca87)"><g transform="matrix(1, 0, 0, 1, 0, -0.000000000000007527)"><g clip-path="url(#a678029e2c)"><g clip-path="url(#39a34c553b)"><g clip-path="url(#4578623acd)"><rect x="-33" width="216" fill="#671833" height="215.999996" y="-32.999999" fill-opacity="1"/></g></g></g></g></g><g clip-path="url(#fd940244fb)"><path fill="#f2f2f2" d="M 116.738281 117.039062 L 108.117188 117.039062 L 108.117188 115.765625 L 117.460938 115.765625 L 117.460938 117.039062 Z M 129.675781 117.179688 L 129.675781 118.734375 L 129.609375 118.628906 L 129.609375 117.179688 Z M 136.191406 118.738281 L 135.257812 117.179688 L 136.191406 117.179688 Z M 129.773438 118.734375 L 129.773438 117.179688 L 130.703125 117.179688 Z M 131.847656 118.734375 L 130.914062 117.179688 L 131.847656 117.179688 Z M 131.945312 118.738281 L 131.945312 117.179688 L 132.878906 117.179688 Z M 134.019531 118.738281 L 133.085938 117.179688 L 134.019531 117.179688 Z M 134.117188 118.734375 L 134.117188 117.179688 L 135.050781 117.179688 Z M 135.160156 117.179688 L 136.136719 118.808594 L 134.171875 118.808594 L 135.148438 117.179688 Z M 132.988281 117.179688 L 133.964844 118.808594 L 132 118.808594 L 132.976562 117.179688 Z M 130.816406 117.179688 L 131.792969 118.808594 L 129.824219 118.808594 L 130.800781 117.179688 Z M 129.609375 118.792969 L 129.621094 118.808594 L 129.609375 118.808594 Z M 116.792969 118.808594 L 117.460938 117.691406 L 117.460938 118.808594 Z M 108.117188 118.78125 L 109.078125 117.179688 L 109.09375 117.179688 L 110.070312 118.808594 L 108.117188 118.808594 Z M 99.414062 118.808594 L 100.390625 117.179688 L 100.394531 117.179688 L 100.394531 118.808594 Z M 81.347656 118.007812 L 81.824219 118.808594 L 81.347656 118.808594 Z M 73.339844 118.808594 L 73.820312 118.011719 L 73.820312 118.808594 Z M 72.140625 117.1875 L 72.144531 117.179688 L 72.160156 117.179688 L 73.136719 118.808594 L 72.140625 118.808594 Z M 68.996094 118.808594 L 69.542969 117.894531 L 69.542969 118.808594 Z M 54.769531 118.199219 L 54.769531 117.179688 L 54.777344 117.179688 L 55.753906 118.808594 L 54.769531 118.808594 Z M 45.097656 118.808594 L 46.074219 117.179688 L 46.085938 117.179688 L 47.046875 118.78125 L 47.046875 118.808594 Z M 37.703125 117.691406 L 38.371094 118.808594 L 37.703125 118.808594 Z M 25.546875 118.808594 L 25.554688 118.789062 L 25.554688 118.808594 Z M 19.90625 117.179688 L 18.972656 118.738281 L 18.972656 117.179688 Z M 24.460938 117.179688 L 25.394531 117.179688 L 25.394531 118.738281 Z M 24.347656 117.179688 L 24.363281 117.179688 L 25.339844 118.808594 L 23.371094 118.808594 Z M 23.316406 117.179688 L 24.25 117.179688 L 23.316406 118.738281 Z M 22.289062 117.179688 L 23.21875 117.179688 L 23.21875 118.738281 Z M 22.175781 117.179688 L 22.191406 117.179688 L 23.167969 118.808594 L 21.199219 118.808594 Z M 21.144531 117.179688 L 22.078125 117.179688 L 21.144531 118.738281 Z M 20.113281 117.179688 L 21.046875 117.179688 L 21.046875 118.738281 Z M 20.019531 117.179688 L 20.992188 118.808594 L 19.027344 118.808594 L 20.003906 117.179688 Z M 25.554688 118.628906 L 25.492188 118.738281 L 25.492188 117.179688 L 25.554688 117.179688 Z M 37.703125 115.765625 L 47.046875 115.765625 L 47.046875 117.039062 L 37.703125 117.039062 Z M 19.851562 107.28125 L 19.851562 106.472656 L 20.757812 106.472656 L 20.757812 107.28125 Z M 18.898438 106.472656 L 19.804688 106.472656 L 19.804688 107.28125 L 18.898438 107.28125 Z M 20.867188 107.28125 L 20.804688 107.28125 L 20.804688 106.472656 L 20.867188 106.472656 Z M 24.769531 61.957031 L 24.769531 61.679688 L 47.0625 61.683594 L 47.0625 62.070312 L 47.847656 62.070312 L 47.847656 71.660156 L 45.410156 71.660156 L 45.410156 71.316406 C 45.410156 71.234375 45.34375 71.164062 45.261719 71.164062 L 45.195312 71.164062 L 45.195312 70.195312 L 45.554688 70.195312 L 45.554688 66.527344 L 45.164062 66.527344 L 45.164062 65.308594 L 44.945312 65.308594 L 44.945312 66.527344 L 44.554688 66.527344 L 44.554688 70.195312 L 44.910156 70.195312 L 44.910156 71.164062 L 44.847656 71.164062 C 44.761719 71.164062 44.695312 71.234375 44.695312 71.316406 L 44.695312 71.558594 L 41.558594 71.558594 L 41.558594 71.316406 C 41.558594 71.234375 41.492188 71.164062 41.40625 71.164062 L 41.34375 71.164062 L 41.34375 70.195312 L 41.699219 70.195312 L 41.699219 68.089844 L 41.308594 68.089844 L 41.308594 66.871094 L 41.089844 66.871094 L 41.089844 68.089844 L 40.703125 68.089844 L 40.703125 70.195312 L 41.058594 70.195312 L 41.058594 71.164062 L 40.996094 71.164062 C 40.910156 71.164062 40.839844 71.234375 40.839844 71.316406 L 40.839844 72.636719 C 40.839844 72.71875 40.910156 72.789062 40.996094 72.789062 L 41.058594 72.789062 L 41.058594 75.480469 L 37.007812 75.480469 L 37.007812 76.386719 L 32.59375 76.386719 L 32.59375 76.625 L 32.3125 76.625 L 32.3125 78.847656 L 31.511719 78.847656 L 31.511719 79.050781 L 31.652344 79.050781 L 31.652344 80.386719 L 31.511719 80.386719 L 31.511719 82.042969 L 31.652344 82.042969 L 31.652344 82.59375 L 30.515625 82.59375 L 30.515625 82.042969 L 30.65625 82.042969 L 30.65625 80.386719 L 30.515625 80.386719 L 30.515625 79.050781 L 30.65625 79.050781 L 30.65625 78.847656 L 29.160156 78.847656 L 29.160156 79.050781 L 29.296875 79.050781 L 29.296875 80.386719 L 29.160156 80.386719 L 29.160156 82.042969 L 29.296875 82.042969 L 29.296875 89.492188 L 28.160156 89.492188 L 28.160156 82.042969 L 28.300781 82.042969 L 28.300781 80.386719 L 28.160156 80.386719 L 28.160156 79.050781 L 28.300781 79.050781 L 28.300781 78.847656 L 26.800781 78.847656 L 26.800781 79.050781 L 26.941406 79.050781 L 26.941406 80.386719 L 26.800781 80.386719 L 26.800781 82.042969 L 26.941406 82.042969 L 26.941406 89.492188 L 24.769531 89.492188 L 24.769531 88.96875 L 24.347656 88.96875 L 24.347656 61.957031 Z M 14.085938 74.199219 C 14.003906 74.199219 13.933594 74.234375 13.875 74.277344 L 13.71875 62.003906 C 13.824219 62.082031 13.960938 62.117188 14.097656 62.097656 C 14.222656 62.078125 14.324219 62.011719 14.402344 61.921875 L 14.410156 74.378906 C 14.34375 74.269531 14.222656 74.195312 14.085938 74.199219 Z M 17.265625 59.351562 C 17.3125 59.402344 17.367188 59.429688 17.4375 59.441406 L 17.4375 61.488281 L 14.519531 61.488281 C 14.507812 61.433594 14.488281 61.378906 14.464844 61.335938 Z M 47.679688 60.808594 L 47.679688 59.230469 L 48.058594 59.230469 Z M 49.90625 54.597656 L 51.585938 57.316406 L 49.664062 57.316406 L 49.371094 58.507812 L 49.46875 58.507812 L 49.414062 58.726562 L 49.339844 59.039062 L 48.832031 59.039062 Z M 48.355469 51.851562 L 49.847656 51.851562 L 49.425781 53.585938 Z M 51.613281 47.542969 L 51.894531 51.613281 L 50.628906 51.613281 Z M 51.730469 57.316406 L 49.945312 54.429688 L 50.519531 52.0625 L 50.523438 52.0625 L 50.578125 51.851562 L 51.914062 51.851562 L 52.292969 57.316406 Z M 48.195312 61.671875 L 48.292969 61.269531 L 48.890625 60.867188 L 48.769531 61.371094 L 48.671875 61.371094 L 48.597656 61.671875 Z M 56.554688 75.621094 L 56.554688 76.054688 L 56.417969 76.054688 C 56.394531 75.90625 56.371094 75.761719 56.332031 75.621094 Z M 59.578125 74.078125 C 59.691406 74.078125 59.78125 73.988281 59.78125 73.878906 L 59.78125 73.417969 L 60.445312 73.417969 L 60.445312 76.730469 C 60.34375 76.71875 60.246094 76.699219 60.140625 76.699219 C 59.914062 76.699219 59.703125 76.738281 59.492188 76.796875 L 59.492188 74.078125 Z M 65.402344 69.601562 L 66.589844 70.242188 L 66.589844 72.109375 L 65.25 72.109375 Z M 66.589844 59.195312 L 66.589844 62.285156 L 65.816406 62.765625 L 66.035156 59.195312 Z M 64.714844 52.679688 L 65.335938 52.679688 L 65.292969 53.386719 L 64.714844 53.386719 Z M 67.046875 42.496094 L 68.484375 43.128906 L 68.484375 44.957031 L 68.003906 45.167969 L 66.886719 45.167969 Z M 68.210938 24.53125 L 68.484375 24.695312 L 68.484375 27.261719 L 67.953125 27.578125 L 68.140625 24.53125 Z M 67.027344 23.050781 L 67.847656 23.050781 L 67.847656 23.855469 L 67.027344 23.855469 Z M 68.753906 23.1875 L 68.753906 23.050781 L 68.796875 23.050781 Z M 69.109375 22.785156 L 70.453125 22.785156 C 70.453125 22.796875 70.445312 22.800781 70.445312 22.8125 L 70.445312 22.976562 L 69.050781 22.976562 Z M 71.441406 19.167969 L 70.246094 19.167969 L 70.84375 17.261719 Z M 71.972656 20.867188 L 69.710938 20.867188 L 70.175781 19.390625 L 71.507812 19.390625 Z M 70.925781 22.332031 C 70.75 22.332031 70.605469 22.429688 70.523438 22.566406 L 69.179688 22.566406 L 69.644531 21.085938 L 72.039062 21.085938 L 72.503906 22.566406 L 71.324219 22.566406 C 71.242188 22.429688 71.097656 22.332031 70.925781 22.332031 Z M 71.402344 22.976562 L 71.402344 22.8125 C 71.402344 22.800781 71.398438 22.796875 71.398438 22.785156 L 72.574219 22.785156 L 72.632812 22.976562 Z M 73.035156 23.050781 L 73.035156 23.519531 L 72.886719 23.050781 Z M 74.761719 23.855469 L 73.941406 23.855469 L 73.941406 23.050781 L 74.761719 23.050781 Z M 73.730469 27.578125 L 73.199219 27.261719 L 73.199219 24.695312 L 73.472656 24.53125 L 73.542969 24.53125 Z M 73.679688 45.167969 L 73.199219 44.957031 L 73.199219 43.128906 L 74.636719 42.496094 L 74.796875 45.167969 Z M 77.070312 52.679688 L 77.070312 53.386719 L 76.394531 53.386719 L 76.351562 52.679688 Z M 75.867188 62.765625 L 73.199219 61.101562 L 73.199219 59.195312 L 75.648438 59.195312 Z M 73.199219 72.109375 L 73.199219 71.273438 L 76.28125 69.601562 L 76.433594 72.109375 Z M 97.117188 68.855469 L 97.800781 69.296875 L 97.800781 70.519531 L 97.554688 70.679688 L 97.117188 70.679688 Z M 97.800781 52.617188 L 97.183594 52.214844 L 97.800781 52.214844 Z M 100.71875 52.214844 L 100.132812 52.59375 L 100.132812 52.214844 Z M 100.347656 70.679688 L 100.132812 70.539062 L 100.132812 69.277344 L 100.820312 68.832031 L 100.820312 70.679688 Z M 103.375 68.855469 L 104.058594 69.296875 L 104.058594 70.519531 L 103.8125 70.679688 L 103.375 70.679688 Z M 104.058594 52.617188 L 103.441406 52.214844 L 104.058594 52.214844 Z M 106.976562 52.214844 L 106.390625 52.59375 L 106.390625 52.214844 Z M 106.605469 70.679688 L 106.390625 70.539062 L 106.390625 69.277344 L 107.074219 68.832031 L 107.074219 70.679688 Z M 134.585938 71.074219 L 134.585938 71.292969 L 133.585938 71.292969 L 133.585938 71.019531 L 133.839844 70.925781 L 134.585938 70.925781 Z M 133.464844 71.066406 L 133.464844 71.292969 L 132.855469 71.292969 Z M 124.0625 74.261719 L 124.0625 72.480469 L 123.761719 72.480469 L 123.761719 72.109375 L 120.558594 72.109375 L 120.558594 71.484375 L 131.542969 71.484375 Z M 124.753906 84.578125 L 124.753906 85.457031 L 124.0625 85.457031 L 124.0625 84.578125 Z M 124.0625 89.492188 L 124.0625 85.785156 L 124.753906 85.785156 L 124.753906 86.640625 C 124.617188 86.726562 124.523438 86.875 124.523438 87.046875 L 124.523438 88.433594 C 124.523438 88.609375 124.617188 88.753906 124.753906 88.84375 L 124.753906 89.492188 Z M 136.199219 107.28125 L 135.292969 107.28125 L 135.292969 106.472656 L 136.199219 106.472656 Z M 134.339844 107.28125 L 134.339844 106.472656 L 135.246094 106.472656 L 135.246094 107.28125 Z M 97.183594 117.039062 L 81.347656 117.039062 L 81.347656 115.765625 L 100.394531 115.765625 L 100.394531 117.039062 Z M 108.117188 118.199219 L 108.117188 117.179688 L 108.980469 117.179688 L 108.117188 118.621094 Z M 99.359375 117.179688 L 100.292969 117.179688 L 99.359375 118.738281 Z M 98.328125 117.179688 L 99.261719 117.179688 L 99.261719 118.738281 Z M 98.21875 117.179688 L 98.230469 117.179688 L 99.207031 118.808594 L 97.242188 118.808594 Z M 96.042969 117.179688 L 96.054688 117.179688 L 97.03125 118.808594 L 95.066406 118.808594 Z M 93.980469 117.179688 L 94.914062 117.179688 L 94.914062 118.738281 Z M 93.871094 117.179688 L 93.882812 117.179688 L 94.859375 118.808594 L 92.890625 118.808594 Z M 91.808594 117.179688 L 92.742188 117.179688 L 92.742188 118.738281 Z M 91.695312 117.179688 L 91.710938 117.179688 L 92.6875 118.808594 L 90.71875 118.808594 Z M 89.636719 117.179688 L 90.570312 117.179688 L 90.570312 118.738281 Z M 89.523438 117.179688 L 89.539062 117.179688 L 90.515625 118.808594 L 88.546875 118.808594 Z M 87.464844 117.179688 L 88.394531 117.179688 L 88.394531 118.738281 Z M 87.351562 117.179688 L 87.367188 117.179688 L 88.34375 118.808594 L 86.375 118.808594 Z M 85.289062 117.179688 L 86.222656 117.179688 L 86.222656 118.738281 Z M 85.179688 117.179688 L 85.195312 117.179688 L 86.167969 118.808594 L 84.203125 118.808594 Z M 83.117188 117.179688 L 84.050781 117.179688 L 84.050781 118.738281 Z M 83.007812 117.179688 L 83.019531 117.179688 L 83.996094 118.808594 L 82.03125 118.808594 Z M 82.910156 117.179688 L 81.976562 118.738281 L 81.976562 117.179688 Z M 85.082031 117.179688 L 84.148438 118.738281 L 84.148438 117.179688 Z M 87.253906 117.179688 L 86.320312 118.734375 L 86.320312 117.179688 Z M 89.425781 117.179688 L 88.492188 118.738281 L 88.492188 117.179688 Z M 91.601562 117.179688 L 90.664062 118.738281 L 90.664062 117.179688 Z M 93.773438 117.179688 L 92.839844 118.738281 L 92.839844 117.179688 Z M 95.945312 117.179688 L 95.011719 118.738281 L 95.011719 117.179688 Z M 97.089844 118.742188 L 96.152344 117.179688 L 97.089844 117.179688 Z M 97.1875 117.179688 L 98.121094 117.179688 L 97.1875 118.738281 Z M 81.347656 117.179688 L 81.878906 117.179688 L 81.878906 118.738281 L 81.347656 117.847656 Z M 73.285156 117.179688 L 73.820312 117.179688 L 73.820312 117.847656 L 73.285156 118.738281 Z M 73.191406 117.179688 L 73.191406 118.738281 L 72.257812 117.179688 Z M 68.941406 117.179688 L 69.542969 117.179688 L 69.542969 117.734375 L 68.941406 118.738281 Z M 67.800781 117.179688 L 67.816406 117.179688 L 68.789062 118.808594 L 66.824219 118.808594 Z M 65.628906 117.179688 L 65.640625 117.179688 L 66.617188 118.808594 L 64.652344 118.808594 Z M 63.457031 117.179688 L 63.46875 117.179688 L 64.445312 118.808594 L 62.480469 118.808594 Z M 61.28125 117.179688 L 61.296875 117.179688 L 62.273438 118.808594 L 60.308594 118.808594 Z M 59.109375 117.179688 L 59.125 117.179688 L 60.101562 118.808594 L 58.136719 118.808594 Z M 56.933594 117.179688 L 56.949219 117.179688 L 57.925781 118.808594 L 55.957031 118.808594 Z M 55.808594 117.179688 L 55.808594 118.738281 L 54.875 117.179688 Z M 47.046875 118.199219 L 47.046875 118.617188 L 46.183594 117.179688 L 47.046875 117.179688 Z M 60.15625 117.179688 L 60.15625 118.738281 L 59.222656 117.179688 Z M 62.328125 117.179688 L 62.328125 118.738281 L 61.394531 117.179688 Z M 64.5 117.179688 L 64.5 118.738281 L 63.566406 117.179688 Z M 66.671875 117.179688 L 66.671875 118.734375 L 65.738281 117.179688 Z M 68.84375 117.179688 L 68.84375 118.738281 L 67.910156 117.179688 Z M 67.703125 117.179688 L 66.769531 118.738281 L 66.769531 117.179688 Z M 65.53125 117.179688 L 64.597656 118.738281 L 64.597656 117.179688 Z M 63.359375 117.179688 L 62.425781 118.738281 L 62.425781 117.179688 Z M 61.1875 117.179688 L 60.253906 118.738281 L 60.253906 117.179688 Z M 58.082031 117.179688 L 59.015625 117.179688 L 58.082031 118.738281 Z M 56.835938 117.179688 L 55.902344 118.738281 L 55.902344 117.179688 Z M 57.984375 118.746094 L 57.046875 117.179688 L 57.984375 117.179688 Z M 69.542969 115.765625 L 69.542969 117.039062 L 54.769531 117.039062 L 54.769531 115.765625 Z M 37.265625 75.917969 L 37.734375 76.386719 L 37.265625 76.386719 Z M 57.734375 78.910156 L 56.460938 78.910156 L 56.460938 77.464844 L 58.378906 77.464844 C 58.015625 77.847656 57.785156 78.351562 57.734375 78.910156 Z M 66.75 71.988281 L 67.726562 71.988281 L 67.726562 72.109375 L 66.75 72.109375 Z M 66.78125 70.347656 L 66.75 70.347656 L 66.75 70.328125 Z M 66.75 69.765625 L 67.726562 69.765625 L 67.726562 70.347656 L 67.242188 70.347656 L 66.75 70.082031 Z M 66.589844 69.46875 L 66.589844 69.992188 L 65.613281 69.46875 Z M 65.785156 63.285156 L 66.589844 63.75 L 66.589844 68.417969 L 65.433594 69.082031 Z M 66.589844 63.152344 L 66.589844 63.496094 L 65.992188 63.152344 Z M 66.589844 62.929688 L 65.964844 62.929688 L 66.589844 62.542969 Z M 66.894531 62.351562 L 67.726562 62.351562 L 67.726562 62.929688 L 66.75 62.929688 L 66.75 62.441406 Z M 67.726562 59.195312 L 67.726562 59.226562 L 66.75 59.226562 L 66.75 59.195312 Z M 70.703125 44.222656 L 70.703125 45.167969 L 68.59375 45.167969 L 68.59375 45.148438 Z M 70.570312 44.042969 L 68.59375 44.910156 L 68.59375 43.175781 Z M 68.59375 42.394531 L 70.703125 42.394531 L 70.703125 43.863281 L 68.59375 42.9375 Z M 68.484375 42.394531 L 68.484375 42.886719 L 67.363281 42.394531 Z M 68.484375 41.644531 L 68.484375 42.175781 L 67.339844 42.175781 Z M 67.269531 38.894531 L 68.484375 39.457031 L 68.484375 41.402344 L 67.074219 42.058594 Z M 67.488281 35.289062 L 68.484375 35.78125 L 68.484375 37.855469 L 67.296875 38.441406 Z M 67.703125 31.6875 L 68.484375 32.097656 L 68.484375 34.308594 L 67.515625 34.820312 Z M 68.484375 27.738281 L 68.113281 27.738281 L 68.484375 27.515625 Z M 70.703125 26.1875 L 70.703125 27.738281 L 68.59375 27.738281 L 68.59375 27.449219 Z M 70.628906 25.976562 L 68.59375 27.195312 L 68.59375 24.757812 Z M 68.546875 23.855469 L 67.890625 23.855469 L 67.890625 23.050781 L 68.710938 23.050781 L 68.710938 23.324219 Z M 69.578125 23.855469 L 68.777344 23.855469 L 69.027344 23.050781 L 69.578125 23.050781 Z M 70.441406 23.183594 L 69.621094 23.183594 L 69.621094 23.050781 L 70.441406 23.050781 Z M 72.167969 23.183594 L 71.402344 23.183594 L 71.402344 23.050781 L 72.167969 23.050781 Z M 72.25 23.855469 L 72.25 23.183594 L 72.210938 23.183594 L 72.210938 23.050781 L 72.65625 23.050781 L 72.90625 23.855469 Z M 73.136719 23.855469 L 73.078125 23.660156 L 73.078125 23.050781 L 73.898438 23.050781 L 73.898438 23.855469 Z M 72.769531 27.003906 L 72.769531 24.949219 L 73.089844 24.761719 L 73.089844 27.195312 Z M 73.089844 27.738281 L 72.769531 27.738281 L 72.769531 27.261719 L 73.089844 27.449219 Z M 73.199219 27.738281 L 73.199219 27.515625 L 73.570312 27.738281 Z M 73.949219 31.199219 L 73.199219 30.78125 L 73.199219 28.402344 L 73.761719 28.085938 Z M 73.199219 34.3125 L 73.199219 32.078125 L 73.976562 31.667969 L 74.167969 34.820312 Z M 73.199219 37.855469 L 73.199219 35.78125 L 74.199219 35.289062 L 74.386719 38.441406 Z M 73.199219 41.402344 L 73.199219 39.457031 L 74.417969 38.894531 L 74.609375 42.058594 Z M 73.199219 42.175781 L 73.199219 41.644531 L 74.347656 42.175781 Z M 73.199219 42.394531 L 74.320312 42.394531 L 73.199219 42.886719 Z M 72.769531 43.074219 L 72.769531 42.394531 L 73.089844 42.394531 L 73.089844 42.9375 Z M 72.769531 44.769531 L 72.769531 43.316406 L 73.089844 43.175781 L 73.089844 44.910156 Z M 73.089844 45.167969 L 72.769531 45.167969 L 72.769531 45.007812 L 73.089844 45.148438 Z M 71.144531 59.820312 L 71.144531 59.703125 L 71.957031 59.195312 L 73.089844 59.195312 L 73.089844 61.035156 Z M 73.089844 62.929688 L 71.144531 62.929688 L 71.144531 60.082031 L 73.089844 61.292969 Z M 73.199219 62.929688 L 73.199219 61.359375 L 75.71875 62.929688 Z M 73.199219 69.25 L 73.199219 67.574219 L 76.09375 69.25 Z M 73.199219 69.46875 L 76.070312 69.46875 L 73.199219 71.023438 Z M 71.1875 72.109375 L 71.144531 72.109375 L 71.144531 69.46875 L 73.089844 69.46875 L 73.089844 71.082031 Z M 71.648438 72.109375 L 73.089844 71.332031 L 73.089844 72.109375 Z M 97.800781 68.59375 L 97.800781 69.027344 L 97.132812 68.59375 Z M 97.800781 66.5625 L 97.800781 67.785156 L 97.117188 68.226562 L 97.117188 66.117188 Z M 97.800781 63.828125 L 97.800781 65.046875 L 97.117188 65.492188 L 97.117188 63.382812 Z M 97.800781 61.089844 L 97.800781 62.3125 L 97.117188 62.757812 L 97.117188 60.648438 Z M 97.800781 58.355469 L 97.800781 59.578125 L 97.117188 60.019531 L 97.117188 57.910156 Z M 97.800781 55.621094 L 97.800781 56.84375 L 97.117188 57.285156 L 97.117188 55.175781 Z M 97.800781 54.105469 L 97.117188 54.550781 L 97.117188 52.441406 L 97.800781 52.886719 Z M 100.820312 54.570312 L 100.132812 54.128906 L 100.132812 52.863281 L 100.820312 52.417969 Z M 100.820312 57.308594 L 100.132812 56.863281 L 100.132812 55.597656 L 100.820312 55.152344 Z M 100.820312 60.042969 L 100.132812 59.597656 L 100.132812 58.335938 L 100.820312 57.890625 Z M 100.820312 62.777344 L 100.132812 62.335938 L 100.132812 61.070312 L 100.820312 60.625 Z M 100.820312 65.511719 L 100.132812 65.070312 L 100.132812 63.804688 L 100.820312 63.359375 Z M 100.820312 68.25 L 100.132812 67.804688 L 100.132812 66.542969 L 100.820312 66.097656 Z M 100.132812 68.59375 L 100.769531 68.59375 L 100.132812 69.007812 Z M 104.058594 68.59375 L 104.058594 69.027344 L 103.390625 68.59375 Z M 104.058594 66.5625 L 104.058594 67.785156 L 103.375 68.226562 L 103.375 66.117188 Z M 104.058594 63.828125 L 104.058594 65.046875 L 103.375 65.492188 L 103.375 63.382812 Z M 104.058594 61.09375 L 104.058594 62.3125 L 103.375 62.757812 L 103.375 60.648438 Z M 104.058594 58.355469 L 104.058594 59.578125 L 103.375 60.019531 L 103.375 57.910156 Z M 104.058594 55.621094 L 104.058594 56.839844 L 103.375 57.285156 L 103.375 55.175781 Z M 104.058594 54.105469 L 103.375 54.550781 L 103.375 52.441406 L 104.058594 52.886719 Z M 107.074219 54.570312 L 106.390625 54.128906 L 106.390625 52.863281 L 107.074219 52.417969 Z M 107.074219 57.308594 L 106.390625 56.863281 L 106.390625 55.597656 L 107.074219 55.152344 Z M 107.074219 60.042969 L 106.390625 59.597656 L 106.390625 58.335938 L 107.074219 57.890625 Z M 107.074219 62.777344 L 106.390625 62.335938 L 106.390625 61.070312 L 107.074219 60.625 Z M 107.074219 65.511719 L 106.390625 65.070312 L 106.390625 63.804688 L 107.074219 63.359375 Z M 107.074219 68.25 L 106.390625 67.804688 L 106.390625 66.542969 L 107.074219 66.097656 Z M 106.390625 68.59375 L 107.027344 68.59375 L 106.390625 69.007812 Z M 114.441406 71.074219 L 114.441406 71.285156 L 113.648438 70.925781 L 114.441406 70.925781 Z M 115.558594 71.074219 L 115.558594 71.292969 L 114.5625 71.292969 L 114.5625 70.925781 L 115.558594 70.925781 Z M 116.679688 71.074219 L 116.679688 71.292969 L 115.679688 71.292969 L 115.679688 70.925781 L 116.679688 70.925781 Z M 117.800781 71.074219 L 117.800781 71.292969 L 116.800781 71.292969 L 116.800781 70.925781 L 117.800781 70.925781 Z M 118.917969 71.074219 L 118.917969 71.292969 L 117.917969 71.292969 L 117.917969 70.925781 L 118.917969 70.925781 Z M 119.308594 71.292969 L 119.039062 71.292969 L 119.039062 70.925781 L 119.308594 70.925781 Z M 116.269531 72.109375 L 114.882812 71.484375 L 119.308594 71.484375 L 119.308594 72.109375 Z M 41.058594 75.871094 L 41.058594 76.175781 L 40.996094 76.175781 C 40.910156 76.175781 40.839844 76.242188 40.839844 76.328125 L 40.839844 76.386719 L 38.097656 76.386719 L 37.578125 75.871094 Z M 43.527344 81.738281 L 43.527344 80.914062 C 43.527344 80.5 43.1875 80.164062 42.777344 80.164062 L 42.636719 80.164062 L 42.636719 80.136719 C 42.636719 80.089844 42.597656 80.050781 42.550781 80.050781 L 42.402344 80.050781 C 42.335938 79.910156 42.234375 79.792969 42.109375 79.699219 L 42.109375 77.929688 L 44.121094 75.917969 L 44.121094 81.738281 Z M 44.121094 82.410156 L 43.96875 82.257812 L 44.121094 82.257812 Z M 44.660156 82.8125 L 44.804688 82.8125 L 44.804688 83.84375 L 44.378906 83.84375 L 44.378906 82.257812 L 44.507812 82.257812 L 44.507812 82.660156 C 44.507812 82.742188 44.574219 82.8125 44.660156 82.8125 Z M 57.710938 80.316406 L 57.710938 83.898438 L 57.515625 83.898438 L 57.515625 84.359375 L 58.1875 84.359375 L 58.1875 85.8125 L 56.460938 85.8125 L 56.460938 80.316406 Z M 67.890625 70.945312 L 68.484375 71.265625 L 68.484375 72.109375 L 67.890625 72.109375 Z M 66.75 71.246094 L 67.726562 71.246094 L 67.726562 71.828125 L 66.75 71.828125 Z M 67.726562 70.605469 L 67.539062 70.503906 L 67.726562 70.503906 Z M 66.75 69.023438 L 67.726562 69.023438 L 67.726562 69.25 L 66.75 69.25 Z M 66.589844 69.25 L 65.589844 69.25 L 66.589844 68.667969 Z M 67.261719 68.28125 L 67.726562 68.28125 L 67.726562 68.863281 L 66.75 68.863281 L 66.75 68.574219 Z M 66.75 68.28125 L 66.820312 68.28125 L 66.75 68.320312 Z M 67.726562 63.152344 L 67.726562 63.675781 L 66.898438 63.675781 L 66.75 63.589844 L 66.75 63.152344 Z M 67.890625 61.730469 L 68.484375 61.359375 L 68.484375 62.929688 L 67.890625 62.929688 Z M 67.726562 61.832031 L 67.726562 62.191406 L 67.148438 62.191406 Z M 67.671875 61.609375 L 66.75 62.183594 L 66.75 61.609375 Z M 66.75 60.867188 L 67.726562 60.867188 L 67.726562 61.453125 L 66.75 61.453125 Z M 66.75 60.128906 L 67.726562 60.128906 L 67.726562 60.710938 L 66.75 60.710938 Z M 68.484375 59.195312 L 68.484375 61.101562 L 67.890625 61.472656 L 67.890625 59.195312 Z M 71.144531 44.292969 L 71.46875 44.4375 L 71.46875 45.167969 L 71.144531 45.167969 Z M 71.46875 42.394531 L 71.46875 43.648438 L 71.144531 43.789062 L 71.144531 42.394531 Z M 71.144531 40.691406 L 71.46875 40.839844 L 71.46875 42.175781 L 71.144531 42.175781 Z M 70.703125 40.613281 L 70.703125 42.175781 L 68.59375 42.175781 L 68.59375 41.59375 Z M 70.582031 40.429688 L 68.59375 41.351562 L 68.59375 39.507812 Z M 68.59375 38.785156 L 70.703125 38.785156 L 70.703125 40.246094 L 68.59375 39.265625 Z M 68.484375 38.785156 L 68.484375 39.214844 L 67.558594 38.785156 Z M 68.484375 38.566406 L 67.53125 38.566406 L 68.484375 38.097656 Z M 70.703125 37.007812 L 70.703125 38.566406 L 68.59375 38.566406 L 68.59375 38.042969 Z M 70.59375 36.816406 L 68.59375 37.800781 L 68.59375 35.835938 Z M 68.59375 35.175781 L 70.703125 35.175781 L 70.703125 36.628906 L 68.59375 35.589844 Z M 68.484375 35.175781 L 68.484375 35.539062 L 67.753906 35.175781 Z M 68.484375 34.957031 L 67.722656 34.957031 L 68.484375 34.554688 Z M 70.703125 33.390625 L 70.703125 34.957031 L 68.59375 34.957031 L 68.59375 34.5 Z M 70.59375 33.199219 L 68.59375 34.25 L 68.59375 32.152344 Z M 68.59375 31.566406 L 70.703125 31.566406 L 70.703125 33.007812 L 68.59375 31.90625 Z M 68.484375 31.566406 L 68.484375 31.847656 L 67.945312 31.566406 Z M 68.484375 31.347656 L 67.921875 31.347656 L 68.484375 31.03125 Z M 70.703125 29.792969 L 70.703125 31.347656 L 68.59375 31.347656 L 68.59375 30.96875 Z M 70.617188 29.589844 L 68.59375 30.71875 L 68.59375 28.460938 Z M 71.46875 27.957031 L 71.46875 29.117188 L 71.144531 29.296875 L 71.144531 27.957031 Z M 71.144531 26.285156 L 71.46875 26.480469 L 71.46875 27.738281 L 71.144531 27.738281 Z M 70.703125 24.53125 L 70.703125 25.765625 L 68.640625 24.53125 Z M 72.769531 24.53125 L 73.046875 24.53125 L 72.769531 24.695312 Z M 72.605469 25.359375 L 72.089844 25.359375 L 72.605469 25.046875 Z M 72.605469 27.582031 L 71.632812 27.582031 L 71.632812 27 L 72.335938 27 L 72.605469 27.164062 Z M 72.605469 28.324219 L 71.632812 28.324219 L 71.632812 27.957031 L 72.605469 27.957031 Z M 72.769531 30.542969 L 72.769531 28.640625 L 73.089844 28.460938 L 73.089844 30.71875 Z M 73.089844 31.347656 L 72.769531 31.347656 L 72.769531 30.792969 L 73.089844 30.96875 Z M 73.199219 31.347656 L 73.199219 31.03125 L 73.761719 31.347656 Z M 73.199219 31.566406 L 73.695312 31.566406 L 73.199219 31.828125 Z M 72.769531 32.054688 L 72.769531 31.566406 L 73.089844 31.566406 L 73.089844 31.886719 Z M 72.769531 34.089844 L 72.769531 32.300781 L 73.089844 32.132812 L 73.089844 34.253906 Z M 73.089844 34.957031 L 72.769531 34.957031 L 72.769531 34.335938 L 73.089844 34.503906 Z M 73.199219 34.957031 L 73.199219 34.5625 L 73.957031 34.957031 Z M 73.199219 35.175781 L 73.933594 35.175781 L 73.199219 35.539062 Z M 72.769531 35.746094 L 72.769531 35.175781 L 73.089844 35.175781 L 73.089844 35.589844 Z M 72.769531 37.644531 L 72.769531 35.992188 L 73.089844 35.835938 L 73.089844 37.800781 Z M 73.089844 38.566406 L 72.769531 38.566406 L 72.769531 37.886719 L 73.089844 38.042969 Z M 73.199219 38.566406 L 73.199219 38.097656 L 74.152344 38.566406 Z M 73.199219 38.785156 L 74.125 38.785156 L 73.199219 39.214844 Z M 72.769531 39.414062 L 72.769531 38.785156 L 73.089844 38.785156 L 73.089844 39.265625 Z M 72.769531 41.203125 L 72.769531 39.65625 L 73.089844 39.507812 L 73.089844 41.351562 Z M 72.769531 41.445312 L 73.089844 41.59375 L 73.089844 42.175781 L 72.769531 42.175781 Z M 71.652344 40.925781 L 71.632812 40.925781 L 71.632812 40.917969 Z M 71.632812 40.34375 L 72.605469 40.34375 L 72.605469 40.925781 L 72.171875 40.925781 L 71.632812 40.675781 Z M 71.144531 40.410156 L 71.46875 40.257812 L 71.46875 40.601562 L 71.144531 40.449219 Z M 71.46875 38.785156 L 71.46875 40.019531 L 71.144531 40.167969 L 71.144531 38.785156 Z M 71.46875 37.246094 L 71.46875 38.566406 L 71.144531 38.566406 L 71.144531 37.089844 Z M 71.46875 35.175781 L 71.46875 36.386719 L 71.144531 36.546875 L 71.144531 35.175781 Z M 71.46875 33.65625 L 71.46875 34.957031 L 71.144531 34.957031 L 71.144531 33.488281 Z M 71.46875 31.566406 L 71.46875 32.738281 L 71.144531 32.910156 L 71.144531 31.566406 Z M 71.144531 29.886719 L 71.46875 30.066406 L 71.46875 31.347656 L 71.144531 31.347656 Z M 71.46875 29.816406 L 71.144531 29.632812 L 71.144531 29.550781 L 71.46875 29.367188 Z M 71.726562 29.222656 L 72.605469 29.222656 L 72.605469 29.808594 L 71.632812 29.808594 L 71.632812 29.273438 Z M 71.632812 29.023438 L 71.632812 28.484375 L 72.601562 28.484375 Z M 72.605469 29.066406 L 72.007812 29.066406 L 72.605469 28.730469 Z M 71.738281 29.964844 L 72.605469 29.964844 L 72.605469 30.449219 Z M 72.605469 32.03125 L 71.632812 32.03125 L 71.632812 31.566406 L 72.605469 31.566406 Z M 72.605469 32.773438 L 71.875 32.773438 L 72.605469 32.386719 Z M 71.972656 33.671875 L 72.605469 33.671875 L 72.605469 34.003906 Z M 71.632812 34.957031 L 71.632812 34.414062 L 72.605469 34.414062 L 72.605469 34.957031 Z M 72.605469 35.738281 L 71.632812 35.738281 L 71.632812 35.175781 L 72.605469 35.175781 Z M 72.605469 36.476562 L 71.78125 36.476562 L 72.605469 36.070312 Z M 72.230469 37.378906 L 72.605469 37.378906 L 72.605469 37.5625 Z M 72.605469 37.960938 L 71.632812 37.960938 L 71.632812 37.378906 L 71.734375 37.378906 L 72.605469 37.808594 Z M 71.632812 38.566406 L 71.632812 38.121094 L 72.605469 38.121094 L 72.605469 38.566406 Z M 71.632812 39.601562 L 72.367188 39.601562 L 71.632812 39.941406 Z M 72.605469 39.441406 L 71.632812 39.441406 L 71.632812 38.863281 L 72.605469 38.863281 Z M 71.632812 36.636719 L 72.605469 36.636719 L 72.605469 37.21875 L 71.910156 37.21875 L 71.632812 37.085938 Z M 71.632812 35.894531 L 72.46875 35.894531 L 71.632812 36.304688 Z M 72.605469 34.253906 L 71.632812 34.253906 L 71.632812 33.742188 L 72.605469 34.25 Z M 71.632812 32.929688 L 72.605469 32.929688 L 72.605469 33.511719 L 71.667969 33.511719 L 71.632812 33.496094 Z M 71.632812 32.1875 L 72.515625 32.1875 L 71.632812 32.652344 Z M 71.632812 30.546875 L 71.632812 30.15625 L 72.332031 30.546875 Z M 71.632812 31.289062 L 71.632812 30.707031 L 72.605469 30.707031 L 72.605469 31.289062 Z M 71.144531 33.15625 L 71.46875 32.988281 L 71.46875 33.410156 L 71.144531 33.238281 Z M 71.144531 36.792969 L 71.46875 36.632812 L 71.46875 37.003906 L 71.144531 36.84375 Z M 72.605469 40.183594 L 71.632812 40.183594 L 72.605469 39.730469 Z M 72.511719 41.085938 L 72.605469 41.085938 L 72.605469 41.128906 Z M 72.605469 41.667969 L 71.632812 41.667969 L 71.632812 41.085938 L 71.992188 41.085938 L 72.605469 41.371094 Z M 72.070312 26.839844 L 71.632812 26.839844 L 71.632812 26.578125 Z M 71.632812 26.257812 L 72.605469 26.257812 L 72.605469 26.839844 L 72.5 26.839844 L 71.632812 26.324219 Z M 71.144531 25.925781 L 71.46875 25.730469 L 71.46875 26.226562 L 71.144531 26.03125 Z M 71.46875 24.53125 L 71.46875 25.472656 L 71.144531 25.667969 L 71.144531 24.53125 Z M 72.605469 26.101562 L 71.632812 26.101562 L 71.632812 25.632812 L 71.824219 25.515625 L 72.605469 25.515625 Z M 72.605469 24.792969 L 71.660156 25.359375 L 71.632812 25.359375 L 71.632812 24.777344 L 72.605469 24.777344 Z M 72.605469 24.617188 L 71.632812 24.617188 L 71.632812 24.53125 L 72.605469 24.53125 Z M 71.632812 42.175781 L 71.632812 41.824219 L 72.605469 41.824219 L 72.605469 42.175781 Z M 72.605469 42.410156 L 71.632812 42.410156 L 71.632812 42.394531 L 72.605469 42.394531 Z M 72.601562 43.148438 L 71.632812 43.148438 L 71.632812 42.566406 L 72.605469 42.566406 L 72.605469 43.148438 Z M 71.632812 43.308594 L 72.242188 43.308594 L 71.632812 43.574219 Z M 72.605469 43.890625 L 71.632812 43.890625 L 71.632812 43.816406 L 72.605469 43.386719 Z M 71.632812 45.167969 L 71.632812 44.792969 L 72.273438 44.792969 L 72.605469 44.9375 L 72.605469 45.167969 Z M 71.914062 44.632812 L 71.632812 44.632812 L 71.632812 44.507812 Z M 71.632812 44.050781 L 72.605469 44.050781 L 72.605469 44.632812 L 72.457031 44.632812 L 71.632812 44.269531 Z M 71.144531 44.03125 L 71.46875 43.886719 L 71.46875 44.199219 L 71.144531 44.054688 Z M 71.144531 59.195312 L 71.542969 59.195312 L 71.144531 59.445312 Z M 69.726562 59.195312 L 70.632812 59.761719 L 68.59375 61.035156 L 68.59375 59.195312 Z M 70.703125 59.195312 L 70.703125 59.546875 L 70.140625 59.195312 Z M 68.59375 62.929688 L 68.59375 61.292969 L 70.703125 59.976562 L 70.703125 62.929688 Z M 70.703125 65.875 L 68.59375 64.65625 L 68.59375 63.152344 L 70.703125 63.152344 Z M 71.144531 66.128906 L 71.144531 66.035156 L 73.089844 64.910156 L 73.089844 67.253906 Z M 71.144531 66.382812 L 73.089844 67.507812 L 73.089844 69.25 L 71.144531 69.25 Z M 68.59375 69.25 L 68.59375 67.507812 L 70.703125 66.289062 L 70.703125 69.25 Z M 68.484375 69.46875 L 68.484375 71.015625 L 67.890625 70.695312 L 67.890625 69.46875 Z M 67.890625 67.917969 L 68.484375 67.570312 L 68.484375 69.25 L 67.890625 69.25 Z M 67.726562 68.011719 L 67.726562 68.121094 L 67.535156 68.121094 Z M 66.75 67.539062 L 67.726562 67.539062 L 67.726562 67.757812 L 67.09375 68.121094 L 66.75 68.121094 Z M 66.75 66.800781 L 67.726562 66.800781 L 67.726562 67.382812 L 66.75 67.382812 Z M 66.75 66.058594 L 67.726562 66.058594 L 67.726562 66.640625 L 66.75 66.640625 Z M 66.75 65.316406 L 67.726562 65.316406 L 67.726562 65.898438 L 66.75 65.898438 Z M 66.75 64.574219 L 67.726562 64.574219 L 67.726562 65.15625 L 66.75 65.15625 Z M 66.75 63.84375 L 67.726562 64.40625 L 67.726562 64.417969 L 66.75 64.417969 Z M 67.726562 64.152344 L 67.171875 63.832031 L 67.726562 63.832031 Z M 67.890625 64.25 L 67.890625 63.152344 L 68.484375 63.152344 L 68.484375 64.59375 Z M 68.59375 64.910156 L 70.625 66.082031 L 68.59375 67.257812 Z M 68.484375 67.320312 L 67.890625 67.664062 L 67.890625 64.5 L 68.484375 64.847656 Z M 70.511719 72.109375 L 68.59375 71.074219 L 68.59375 69.46875 L 70.703125 69.46875 L 70.703125 72.109375 Z M 104.058594 68.46875 L 103.414062 68.46875 L 104.058594 68.050781 Z M 104.058594 65.859375 L 104.058594 66.292969 L 103.390625 65.859375 Z M 104.058594 65.734375 L 103.414062 65.734375 L 104.058594 65.316406 Z M 104.058594 63.125 L 104.058594 63.558594 L 103.386719 63.125 Z M 104.058594 63 L 103.414062 63 L 104.058594 62.582031 Z M 104.058594 60.386719 L 104.058594 60.824219 L 103.390625 60.386719 Z M 104.058594 60.261719 L 103.414062 60.261719 L 104.058594 59.84375 Z M 104.058594 57.652344 L 104.058594 58.085938 L 103.386719 57.652344 Z M 104.058594 57.527344 L 103.414062 57.527344 L 104.058594 57.109375 Z M 104.058594 54.917969 L 104.058594 55.351562 L 103.386719 54.917969 Z M 104.058594 54.792969 L 103.414062 54.792969 L 104.058594 54.375 Z M 106.390625 54.792969 L 106.390625 54.394531 L 107.003906 54.792969 Z M 106.390625 54.917969 L 107.027344 54.917969 L 106.390625 55.332031 Z M 106.390625 57.527344 L 106.390625 57.132812 L 107.003906 57.527344 Z M 106.390625 57.652344 L 107.027344 57.652344 L 106.390625 58.066406 Z M 106.390625 60.261719 L 106.390625 59.867188 L 107.003906 60.261719 Z M 106.390625 60.386719 L 107.027344 60.386719 L 106.390625 60.800781 Z M 106.390625 63 L 106.390625 62.601562 L 107.003906 63 Z M 106.390625 63.125 L 107.027344 63.125 L 106.390625 63.535156 Z M 106.390625 65.734375 L 106.390625 65.339844 L 107.003906 65.734375 Z M 106.390625 65.859375 L 107.027344 65.859375 L 106.390625 66.273438 Z M 106.390625 68.074219 L 107.003906 68.46875 L 106.390625 68.46875 Z M 31.652344 84.15625 L 30.515625 83.019531 L 30.515625 83.011719 L 31.652344 83.011719 Z M 41.832031 76.625 L 41.832031 76.386719 L 41.558594 76.386719 L 41.558594 76.328125 C 41.558594 76.242188 41.492188 76.175781 41.40625 76.175781 L 41.34375 76.175781 L 41.34375 75.871094 L 43.804688 75.871094 L 42.109375 77.5625 L 42.109375 76.625 Z M 42.972656 81.261719 L 42.535156 80.828125 L 42.550781 80.828125 C 42.597656 80.828125 42.636719 80.789062 42.636719 80.742188 L 42.636719 80.714844 L 42.777344 80.714844 C 42.886719 80.714844 42.972656 80.804688 42.972656 80.914062 Z M 43.527344 82.59375 L 43.527344 82.257812 L 43.605469 82.257812 L 43.9375 82.59375 Z M 43.527344 83.84375 L 43.527344 83.628906 L 44.121094 83.035156 L 44.121094 83.84375 Z M 44.121094 84.492188 L 43.527344 84.492188 L 43.527344 84.191406 L 44.121094 84.191406 Z M 44.804688 84.492188 L 44.378906 84.492188 L 44.378906 84.191406 L 44.804688 84.191406 Z M 47.847656 83.84375 L 45.304688 83.84375 L 45.304688 82.8125 L 45.445312 82.8125 C 45.53125 82.8125 45.601562 82.742188 45.601562 82.660156 L 45.601562 82.257812 L 47.847656 82.257812 Z M 58.4375 84.894531 L 58.960938 85.179688 C 58.890625 85.210938 58.832031 85.269531 58.832031 85.351562 L 58.832031 85.8125 L 58.4375 85.8125 Z M 58.976562 84.359375 L 58.976562 84.929688 L 58.4375 84.636719 L 58.4375 84.359375 Z M 68.59375 72.109375 L 68.59375 71.324219 L 70.050781 72.109375 Z M 31.652344 88.035156 L 30.515625 89.171875 L 30.515625 83.382812 L 31.652344 84.519531 Z M 42.109375 82.59375 L 42.109375 82.257812 L 42.972656 82.257812 L 42.972656 82.59375 Z M 43.527344 83.011719 L 43.777344 83.011719 L 43.527344 83.261719 Z M 42.945312 83.84375 L 42.109375 83.84375 L 42.109375 83.011719 L 42.972656 83.011719 L 42.972656 83.816406 Z M 42.660156 84.492188 L 42.960938 84.191406 L 42.972656 84.191406 L 42.972656 84.492188 Z M 42.972656 88.378906 L 42.109375 87.515625 L 42.109375 85.042969 L 42.3125 84.839844 L 42.972656 84.839844 Z M 44.121094 85.828125 L 43.527344 85.828125 L 43.527344 84.839844 L 44.121094 84.839844 Z M 44.804688 85.828125 L 44.378906 85.828125 L 44.378906 84.839844 L 44.804688 84.839844 Z M 47.847656 84.492188 L 45.304688 84.492188 L 45.304688 84.191406 L 47.847656 84.191406 Z M 58.4375 88.878906 L 59.121094 88.507812 L 59.121094 89.082031 L 58.605469 89.082031 L 58.605469 89.492188 L 58.4375 89.492188 Z M 58.4375 87.011719 L 59.121094 87.382812 L 59.121094 88.246094 L 58.4375 88.621094 Z M 31.652344 89.203125 L 30.851562 89.203125 L 31.652344 88.402344 Z M 42.109375 84.492188 L 42.109375 84.191406 L 42.597656 84.191406 L 42.296875 84.492188 Z M 42.972656 89.203125 L 42.347656 89.203125 L 42.347656 88.925781 L 42.109375 88.925781 L 42.109375 87.878906 L 42.972656 88.742188 Z M 44.847656 87.824219 L 44.910156 87.824219 L 44.910156 89.179688 L 44.519531 89.179688 L 44.519531 89.203125 L 44.378906 89.203125 L 44.378906 86.414062 L 44.695312 86.414062 L 44.695312 87.671875 C 44.695312 87.753906 44.761719 87.824219 44.847656 87.824219 Z M 47.847656 85.488281 L 47.847656 86.835938 L 47.085938 86.835938 L 47.085938 86.804688 C 47.085938 86.265625 46.644531 85.828125 46.109375 85.828125 L 45.304688 85.828125 L 45.304688 84.839844 L 47.507812 84.839844 L 47.507812 85.488281 Z M 60.148438 87.945312 L 60.164062 87.953125 C 60.148438 88.054688 60.136719 88.152344 60.136719 88.253906 L 60.136719 89.277344 L 60.007812 89.277344 L 60.007812 89.082031 L 59.492188 89.082031 L 59.492188 88.304688 Z M 59.910156 87.816406 L 59.492188 88.042969 L 59.492188 87.589844 Z M 59.492188 87.289062 L 59.578125 87.289062 C 59.691406 87.289062 59.78125 87.199219 59.78125 87.089844 L 59.78125 86.628906 L 60.445312 86.628906 L 60.445312 87.21875 C 60.363281 87.347656 60.300781 87.484375 60.25 87.628906 L 60.148438 87.683594 L 59.492188 87.328125 Z M 58.832031 86.628906 L 58.832031 86.964844 L 58.449219 86.757812 L 58.6875 86.628906 Z M 60.445312 85.40625 L 60.148438 85.570312 L 59.78125 85.371094 L 59.78125 85.351562 C 59.78125 85.261719 59.714844 85.199219 59.636719 85.171875 L 59.636719 84.359375 L 60.445312 84.359375 Z M 59.78125 85.628906 L 59.910156 85.699219 L 59.78125 85.773438 Z M 60.386719 85.699219 L 60.445312 85.667969 L 60.445312 85.734375 Z M 47.847656 89.492188 L 47.085938 89.492188 L 47.085938 87.183594 L 47.847656 87.183594 Z M 46.5 86.835938 L 45.410156 86.835938 L 45.410156 86.414062 L 46.109375 86.414062 C 46.324219 86.414062 46.5 86.589844 46.5 86.804688 Z M 45.195312 89.179688 L 45.195312 87.824219 L 45.261719 87.824219 C 45.34375 87.824219 45.410156 87.753906 45.410156 87.671875 L 45.410156 87.183594 L 46.5 87.183594 L 46.5 89.492188 L 45.585938 89.492188 L 45.585938 89.179688 Z M 43.527344 86.414062 L 44.121094 86.414062 L 44.121094 89.203125 L 43.800781 89.203125 L 43.527344 88.929688 Z M 42.972656 81.738281 L 42.109375 81.738281 L 42.109375 81.179688 C 42.1875 81.117188 42.253906 81.046875 42.308594 80.964844 L 42.972656 81.628906 Z M 56.460938 86.628906 L 58.1875 86.628906 L 58.1875 89.492188 L 56.710938 89.492188 L 56.710938 88.828125 L 56.460938 88.828125 Z M 114.488281 71.484375 L 115.871094 72.109375 L 112.996094 72.109375 L 112.996094 71.484375 Z M 113.441406 71.011719 L 114.058594 71.292969 L 113.441406 71.292969 Z M 97.800781 68.46875 L 97.15625 68.46875 L 97.800781 68.050781 Z M 97.800781 65.859375 L 97.800781 66.292969 L 97.132812 65.859375 Z M 97.800781 65.734375 L 97.15625 65.734375 L 97.800781 65.316406 Z M 97.800781 63.125 L 97.800781 63.558594 L 97.132812 63.125 Z M 97.800781 63 L 97.15625 63 L 97.800781 62.582031 Z M 97.800781 60.386719 L 97.800781 60.820312 L 97.132812 60.386719 Z M 97.800781 60.261719 L 97.15625 60.261719 L 97.800781 59.847656 Z M 97.800781 57.652344 L 97.800781 58.085938 L 97.132812 57.652344 Z M 97.800781 57.527344 L 97.15625 57.527344 L 97.800781 57.109375 Z M 97.800781 54.917969 L 97.800781 55.351562 L 97.132812 54.917969 Z M 97.800781 54.792969 L 97.15625 54.792969 L 97.800781 54.375 Z M 100.132812 54.792969 L 100.132812 54.394531 L 100.746094 54.792969 Z M 100.132812 54.917969 L 100.773438 54.917969 L 100.132812 55.332031 Z M 100.132812 57.527344 L 100.132812 57.132812 L 100.746094 57.527344 Z M 100.132812 57.652344 L 100.773438 57.652344 L 100.132812 58.066406 Z M 100.132812 60.261719 L 100.132812 59.867188 L 100.746094 60.261719 Z M 100.132812 60.386719 L 100.769531 60.386719 L 100.132812 60.800781 Z M 100.132812 63 L 100.132812 62.601562 L 100.746094 63 Z M 100.132812 63.125 L 100.773438 63.125 L 100.132812 63.535156 Z M 100.132812 65.734375 L 100.132812 65.339844 L 100.746094 65.734375 Z M 100.132812 65.859375 L 100.769531 65.859375 L 100.132812 66.273438 Z M 100.132812 68.074219 L 100.746094 68.46875 L 100.132812 68.46875 Z M 73.199219 63.152344 L 75.695312 63.152344 L 73.199219 64.59375 Z M 73.089844 64.65625 L 71.144531 65.78125 L 71.144531 63.152344 L 73.089844 63.152344 Z M 73.199219 27.957031 L 73.542969 27.957031 L 73.199219 28.152344 Z M 73.089844 28.210938 L 72.769531 28.386719 L 72.769531 27.957031 L 73.089844 27.957031 Z M 68.484375 28.152344 L 68.140625 27.957031 L 68.484375 27.957031 Z M 68.59375 27.957031 L 70.703125 27.957031 L 70.703125 29.390625 L 68.59375 28.210938 Z M 66.75 59.386719 L 67.726562 59.386719 L 67.726562 59.96875 L 66.75 59.96875 Z M 66.75 69.46875 L 67.726562 69.46875 L 67.726562 69.605469 L 66.75 69.605469 Z M 66.75 70.503906 L 67.078125 70.503906 L 67.726562 70.855469 L 67.726562 71.089844 L 66.75 71.089844 Z M 45.261719 77.800781 C 45.34375 77.800781 45.410156 77.730469 45.410156 77.648438 L 45.410156 77.464844 L 47.847656 77.464844 L 47.847656 79.191406 L 47.507812 79.191406 L 47.507812 80.152344 L 47.847656 80.152344 L 47.847656 81.738281 L 45.601562 81.738281 L 45.601562 81.339844 C 45.601562 81.253906 45.53125 81.1875 45.445312 81.1875 L 45.195312 81.1875 L 45.195312 77.800781 Z M 72.140625 117.039062 L 72.140625 115.765625 L 73.820312 115.765625 L 73.820312 117.039062 Z M 121.15625 71.074219 L 121.15625 71.292969 L 120.558594 71.292969 L 120.558594 70.925781 L 121.15625 70.925781 Z M 122.277344 71.074219 L 122.277344 71.292969 L 121.277344 71.292969 L 121.277344 70.925781 L 122.277344 70.925781 Z M 123.394531 71.074219 L 123.394531 71.292969 L 122.394531 71.292969 L 122.394531 70.925781 L 123.394531 70.925781 Z M 124.511719 71.074219 L 124.511719 71.292969 L 123.515625 71.292969 L 123.515625 70.925781 L 124.511719 70.925781 Z M 125.632812 71.074219 L 125.632812 71.292969 L 124.632812 71.292969 L 124.632812 70.925781 L 125.632812 70.925781 Z M 126.75 71.074219 L 126.75 71.292969 L 125.753906 71.292969 L 125.753906 70.925781 L 126.75 70.925781 Z M 127.871094 71.074219 L 127.871094 71.292969 L 126.871094 71.292969 L 126.871094 70.925781 L 127.871094 70.925781 Z M 128.988281 71.074219 L 128.988281 71.292969 L 127.992188 71.292969 L 127.992188 70.925781 L 128.988281 70.925781 Z M 130.109375 71.074219 L 130.109375 71.292969 L 129.113281 71.292969 L 129.113281 70.925781 L 130.109375 70.925781 Z M 131.226562 71.074219 L 131.226562 71.292969 L 130.230469 71.292969 L 130.230469 70.925781 L 131.226562 70.925781 Z M 132.347656 71.074219 L 132.347656 71.1875 L 132.066406 71.292969 L 131.347656 71.292969 L 131.347656 70.925781 L 132.347656 70.925781 Z M 132.46875 70.925781 L 133.050781 70.925781 L 132.46875 71.144531 Z M 113.25 70.925781 L 113.320312 70.957031 L 113.320312 71.292969 L 112.996094 71.292969 L 112.996094 71.101562 L 112.738281 71.101562 L 112.738281 70.925781 Z M 76.25 69.082031 L 73.199219 67.320312 L 73.199219 64.847656 L 75.898438 63.285156 Z M 67.921875 28.085938 L 68.484375 28.402344 L 68.484375 30.78125 L 67.734375 31.199219 Z M 47.539062 61.382812 L 46.25 59.230469 L 47.542969 59.230469 L 47.542969 61.367188 Z M 48.945312 60.644531 L 48.34375 61.050781 L 48.785156 59.230469 L 49.292969 59.230469 Z M 46.097656 59.230469 L 46.117188 59.230469 L 47.46875 61.488281 L 44.742188 61.488281 Z M 44.667969 59.230469 L 45.960938 59.230469 L 44.667969 61.386719 Z M 44.53125 61.386719 L 43.238281 59.230469 L 44.53125 59.230469 Z M 43.085938 59.230469 L 43.105469 59.230469 L 44.457031 61.488281 L 41.730469 61.488281 Z M 41.65625 59.230469 L 42.949219 59.230469 L 41.65625 61.386719 Z M 41.523438 61.386719 L 40.230469 59.230469 L 41.523438 59.230469 Z M 40.074219 59.230469 L 40.09375 59.230469 L 41.449219 61.488281 L 38.722656 61.488281 Z M 38.648438 59.230469 L 39.941406 59.230469 L 38.648438 61.386719 Z M 38.511719 61.386719 L 37.21875 59.230469 L 38.511719 59.230469 Z M 37.066406 59.230469 L 37.085938 59.230469 L 38.4375 61.488281 L 35.710938 61.488281 Z M 35.636719 59.230469 L 36.929688 59.230469 L 35.636719 61.386719 Z M 35.5 61.386719 L 34.207031 59.230469 L 35.5 59.230469 Z M 34.054688 59.230469 L 34.074219 59.230469 L 35.429688 61.488281 L 32.699219 61.488281 Z M 32.625 59.230469 L 33.917969 59.230469 L 32.625 61.386719 Z M 32.492188 61.386719 L 31.199219 59.230469 L 32.492188 59.230469 Z M 31.042969 59.230469 L 31.0625 59.230469 L 32.417969 61.488281 L 29.6875 61.488281 Z M 29.617188 59.230469 L 30.910156 59.230469 L 29.617188 61.386719 Z M 29.480469 61.386719 L 28.1875 59.230469 L 29.480469 59.230469 Z M 28.035156 59.230469 L 28.054688 59.230469 L 29.40625 61.488281 L 26.679688 61.488281 Z M 26.605469 59.230469 L 27.898438 59.230469 L 26.605469 61.386719 Z M 26.46875 61.386719 L 25.175781 59.230469 L 26.46875 59.230469 Z M 24.070312 61.488281 L 24.070312 60.820312 L 25.023438 59.230469 L 25.042969 59.230469 L 26.398438 61.488281 Z M 23.460938 60.769531 L 23.089844 60.769531 L 22.167969 59.230469 L 23.460938 59.230469 Z M 23.964844 60.769531 L 23.59375 60.769531 L 23.59375 59.230469 L 24.886719 59.230469 Z M 22.011719 59.230469 L 22.03125 59.230469 L 22.953125 60.769531 L 22.734375 60.769531 L 22.734375 61.488281 L 20.660156 61.488281 Z M 20.582031 59.230469 L 21.878906 59.230469 L 20.582031 61.386719 Z M 19.15625 59.230469 L 20.449219 59.230469 L 20.449219 61.386719 Z M 19.003906 59.230469 L 19.023438 59.230469 L 20.375 61.488281 L 17.648438 61.488281 Z M 17.574219 59.4375 C 17.671875 59.402344 17.730469 59.328125 17.757812 59.230469 L 18.867188 59.230469 L 17.574219 61.386719 Z M 45.261719 72.789062 C 45.34375 72.789062 45.410156 72.71875 45.410156 72.636719 L 45.410156 72.179688 L 47.847656 72.179688 L 47.847656 76.511719 L 45.410156 76.511719 L 45.410156 76.328125 C 45.410156 76.242188 45.34375 76.175781 45.261719 76.175781 L 45.195312 76.175781 L 45.195312 72.789062 Z M 41.558594 72.636719 L 41.558594 72.390625 L 44.695312 72.390625 L 44.695312 72.636719 C 44.695312 72.71875 44.761719 72.789062 44.847656 72.789062 L 44.910156 72.789062 L 44.910156 76.175781 L 44.847656 76.175781 C 44.761719 76.175781 44.695312 76.242188 44.695312 76.328125 L 44.695312 77.648438 C 44.695312 77.730469 44.761719 77.800781 44.847656 77.800781 L 44.910156 77.800781 L 44.910156 81.1875 L 44.660156 81.1875 C 44.574219 81.1875 44.507812 81.253906 44.507812 81.339844 L 44.507812 81.738281 L 44.378906 81.738281 L 44.378906 75.480469 L 41.34375 75.480469 L 41.34375 72.789062 L 41.40625 72.789062 C 41.492188 72.789062 41.558594 72.71875 41.558594 72.636719 Z M 41.558594 71.722656 L 44.695312 71.722656 L 44.695312 72.230469 L 41.558594 72.230469 Z M 45.042969 117.179688 L 45.976562 117.179688 L 45.042969 118.738281 Z M 44.011719 117.179688 L 44.945312 117.179688 L 44.945312 118.738281 Z M 43.902344 117.179688 L 43.914062 117.179688 L 44.890625 118.808594 L 42.925781 118.808594 Z M 41.839844 117.179688 L 42.773438 117.179688 L 42.773438 118.738281 Z M 41.726562 117.179688 L 41.742188 117.179688 L 42.71875 118.808594 L 40.75 118.808594 Z M 39.667969 117.179688 L 40.601562 117.179688 L 40.601562 118.738281 Z M 39.554688 117.179688 L 39.570312 117.179688 L 40.546875 118.808594 L 38.578125 118.808594 Z M 39.457031 117.179688 L 38.523438 118.734375 L 38.523438 117.179688 Z M 41.628906 117.179688 L 40.695312 118.738281 L 40.695312 117.179688 Z M 43.804688 117.179688 L 42.871094 118.738281 L 42.871094 117.179688 Z M 37.703125 117.179688 L 38.425781 117.179688 L 38.425781 118.738281 L 37.703125 117.53125 Z M 110.125 118.738281 L 109.1875 117.179688 L 110.125 117.179688 Z M 110.21875 118.738281 L 110.21875 117.179688 L 111.15625 117.179688 Z M 112.296875 118.738281 L 111.363281 117.179688 L 112.296875 117.179688 Z M 112.394531 118.738281 L 112.394531 117.179688 L 113.328125 117.179688 Z M 114.46875 118.738281 L 113.535156 117.179688 L 114.46875 117.179688 Z M 114.566406 118.738281 L 114.566406 117.179688 L 115.5 117.179688 Z M 116.640625 118.734375 L 115.707031 117.179688 L 116.640625 117.179688 Z M 115.609375 117.179688 L 116.585938 118.808594 L 114.621094 118.808594 L 115.597656 117.179688 Z M 113.4375 117.179688 L 114.414062 118.808594 L 112.445312 118.808594 L 113.421875 117.179688 Z M 111.265625 117.179688 L 112.242188 118.808594 L 110.273438 118.808594 L 111.25 117.179688 Z M 117.460938 117.53125 L 116.738281 118.738281 L 116.738281 117.179688 L 117.460938 117.179688 Z M 127.589844 80.269531 L 127.589844 80.164062 L 127.773438 80.164062 C 127.742188 80.28125 127.71875 80.398438 127.703125 80.523438 L 127.589844 80.523438 Z M 133.367188 80.164062 L 133.367188 80.523438 L 133.25 80.523438 C 133.234375 80.398438 133.210938 80.28125 133.179688 80.164062 Z M 130.402344 115.765625 L 135.023438 115.765625 L 135.023438 108.25 L 136.453125 108.25 L 136.453125 107.28125 L 136.25 107.28125 L 136.25 106.472656 L 136.433594 106.472656 L 136.433594 106.394531 L 134.296875 106.394531 L 134.296875 92.746094 L 134.800781 92.746094 C 135.015625 92.746094 135.191406 92.570312 135.191406 92.355469 C 135.191406 92.140625 135.015625 91.964844 134.800781 91.964844 L 134.296875 91.964844 L 134.296875 89.960938 L 134.628906 89.960938 L 134.628906 89.492188 L 133.492188 89.492188 L 133.492188 88.949219 L 133.289062 88.949219 L 133.289062 81.367188 L 133.382812 81.367188 L 133.382812 81.089844 L 133.289062 81.089844 L 133.289062 80.96875 L 133.492188 80.96875 L 133.492188 80.523438 L 133.410156 80.523438 L 133.410156 80.164062 L 133.492188 80.164062 L 133.492188 80.09375 L 133.160156 80.09375 C 132.910156 79.261719 132.296875 78.59375 131.496094 78.28125 L 131.496094 77.734375 L 131.597656 77.734375 L 131.597656 77.453125 L 129.359375 77.453125 L 129.359375 77.734375 L 129.457031 77.734375 L 129.457031 78.28125 C 128.65625 78.59375 128.042969 79.261719 127.796875 80.09375 L 127.460938 80.09375 L 127.460938 80.164062 L 127.542969 80.164062 L 127.542969 80.523438 L 127.460938 80.523438 L 127.460938 80.96875 L 127.667969 80.96875 L 127.667969 81.089844 L 127.570312 81.089844 L 127.570312 81.367188 L 127.667969 81.367188 L 127.667969 88.949219 L 127.460938 88.949219 L 127.460938 89.492188 L 126.792969 89.492188 L 126.792969 88.84375 C 126.925781 88.753906 127.019531 88.609375 127.019531 88.433594 L 127.019531 87.046875 C 127.019531 86.875 126.925781 86.730469 126.792969 86.640625 L 126.792969 85.476562 L 126.890625 85.476562 L 126.890625 84.332031 L 126.792969 84.332031 L 126.792969 84.074219 L 127.007812 84.074219 L 127.007812 83.820312 L 126.792969 83.820312 L 126.792969 83.175781 L 126.25 83.175781 L 126.25 83.820312 L 126.035156 83.820312 L 126.035156 84.074219 L 126.25 84.074219 L 126.25 84.332031 L 126.148438 84.332031 L 126.148438 85.476562 L 126.25 85.476562 L 126.25 86.640625 C 126.113281 86.726562 126.019531 86.875 126.019531 87.046875 L 126.019531 88.433594 C 126.019531 88.609375 126.113281 88.753906 126.25 88.84375 L 126.25 89.492188 L 125.292969 89.492188 L 125.292969 88.84375 C 125.429688 88.753906 125.523438 88.609375 125.523438 88.433594 L 125.523438 87.046875 C 125.523438 86.875 125.429688 86.730469 125.292969 86.640625 L 125.292969 83.71875 L 125.394531 83.71875 L 125.394531 82.574219 L 125.292969 82.574219 L 125.292969 82.316406 L 125.511719 82.316406 L 125.511719 82.0625 L 125.292969 82.0625 L 125.292969 81.417969 L 124.753906 81.417969 L 124.753906 82.0625 L 124.535156 82.0625 L 124.535156 82.316406 L 124.753906 82.316406 L 124.753906 82.574219 L 124.652344 82.574219 L 124.652344 83.71875 L 124.753906 83.71875 L 124.753906 84.25 L 124.0625 84.25 L 124.0625 79.222656 L 124.320312 79.222656 C 124.644531 79.222656 124.90625 78.957031 124.90625 78.636719 C 124.90625 78.3125 124.644531 78.050781 124.320312 78.050781 L 124.0625 78.050781 L 124.0625 74.554688 L 132.332031 71.484375 L 134.707031 71.484375 L 134.707031 70.925781 L 134.949219 70.925781 L 134.949219 70.121094 L 111.960938 70.121094 L 111.960938 70.679688 L 107.429688 70.679688 L 107.429688 50.941406 L 107.074219 50.941406 L 107.074219 52.089844 L 106.390625 52.089844 L 106.390625 48.078125 L 106.488281 48.078125 L 106.488281 47.417969 L 106.390625 47.417969 L 106.390625 40.5 L 106.5625 40.5 L 106.5625 40.199219 L 103.886719 40.199219 L 103.886719 40.5 L 104.058594 40.5 L 104.058594 47.417969 L 103.960938 47.417969 L 103.960938 48.078125 L 104.058594 48.078125 L 104.058594 52.089844 L 103.375 52.089844 L 103.375 50.941406 L 103.023438 50.941406 L 103.023438 70.679688 L 101.171875 70.679688 L 101.171875 50.941406 L 100.820312 50.941406 L 100.820312 52.089844 L 100.132812 52.089844 L 100.132812 49.316406 L 100.230469 49.316406 L 100.230469 48.652344 L 100.132812 48.652344 L 100.132812 42.769531 L 100.308594 42.769531 L 100.308594 42.46875 L 97.628906 42.46875 L 97.628906 42.769531 L 97.800781 42.769531 L 97.800781 48.652344 L 97.703125 48.652344 L 97.703125 49.316406 L 97.800781 49.316406 L 97.800781 52.089844 L 97.117188 52.089844 L 97.117188 50.941406 L 96.765625 50.941406 L 96.765625 70.679688 L 95.460938 70.679688 L 95.460938 67.453125 L 95.199219 67.453125 L 95.199219 67.226562 L 86.40625 67.226562 L 86.40625 67.453125 L 86.140625 67.453125 L 86.140625 72.109375 L 84.96875 72.109375 L 84.96875 66.054688 C 84.96875 65.738281 84.738281 65.484375 84.441406 65.421875 L 84.441406 51.65625 C 84.441406 51.585938 84.382812 51.527344 84.3125 51.527344 C 84.238281 51.527344 84.179688 51.585938 84.179688 51.65625 L 84.179688 65.421875 C 83.882812 65.484375 83.652344 65.738281 83.652344 66.054688 L 83.652344 72.109375 L 82.917969 72.109375 L 82.917969 62.929688 C 82.917969 62.613281 82.6875 62.359375 82.390625 62.300781 L 82.390625 54.585938 C 82.390625 54.515625 82.332031 54.457031 82.261719 54.457031 C 82.1875 54.457031 82.132812 54.515625 82.132812 54.585938 L 82.132812 62.300781 C 81.832031 62.359375 81.601562 62.613281 81.601562 62.929688 L 81.601562 72.109375 L 80.378906 72.109375 L 80.378906 66.054688 C 80.378906 65.738281 80.152344 65.484375 79.851562 65.421875 L 79.851562 54.585938 C 79.851562 54.515625 79.792969 54.457031 79.722656 54.457031 C 79.652344 54.457031 79.59375 54.515625 79.59375 54.585938 L 79.59375 65.421875 C 79.292969 65.484375 79.0625 65.738281 79.0625 66.054688 L 79.0625 72.109375 L 76.871094 72.109375 L 76.089844 59.195312 L 76.746094 59.195312 L 76.433594 54.074219 L 77.253906 54.074219 L 77.253906 53.386719 L 77.117188 53.386719 L 77.117188 52.679688 L 77.453125 52.679688 L 77.453125 52.605469 L 76.34375 52.605469 L 75.894531 45.167969 L 75.238281 45.167969 L 73.984375 24.53125 L 74.953125 24.53125 L 74.953125 23.855469 L 74.804688 23.855469 L 74.804688 23.050781 L 74.945312 23.050781 L 74.945312 22.976562 L 72.863281 22.976562 L 70.84375 16.527344 L 68.820312 22.976562 L 66.90625 22.976562 L 66.90625 23.050781 L 66.984375 23.050781 L 66.984375 23.855469 L 66.898438 23.855469 L 66.898438 24.53125 L 67.699219 24.53125 L 66.449219 45.167969 L 65.789062 45.167969 L 65.339844 52.605469 L 64.402344 52.605469 L 64.402344 52.679688 L 64.664062 52.679688 L 64.664062 53.386719 L 64.59375 53.386719 L 64.59375 54.074219 L 65.25 54.074219 L 65.214844 54.667969 L 64.9375 59.195312 L 65.59375 59.195312 L 64.8125 72.109375 L 60.746094 72.109375 L 60.746094 72.480469 L 60.445312 72.480469 L 60.445312 72.597656 L 59.78125 72.597656 L 59.78125 72.136719 C 59.78125 72.027344 59.691406 71.9375 59.578125 71.9375 L 59.492188 71.9375 L 59.492188 67.472656 L 59.578125 67.472656 C 59.691406 67.472656 59.78125 67.382812 59.78125 67.269531 L 59.78125 65.53125 C 59.78125 65.421875 59.691406 65.332031 59.578125 65.332031 L 59.492188 65.332031 L 59.492188 64.054688 L 59.964844 64.054688 L 59.964844 59.21875 L 59.449219 59.21875 L 59.449219 57.613281 L 59.164062 57.613281 L 59.164062 59.21875 L 58.648438 59.21875 L 58.648438 64.054688 L 59.121094 64.054688 L 59.121094 65.332031 L 59.035156 65.332031 C 58.921875 65.332031 58.832031 65.421875 58.832031 65.53125 L 58.832031 67.269531 C 58.832031 67.382812 58.921875 67.472656 59.035156 67.472656 L 59.121094 67.472656 L 59.121094 71.9375 L 59.035156 71.9375 C 58.921875 71.9375 58.832031 72.027344 58.832031 72.136719 L 58.832031 73.878906 C 58.832031 73.988281 58.921875 74.078125 59.035156 74.078125 L 59.121094 74.078125 L 59.121094 76.511719 L 56.710938 76.511719 L 56.710938 76.054688 L 56.609375 76.054688 L 56.609375 75.621094 L 56.710938 75.621094 L 56.710938 75.53125 L 56.304688 75.53125 C 56.003906 74.519531 55.253906 73.703125 54.277344 73.320312 L 54.277344 72.65625 L 54.398438 72.65625 L 54.398438 72.3125 L 51.839844 72.3125 L 51.839844 62.070312 L 52.625 62.070312 L 52.625 61.671875 L 55.101562 61.671875 L 55.101562 60.886719 L 55.382812 60.886719 L 55.382812 60.652344 L 55.101562 60.652344 L 55.101562 57.972656 L 53.703125 57.316406 L 53.019531 57.316406 L 52.652344 52.0625 L 52.65625 52.0625 L 52.640625 51.851562 L 52.867188 51.851562 L 52.867188 51.613281 L 52.625 51.613281 L 52.203125 45.570312 L 52.207031 45.570312 L 52.191406 45.355469 L 52.480469 45.355469 L 52.480469 45.121094 L 52.238281 45.121094 L 52.238281 44.324219 L 51.394531 44.324219 L 51.394531 45.121094 L 51.152344 45.121094 L 51.152344 45.355469 L 51.417969 45.355469 L 49.902344 51.613281 L 47.75 51.613281 L 47.75 51.851562 L 48.210938 51.851562 L 49.386719 53.753906 L 48.105469 59.039062 L 17.734375 59.035156 C 17.675781 58.921875 17.570312 58.84375 17.4375 58.863281 C 17.269531 58.886719 17.15625 59.042969 17.183594 59.210938 C 17.183594 59.210938 17.183594 59.214844 17.183594 59.214844 L 14.359375 61.214844 C 14.25 61.113281 14.101562 61.058594 13.941406 61.082031 C 13.660156 61.125 13.46875 61.386719 13.515625 61.667969 C 13.53125 61.777344 13.589844 61.867188 13.660156 61.941406 L 13.816406 74.328125 C 13.757812 74.394531 13.71875 74.484375 13.722656 74.578125 C 13.726562 74.695312 13.785156 74.792969 13.871094 74.859375 L 13.875 75.0625 L 14.03125 75.058594 L 13.898438 75.0625 L 13.902344 75.113281 L 14.03125 75.113281 L 14.035156 75.234375 C 13.910156 75.304688 13.828125 75.441406 13.835938 75.59375 C 13.84375 75.8125 14.035156 75.988281 14.253906 75.972656 C 14.40625 75.964844 14.535156 75.871094 14.59375 75.742188 C 14.601562 75.722656 14.574219 75.707031 14.5625 75.722656 C 14.527344 75.761719 14.484375 75.789062 14.441406 75.808594 C 14.113281 75.941406 13.855469 75.496094 14.132812 75.273438 L 14.183594 75.230469 L 14.183594 75.109375 L 14.316406 75.105469 L 14.3125 75.050781 L 14.339844 75.050781 L 14.335938 74.847656 C 14.414062 74.777344 14.46875 74.675781 14.46875 74.558594 L 14.460938 61.835938 C 14.488281 61.789062 14.507812 61.734375 14.519531 61.679688 L 22.035156 61.679688 L 22.035156 61.957031 L 22.457031 61.957031 L 22.457031 88.96875 L 22.035156 88.96875 L 22.035156 89.492188 L 20.375 89.492188 L 20.375 89.960938 L 20.867188 89.960938 L 20.867188 91.964844 L 19.925781 91.964844 C 19.714844 91.964844 19.539062 92.140625 19.539062 92.355469 C 19.539062 92.570312 19.714844 92.746094 19.925781 92.746094 L 20.867188 92.746094 L 20.867188 106.394531 L 18.730469 106.394531 L 18.730469 106.472656 L 18.851562 106.472656 L 18.851562 107.28125 L 18.710938 107.28125 L 18.710938 108.25 L 20.140625 108.25 L 20.140625 115.765625 L 25.554688 115.765625 L 25.554688 117.039062 L 18.875 117.039062 L 18.875 118.949219 L 25.554688 118.949219 L 25.554688 146.28125 L 37.703125 146.28125 L 37.703125 118.949219 L 47.046875 118.949219 L 47.046875 146.28125 L 54.769531 146.28125 L 54.769531 118.949219 L 69.542969 118.949219 L 69.542969 146.28125 L 72.140625 146.28125 L 72.140625 118.949219 L 73.820312 118.949219 L 73.820312 146.28125 L 81.347656 146.28125 L 81.347656 118.949219 L 100.394531 118.949219 L 100.394531 146.28125 L 108.117188 146.28125 L 108.117188 118.949219 L 117.460938 118.949219 L 117.460938 146.28125 L 129.609375 146.28125 L 129.609375 118.949219 L 136.289062 118.949219 L 136.289062 117.039062 L 129.609375 117.039062 L 129.609375 115.765625 L 130.402344 115.765625 " fill-opacity="1" fill-rule="nonzero"/></g></svg>