<svg xmlns="http://www.w3.org/2000/svg" xmlns:xlink="http://www.w3.org/1999/xlink" width="200" zoomAndPan="magnify" viewBox="0 0 150 149.999998" height="200" preserveAspectRatio="xMidYMid meet" version="1.0"><defs><clipPath id="0deb557646"><path d="M 22.5 0 L 127.5 0 C 139.925781 0 150 10.074219 150 22.5 L 150 127.5 C 150 139.925781 139.925781 150 127.5 150 L 22.5 150 C 10.074219 150 0 139.925781 0 127.5 L 0 22.5 C 0 10.074219 10.074219 0 22.5 0 Z M 22.5 0 " clip-rule="nonzero"/></clipPath><clipPath id="0024fcb1dd"><path d="M 0 0 L 150 0 L 150 150 L 0 150 Z M 0 0 " clip-rule="nonzero"/></clipPath><clipPath id="148792f5f1"><path d="M 22.5 0 L 127.5 0 C 139.925781 0 150 10.074219 150 22.5 L 150 127.5 C 150 139.925781 139.925781 150 127.5 150 L 22.5 150 C 10.074219 150 0 139.925781 0 127.5 L 0 22.5 C 0 10.074219 10.074219 0 22.5 0 Z M 22.5 0 " clip-rule="nonzero"/></clipPath><clipPath id="361620acf9"><rect x="0" width="150" y="0" height="150"/></clipPath><clipPath id="f51d536f16"><path d="M 1 76 L 104 76 L 104 113.90625 L 1 113.90625 Z M 1 76 " clip-rule="nonzero"/></clipPath></defs><g clip-path="url(#0deb557646)"><g transform="matrix(1, 0, 0, 1, 0, -0.000000000000007527)"><g clip-path="url(#361620acf9)"><g clip-path="url(#0024fcb1dd)"><g clip-path="url(#148792f5f1)"><rect x="-33" width="216" fill="#671833" height="215.999996" y="-32.999999" fill-opacity="1"/></g></g></g></g></g><path fill="#f2f2f2" d="M 80.324219 77.5 C 81.472656 77.269531 82.621094 77.042969 83.765625 76.804688 C 83.78125 75.863281 83.558594 74.898438 83.078125 73.972656 C 82.589844 73.027344 81.867188 72.15625 80.921875 71.355469 C 80.363281 70.894531 79.878906 70.589844 79.394531 70.398438 C 79.351562 70.375 79.289062 70.359375 79.246094 70.339844 C 78.921875 70.410156 78.597656 70.484375 78.300781 70.535156 C 77.625 70.636719 76.921875 70.78125 76.210938 70.941406 C 76.347656 71.027344 76.480469 71.113281 76.625 71.222656 C 78.648438 72.714844 79.988281 75.019531 80.324219 77.5 " fill-opacity="1" fill-rule="nonzero"/><path fill="#f2f2f2" d="M 75.617188 75.015625 C 76.003906 75.957031 76.261719 77.046875 76.40625 78.296875 L 78.742188 77.824219 C 78.890625 77.792969 79.050781 77.757812 79.199219 77.730469 C 78.921875 75.523438 77.738281 73.472656 75.945312 72.140625 C 75.429688 71.761719 74.964844 71.515625 74.515625 71.402344 C 74.105469 71.535156 73.648438 71.667969 73.085938 71.695312 C 74.160156 72.46875 75.042969 73.609375 75.617188 75.015625 " fill-opacity="1" fill-rule="nonzero"/><path fill="#f2f2f2" d="M 84.101562 73.449219 C 84.621094 74.460938 84.890625 75.523438 84.914062 76.578125 C 85.363281 76.480469 85.824219 76.386719 86.28125 76.296875 C 86.46875 74.839844 86.054688 73.296875 85.148438 72.140625 C 84.277344 71.011719 82.664062 70.160156 81.226562 70.070312 C 81.203125 70.070312 81.15625 70.070312 81.128906 70.070312 C 81.300781 70.195312 81.472656 70.324219 81.652344 70.472656 C 82.71875 71.363281 83.542969 72.371094 84.101562 73.449219 " fill-opacity="1" fill-rule="nonzero"/><path fill="#f2f2f2" d="M 70.347656 72.324219 C 70.53125 72.066406 70.863281 71.996094 71.121094 72.175781 L 71.171875 72.207031 L 71.332031 72.320312 C 71.589844 72.503906 71.648438 72.863281 71.476562 73.117188 C 71.355469 73.277344 71.1875 73.363281 71 73.363281 C 70.886719 73.363281 70.773438 73.328125 70.675781 73.261719 L 70.507812 73.144531 C 70.246094 72.953125 70.164062 72.585938 70.347656 72.324219 Z M 72.023438 73.921875 C 72.140625 73.628906 72.46875 73.476562 72.761719 73.59375 C 73.027344 73.691406 73.207031 73.953125 73.210938 74.238281 C 73.226562 74.554688 72.976562 74.820312 72.664062 74.824219 C 72.652344 74.824219 72.648438 74.824219 72.644531 74.824219 C 72.425781 74.824219 72.234375 74.695312 72.140625 74.515625 C 71.996094 74.359375 71.945312 74.132812 72.023438 73.921875 Z M 73.792969 75.328125 C 73.941406 75.34375 74.066406 75.414062 74.160156 75.523438 C 74.261719 75.613281 74.335938 75.742188 74.355469 75.894531 C 74.386719 76.203125 74.160156 76.488281 73.847656 76.527344 C 73.828125 76.527344 73.8125 76.527344 73.792969 76.527344 C 73.632812 76.527344 73.441406 76.453125 73.332031 76.335938 C 73.207031 76.21875 73.136719 76.003906 73.152344 75.828125 C 73.191406 75.515625 73.472656 75.285156 73.792969 75.328125 Z M 71.648438 74.761719 C 72.667969 75.886719 73.265625 77.386719 73.34375 78.90625 L 73.671875 78.84375 L 73.695312 78.269531 C 73.703125 77.949219 73.976562 77.734375 74.285156 77.710938 C 74.601562 77.726562 74.847656 77.988281 74.84375 78.304688 L 74.828125 78.613281 L 75.273438 78.519531 C 75.148438 77.339844 74.914062 76.324219 74.554688 75.445312 C 74.046875 74.210938 73.289062 73.214844 72.347656 72.558594 C 71.515625 71.992188 70.496094 71.652344 69.394531 71.570312 L 69.398438 71.585938 C 69.5625 71.851562 69.488281 72.210938 69.21875 72.375 C 69.128906 72.441406 69.019531 72.46875 68.914062 72.46875 C 68.726562 72.46875 68.542969 72.375 68.425781 72.207031 L 68.21875 71.871094 C 68.167969 71.78125 68.148438 71.6875 68.140625 71.597656 C 67.832031 71.621094 67.523438 71.671875 67.207031 71.746094 C 66.960938 71.851562 66.765625 71.996094 66.664062 72.164062 C 66.605469 72.273438 66.566406 72.386719 66.535156 72.496094 C 68.542969 72.230469 70.542969 73.527344 71.648438 74.761719 " fill-opacity="1" fill-rule="nonzero"/><g clip-path="url(#f51d536f16)"><path fill="#f2f2f2" d="M 103.738281 80.898438 C 103.484375 79.453125 102.777344 78.324219 101.636719 77.535156 C 100.175781 76.527344 98.039062 76.167969 95.917969 76.578125 C 92.195312 77.285156 88.417969 78.054688 84.765625 78.796875 C 82.894531 79.175781 81.027344 79.554688 79.167969 79.929688 L 3.449219 95.113281 C 2.636719 95.277344 2.011719 95.464844 1.503906 95.699219 C 1.363281 95.765625 1.273438 95.816406 1.21875 95.84375 C 1.210938 95.945312 1.195312 96.101562 1.1875 96.246094 L 1.179688 96.378906 C 1.070312 98.199219 1.039062 100.003906 1.085938 101.71875 C 1.160156 104.71875 1.449219 107.621094 1.941406 110.367188 C 2.605469 114.085938 3.714844 113.984375 4.078125 113.957031 C 4.757812 113.890625 5.496094 113.707031 6.28125 113.496094 C 6.875 113.347656 7.488281 113.183594 8.109375 113.082031 C 22.507812 110.652344 36.675781 106.34375 48.644531 102.449219 C 52.785156 101.09375 56.992188 99.6875 61.054688 98.324219 C 70.054688 95.304688 79.355469 92.1875 88.644531 89.511719 C 91.328125 88.734375 93.636719 87.945312 96.082031 87.113281 C 97.75 86.539062 99.472656 85.953125 101.359375 85.355469 C 102.984375 84.839844 104.074219 82.796875 103.738281 80.898438 " fill-opacity="1" fill-rule="nonzero"/></g><path fill="#f2f2f2" d="M 93.785156 74.796875 C 94.121094 73.574219 94.871094 72.445312 95.910156 71.570312 L 88.089844 73.214844 C 88.359375 74.066406 88.5 74.964844 88.46875 75.851562 C 90.230469 75.492188 92.011719 75.140625 93.785156 74.796875 " fill-opacity="1" fill-rule="nonzero"/><path fill="#f2f2f2" d="M 71.207031 79.335938 C 71.234375 78.195312 70.820312 77.046875 70.054688 76.203125 C 69.25 75.3125 67.867188 74.441406 66.75 74.625 C 63.953125 75.105469 61.09375 75.515625 58.246094 75.851562 C 54.457031 76.296875 50.746094 76.59375 47.203125 76.726562 C 46.722656 76.746094 46.21875 76.742188 45.710938 76.730469 C 44.621094 76.714844 43.492188 76.710938 42.566406 76.972656 C 41.351562 77.316406 40.136719 77.628906 38.632812 77.746094 C 34.929688 78.023438 31.21875 78.386719 27.625 78.738281 C 23.023438 79.191406 18.277344 79.78125 13.683594 80.359375 C 9.386719 80.898438 4.953125 81.449219 0.621094 81.886719 C 0.5 85.808594 0.566406 89.753906 0.796875 93.664062 C 1.417969 93.398438 2.136719 93.183594 3.03125 93.003906 L 71.207031 79.335938 " fill-opacity="1" fill-rule="nonzero"/><path fill="#f2f2f2" d="M 113.179688 66.699219 L 113.855469 66.65625 L 113.871094 66.367188 C 113.886719 65.996094 113.886719 65.632812 113.886719 65.261719 L 113.886719 64.605469 L 113.5625 64.609375 C 111.640625 64.621094 109.667969 64.648438 107.726562 64.679688 L 105.394531 64.71875 C 103.386719 64.75 101.339844 64.78125 99.332031 64.789062 L 99.003906 64.789062 L 99.039062 66.714844 L 113.179688 66.699219 " fill-opacity="1" fill-rule="nonzero"/><path fill="#f2f2f2" d="M 103.925781 69.859375 C 104.144531 69.925781 104.351562 70.003906 104.554688 70.074219 C 104.957031 70.222656 105.242188 70.332031 105.597656 70.339844 C 106.203125 70.355469 106.820312 70.222656 107.476562 70.09375 C 107.617188 70.070312 107.800781 70.03125 107.855469 69.996094 C 107.902344 69.964844 107.996094 69.875 108.0625 69.808594 C 108.265625 69.59375 108.554688 69.304688 108.984375 69.140625 C 109.285156 69.027344 109.574219 69.011719 109.804688 69.019531 L 109.832031 68.777344 C 109.871094 68.332031 109.917969 67.917969 109.894531 67.527344 L 103.464844 67.535156 C 103.480469 67.589844 103.484375 67.644531 103.484375 67.695312 C 103.496094 68.367188 103.445312 69.050781 103.332031 69.714844 C 103.535156 69.761719 103.738281 69.800781 103.925781 69.859375 " fill-opacity="1" fill-rule="nonzero"/><path fill="#f2f2f2" d="M 125.269531 56.488281 C 126.335938 56.554688 127.429688 56.878906 128.515625 57.457031 C 131.722656 57.410156 135.148438 57.503906 137.621094 57.589844 C 137.636719 57.003906 137.621094 56.425781 137.605469 55.917969 C 132.867188 55.796875 128.101562 55.851562 123.964844 55.925781 C 123.921875 56.140625 123.902344 56.34375 123.894531 56.558594 C 124.339844 56.488281 124.800781 56.460938 125.269531 56.488281 " fill-opacity="1" fill-rule="nonzero"/><path fill="#f2f2f2" d="M 108.097656 53.511719 C 108.242188 53.511719 108.34375 53.503906 108.425781 53.496094 L 109.527344 53.390625 L 108.539062 52.890625 C 108.351562 52.796875 108.046875 52.691406 107.808594 52.683594 L 105.261719 52.667969 C 104.609375 52.65625 103.925781 52.65625 103.25 52.71875 C 102.832031 52.753906 102.570312 52.828125 102.398438 52.960938 L 101.644531 53.535156 L 102.722656 53.535156 L 108.097656 53.511719 " fill-opacity="1" fill-rule="nonzero"/><path fill="#f2f2f2" d="M 101.589844 63.257812 L 101.898438 63.253906 C 102.949219 63.242188 104.007812 63.226562 105.058594 63.210938 L 106.480469 63.1875 C 107.761719 63.167969 109.070312 63.148438 110.371094 63.132812 L 110.679688 63.128906 L 110.6875 62.816406 C 110.695312 62.382812 110.6875 61.945312 110.671875 61.519531 L 110.660156 61.210938 L 101.539062 61.203125 L 101.539062 61.519531 C 101.539062 62 101.554688 62.46875 101.578125 62.949219 L 101.589844 63.257812 " fill-opacity="1" fill-rule="nonzero"/><path fill="#f2f2f2" d="M 110.589844 60.359375 C 110.570312 60.058594 110.542969 59.773438 110.507812 59.496094 L 110.464844 59.21875 L 110.191406 59.21875 C 107.636719 59.179688 104.992188 59.308594 102.652344 59.425781 L 101.632812 59.472656 L 101.613281 59.757812 C 101.601562 59.890625 101.597656 60.023438 101.597656 60.164062 L 101.578125 60.695312 L 110.617188 60.703125 L 110.589844 60.359375 " fill-opacity="1" fill-rule="nonzero"/><path fill="#f2f2f2" d="M 105.296875 57.796875 L 106.417969 57.746094 L 106.34375 54.3125 L 105.347656 54.3125 L 105.351562 54.636719 C 105.367188 55.566406 105.351562 56.515625 105.3125 57.453125 L 105.296875 57.796875 " fill-opacity="1" fill-rule="nonzero"/><path fill="#f2f2f2" d="M 107.691406 82.246094 L 107.292969 83.410156 C 107.210938 83.644531 106.992188 83.792969 106.753906 83.792969 C 106.6875 83.792969 106.625 83.789062 106.5625 83.761719 C 106.269531 83.660156 106.109375 83.335938 106.210938 83.035156 L 106.613281 81.867188 C 106.71875 81.574219 107.042969 81.40625 107.34375 81.511719 C 107.640625 81.613281 107.800781 81.945312 107.691406 82.246094 Z M 106.46875 85.613281 C 106.398438 86 106.160156 86.339844 105.832031 86.554688 C 105.734375 86.617188 105.628906 86.648438 105.519531 86.648438 C 105.335938 86.648438 105.148438 86.554688 105.042969 86.382812 C 104.871094 86.117188 104.941406 85.757812 105.210938 85.585938 C 105.277344 85.546875 105.328125 85.46875 105.339844 85.394531 C 105.40625 85.074219 105.707031 84.882812 106.015625 84.941406 C 106.328125 85.007812 106.535156 85.304688 106.46875 85.613281 Z M 104.898438 87.6875 C 104.632812 87.949219 104.296875 88.148438 103.9375 88.265625 C 103.878906 88.28125 103.824219 88.289062 103.765625 88.289062 C 103.523438 88.289062 103.289062 88.128906 103.21875 87.886719 C 103.128906 87.585938 103.289062 87.261719 103.601562 87.171875 C 103.78125 87.113281 103.953125 87.011719 104.089844 86.878906 C 104.3125 86.652344 104.675781 86.652344 104.898438 86.878906 C 105.121094 87.097656 105.121094 87.464844 104.898438 87.6875 Z M 105.945312 78.8125 C 105.867188 78.503906 106.054688 78.195312 106.359375 78.117188 C 106.667969 78.042969 106.984375 78.222656 107.058594 78.535156 L 107.171875 78.976562 C 107.246094 79.285156 107.0625 79.601562 106.753906 79.679688 C 106.703125 79.6875 106.664062 79.695312 106.613281 79.695312 C 106.355469 79.695312 106.125 79.519531 106.058594 79.261719 Z M 105.417969 76.890625 C 105.386719 76.890625 105.367188 76.890625 105.335938 76.890625 C 105.058594 76.890625 104.808594 76.691406 104.765625 76.402344 C 104.753906 76.316406 104.71875 76.234375 104.664062 76.167969 C 104.453125 75.921875 104.488281 75.5625 104.726562 75.359375 C 104.972656 75.15625 105.328125 75.183594 105.535156 75.429688 C 105.730469 75.660156 105.859375 75.9375 105.898438 76.238281 C 105.945312 76.546875 105.730469 76.839844 105.417969 76.890625 Z M 103.101562 74.316406 C 103.019531 74.554688 102.796875 74.695312 102.5625 74.695312 C 102.496094 74.695312 102.433594 74.691406 102.367188 74.671875 L 101.921875 74.511719 C 101.625 74.402344 101.464844 74.078125 101.574219 73.78125 C 101.671875 73.476562 102.003906 73.324219 102.300781 73.429688 L 102.746094 73.585938 C 103.050781 73.6875 103.207031 74.015625 103.101562 74.316406 Z M 99.226562 74.078125 L 98.507812 74.113281 C 98.503906 74.113281 98.488281 74.113281 98.484375 74.113281 C 98.179688 74.113281 97.925781 73.871094 97.910156 73.566406 C 97.894531 73.25 98.140625 72.984375 98.453125 72.964844 L 99.171875 72.929688 C 99.492188 72.902344 99.753906 73.148438 99.773438 73.464844 C 99.785156 73.78125 99.550781 74.050781 99.226562 74.078125 Z M 105.898438 74.097656 C 104.710938 72.847656 102.910156 72.09375 101.015625 72.117188 C 99.972656 72.117188 98.902344 72.355469 97.878906 72.777344 C 97.226562 73.183594 96.691406 73.738281 96.3125 74.347656 C 98.75 74.050781 101.097656 74.546875 102.855469 75.761719 C 104.46875 76.875 105.507812 78.519531 105.859375 80.523438 C 106.375 83.484375 104.648438 86.566406 102.003906 87.40625 C 101.636719 87.519531 101.277344 87.636719 100.917969 87.75 L 101.546875 87.75 C 101.867188 87.75 102.121094 88.011719 102.121094 88.324219 C 102.121094 88.648438 101.867188 88.898438 101.546875 88.898438 L 100.496094 88.898438 C 100.179688 88.898438 99.921875 88.648438 99.921875 88.324219 C 99.921875 88.226562 99.960938 88.140625 100 88.050781 C 99.425781 88.246094 98.855469 88.441406 98.304688 88.625 C 100.179688 89.132812 101.789062 89.246094 103.199219 88.964844 C 104.832031 88.640625 106.230469 87.722656 106.941406 86.511719 L 106.984375 86.433594 C 107.144531 86.160156 107.351562 85.789062 107.75 85.503906 C 107.785156 85.480469 107.832031 85.464844 107.867188 85.441406 C 108.140625 84.804688 108.332031 84.117188 108.441406 83.382812 C 108.671875 81.792969 108.511719 80.050781 107.945312 78.074219 C 107.4375 76.289062 106.792969 75.019531 105.898438 74.097656 " fill-opacity="1" fill-rule="nonzero"/><path fill="#f2f2f2" d="M 126.894531 65.898438 C 126.933594 65.167969 126.8125 64.488281 126.53125 63.9375 C 126.003906 62.894531 124.785156 62.15625 123.5 62.089844 C 122.257812 62.03125 120.910156 62.5625 119.898438 63.523438 C 118.957031 64.425781 118.246094 65.691406 117.867188 67.183594 L 117.789062 67.523438 C 117.644531 68.125 117.488281 68.796875 117.085938 69.421875 C 116.570312 70.21875 115.804688 70.714844 115.066406 71.0625 C 115.390625 71.40625 115.707031 71.78125 116.03125 72.226562 C 117.363281 74.097656 118.152344 76.109375 118.3125 78.058594 C 118.363281 78.691406 118.335938 79.3125 118.261719 79.921875 C 119.171875 79.3125 119.898438 78.433594 120.273438 77.402344 C 120.53125 76.691406 120.648438 75.910156 120.761719 75.074219 C 120.796875 74.867188 120.828125 74.640625 120.863281 74.417969 C 121.03125 73.296875 121.3125 72.011719 122.078125 70.914062 C 122.894531 69.761719 124.144531 69.070312 125.382812 69.0625 C 126.261719 68.296875 126.832031 67.113281 126.894531 65.898438 " fill-opacity="1" fill-rule="nonzero"/><path fill="#f2f2f2" d="M 115.804688 78.917969 C 115.804688 79.238281 115.558594 79.492188 115.242188 79.492188 C 114.917969 79.492188 114.667969 79.238281 114.667969 78.917969 L 114.667969 78.402344 C 114.667969 78.089844 114.917969 77.828125 115.242188 77.828125 C 115.558594 77.828125 115.804688 78.089844 115.804688 78.402344 Z M 114.101562 76.363281 C 113.914062 76.109375 113.964844 75.753906 114.222656 75.5625 C 114.472656 75.371094 114.832031 75.429688 115.027344 75.6875 C 115.171875 75.878906 115.257812 76.121094 115.246094 76.367188 C 115.246094 76.683594 114.992188 76.941406 114.671875 76.941406 C 114.355469 76.9375 114.101562 76.675781 114.101562 76.363281 Z M 113.785156 74.417969 C 113.699219 74.460938 113.605469 74.480469 113.519531 74.480469 C 112.941406 74.480469 112.703125 73.59375 113.238281 73.324219 C 113.515625 73.179688 113.859375 73.285156 114 73.574219 L 114.039062 73.636719 C 114.175781 73.921875 114.066406 74.28125 113.785156 74.417969 Z M 112.757812 72.703125 C 112.652344 72.890625 112.460938 72.992188 112.257812 72.992188 C 112.160156 72.992188 112.070312 72.96875 111.972656 72.914062 L 111.824219 72.824219 C 111.542969 72.675781 111.449219 72.324219 111.609375 72.046875 C 111.757812 71.769531 112.109375 71.679688 112.386719 71.832031 L 112.546875 71.921875 C 112.816406 72.082031 112.910156 72.429688 112.757812 72.703125 Z M 114.28125 73.476562 C 113.621094 72.558594 113.007812 71.949219 112.339844 71.566406 C 111.765625 71.238281 111.121094 71.113281 110.316406 71.175781 C 110.171875 71.1875 110.015625 71.175781 109.867188 71.171875 C 109.824219 71.171875 109.777344 71.164062 109.742188 71.164062 C 109.707031 71.203125 109.636719 71.273438 109.589844 71.320312 C 109.558594 71.351562 109.511719 71.390625 109.476562 71.421875 C 109.742188 71.527344 110.007812 71.640625 110.261719 71.785156 C 111.535156 72.503906 112.617188 73.691406 113.328125 75.148438 C 113.933594 76.402344 114.28125 77.863281 114.359375 79.5 C 114.433594 80.929688 114.273438 82.125 113.886719 83.164062 C 113.835938 83.292969 113.785156 83.410156 113.730469 83.527344 C 114.109375 83.285156 114.453125 83.019531 114.722656 82.726562 C 115.0625 82.367188 115.34375 81.945312 115.570312 81.488281 C 115.460938 81.652344 115.28125 81.753906 115.082031 81.753906 C 115.046875 81.753906 115.007812 81.753906 114.96875 81.742188 C 114.660156 81.6875 114.460938 81.378906 114.519531 81.070312 L 114.597656 80.6875 C 114.652344 80.386719 114.964844 80.179688 115.261719 80.238281 C 115.578125 80.304688 115.78125 80.605469 115.722656 80.914062 L 115.640625 81.292969 C 115.632812 81.359375 115.605469 81.414062 115.578125 81.460938 C 116.035156 80.507812 116.261719 79.386719 116.164062 78.230469 C 116.035156 76.667969 115.390625 75.03125 114.28125 73.476562 " fill-opacity="1" fill-rule="nonzero"/><path fill="#f2f2f2" d="M 112.296875 75.652344 C 111.695312 74.402344 110.769531 73.386719 109.703125 72.785156 C 109.148438 72.476562 108.546875 72.28125 107.9375 72.195312 C 107.921875 72.195312 107.910156 72.207031 107.898438 72.207031 C 107.222656 72.339844 106.507812 72.453125 105.769531 72.484375 C 106.113281 72.722656 106.4375 73 106.734375 73.296875 C 107.75 74.367188 108.492188 75.789062 109.050781 77.757812 C 109.65625 79.902344 109.832031 81.792969 109.574219 83.546875 C 109.5 84.058594 109.382812 84.546875 109.234375 85.027344 C 109.429688 84.992188 109.613281 84.945312 109.804688 84.910156 C 110.441406 84.796875 111.039062 84.679688 111.664062 84.488281 C 112.144531 84.039062 112.550781 83.449219 112.8125 82.761719 C 113.148438 81.871094 113.277344 80.820312 113.222656 79.554688 C 113.148438 78.078125 112.832031 76.761719 112.296875 75.652344 " fill-opacity="1" fill-rule="nonzero"/><path fill="#f2f2f2" d="M 129.40625 62.792969 C 129.042969 61.582031 128.4375 60.59375 127.660156 59.917969 C 126.871094 59.234375 125.828125 58.816406 124.71875 58.726562 C 124.519531 58.707031 124.316406 58.710938 124.117188 58.722656 C 123.621094 58.820312 123.167969 59 122.8125 59.269531 C 122.535156 59.480469 122.320312 59.753906 122.148438 60.039062 C 122.632812 59.953125 123.117188 59.917969 123.605469 59.9375 C 125.664062 60.039062 127.5625 61.226562 128.449219 62.960938 C 128.898438 63.859375 129.105469 64.902344 129.042969 66.011719 C 128.929688 68.019531 127.929688 69.894531 126.363281 71.03125 C 126.132812 71.207031 125.84375 71.273438 125.5625 71.226562 C 125.441406 71.210938 125.3125 71.222656 125.183594 71.242188 C 126.101562 71.453125 127.058594 71.441406 127.972656 71.207031 C 128.421875 71.09375 128.796875 70.917969 129.054688 70.726562 C 129.261719 70.464844 129.429688 70.179688 129.546875 69.894531 C 130.007812 68.777344 129.984375 67.472656 129.929688 66.339844 C 129.871094 65.242188 129.765625 63.964844 129.40625 62.792969 " fill-opacity="1" fill-rule="nonzero"/><path fill="#f2f2f2" d="M 149.441406 36.167969 C 143.140625 35.992188 136.652344 35.871094 130.324219 36.578125 C 129.40625 36.679688 128.421875 36.859375 128.054688 37.421875 C 127.824219 37.777344 127.792969 38.324219 127.773438 38.957031 C 127.632812 43.476562 127.773438 48.042969 128.171875 52.542969 C 128.90625 52.527344 129.644531 52.527344 130.382812 52.511719 C 131.550781 52.496094 132.71875 52.492188 133.890625 52.476562 C 133.890625 52.460938 133.886719 52.4375 133.886719 52.429688 L 133.855469 43.824219 C 133.851562 43.144531 133.851562 41.996094 134.609375 41.160156 C 135.300781 40.386719 136.269531 40.222656 137.121094 40.125 C 141.152344 39.6875 145.25 39.503906 149.3125 39.550781 C 149.605469 38.453125 149.648438 37.285156 149.441406 36.167969 " fill-opacity="1" fill-rule="nonzero"/><path fill="#f2f2f2" d="M 140.128906 60.578125 C 140.625 61.839844 140.921875 63.136719 140.988281 64.386719 C 141.039062 65.453125 140.957031 66.527344 140.742188 67.574219 L 148.589844 67.449219 C 149.417969 65.273438 149.46875 62.78125 148.722656 60.578125 L 140.128906 60.578125 " fill-opacity="1" fill-rule="nonzero"/><path fill="#f2f2f2" d="M 134.957031 65.019531 C 134.933594 65.019531 134.910156 65.019531 134.878906 65.019531 C 134.597656 65.019531 134.351562 64.804688 134.316406 64.519531 L 134.25 63.960938 C 134.210938 63.640625 134.441406 63.355469 134.753906 63.320312 C 135.070312 63.289062 135.347656 63.507812 135.394531 63.816406 L 135.453125 64.386719 C 135.492188 64.691406 135.269531 64.980469 134.957031 65.019531 Z M 135.394531 67.078125 C 135.363281 67.371094 135.113281 67.59375 134.820312 67.59375 C 134.804688 67.59375 134.78125 67.59375 134.765625 67.59375 C 134.449219 67.5625 134.214844 67.285156 134.246094 66.96875 L 134.296875 66.429688 C 134.328125 66.117188 134.605469 65.886719 134.921875 65.917969 C 135.234375 65.945312 135.46875 66.226562 135.445312 66.542969 Z M 134.121094 62.605469 C 133.824219 62.605469 133.574219 62.367188 133.546875 62.070312 C 133.539062 61.824219 133.492188 61.582031 133.421875 61.351562 C 133.316406 61.050781 133.492188 60.726562 133.792969 60.632812 C 134.089844 60.542969 134.417969 60.707031 134.511719 61.007812 C 134.609375 61.332031 134.675781 61.660156 134.695312 61.996094 C 134.710938 62.308594 134.476562 62.582031 134.160156 62.605469 C 134.148438 62.605469 134.132812 62.605469 134.121094 62.605469 Z M 133.886719 59.628906 C 133.925781 59.933594 133.742188 60.207031 133.449219 60.273438 C 133.40625 60.289062 133.363281 60.289062 133.316406 60.289062 C 133.0625 60.289062 132.824219 60.109375 132.757812 59.84375 C 132.746094 59.769531 132.710938 59.6875 132.675781 59.613281 C 132.285156 59.609375 131.90625 59.597656 131.523438 59.597656 C 131.914062 60.109375 132.261719 60.695312 132.542969 61.371094 C 133.019531 62.488281 133.269531 63.671875 133.464844 64.691406 C 133.65625 65.691406 133.835938 66.761719 133.753906 67.859375 C 133.699219 68.4375 133.5625 68.988281 133.363281 69.480469 C 133.421875 69.480469 133.484375 69.480469 133.546875 69.46875 C 133.585938 69.402344 133.636719 69.335938 133.699219 69.285156 C 133.777344 69.222656 133.84375 69.136719 133.878906 69.042969 C 133.988281 68.746094 134.316406 68.597656 134.609375 68.707031 C 134.90625 68.8125 135.054688 69.140625 134.957031 69.4375 C 135.972656 69.402344 136.980469 69.351562 137.972656 69.285156 C 138.625 67.777344 138.925781 66.132812 138.835938 64.488281 C 138.761719 62.933594 138.238281 61.265625 137.351562 59.730469 C 136.324219 59.695312 135.140625 59.660156 133.886719 59.628906 " fill-opacity="1" fill-rule="nonzero"/><path fill="#f2f2f2" d="M 131.492188 61.816406 C 131.09375 60.875 130.570312 60.136719 129.945312 59.59375 C 129.617188 59.597656 129.285156 59.597656 128.957031 59.609375 C 129.628906 60.367188 130.164062 61.335938 130.503906 62.453125 C 130.902344 63.75 131.011719 65.117188 131.066406 66.28125 C 131.121094 67.285156 131.140625 68.417969 130.867188 69.511719 C 131.273438 69.511719 131.671875 69.511719 132.070312 69.5 C 132.359375 69.011719 132.542969 68.425781 132.605469 67.757812 C 132.683594 66.8125 132.519531 65.832031 132.339844 64.914062 C 132.152344 63.945312 131.921875 62.832031 131.492188 61.816406 " fill-opacity="1" fill-rule="nonzero"/><path fill="#f2f2f2" d="M 136.695312 54.785156 L 137.046875 54.789062 L 137.019531 54.4375 C 137 54.175781 136.9375 53.914062 136.882812 53.742188 L 136.726562 53.503906 L 136.300781 53.539062 C 136.128906 53.554688 135.949219 53.570312 135.757812 53.570312 C 134.441406 53.574219 133.117188 53.589844 131.796875 53.609375 L 130.398438 53.625 C 128.773438 53.65625 127.144531 53.675781 125.527344 53.683594 L 125.277344 53.683594 L 125.21875 53.929688 C 125.179688 54.09375 125.160156 54.273438 125.160156 54.46875 L 125.160156 54.792969 L 125.484375 54.789062 C 129.851562 54.714844 133.414062 54.714844 136.695312 54.785156 " fill-opacity="1" fill-rule="nonzero"/></svg>