<svg xmlns="http://www.w3.org/2000/svg" xmlns:xlink="http://www.w3.org/1999/xlink" width="200" zoomAndPan="magnify" viewBox="0 0 150 149.999998" height="200" preserveAspectRatio="xMidYMid meet" version="1.0"><defs><clipPath id="bfa07254c7"><path d="M 22.5 0 L 127.5 0 C 139.925781 0 150 10.074219 150 22.5 L 150 127.5 C 150 139.925781 139.925781 150 127.5 150 L 22.5 150 C 10.074219 150 0 139.925781 0 127.5 L 0 22.5 C 0 10.074219 10.074219 0 22.5 0 Z M 22.5 0 " clip-rule="nonzero"/></clipPath><clipPath id="7ca015e920"><path d="M 0 0 L 150 0 L 150 150 L 0 150 Z M 0 0 " clip-rule="nonzero"/></clipPath><clipPath id="4152cea691"><path d="M 22.5 0 L 127.5 0 C 139.925781 0 150 10.074219 150 22.5 L 150 127.5 C 150 139.925781 139.925781 150 127.5 150 L 22.5 150 C 10.074219 150 0 139.925781 0 127.5 L 0 22.5 C 0 10.074219 10.074219 0 22.5 0 Z M 22.5 0 " clip-rule="nonzero"/></clipPath><clipPath id="385757e981"><rect x="0" width="150" y="0" height="150"/></clipPath><clipPath id="83a3933dba"><path d="M 126 40.78125 L 129 40.78125 L 129 108 L 126 108 Z M 126 40.78125 " clip-rule="nonzero"/></clipPath><clipPath id="4de323bd6c"><path d="M 112 106 L 143.234375 106 L 143.234375 109 L 112 109 Z M 112 106 " clip-rule="nonzero"/></clipPath><clipPath id="a3f3e46cab"><path d="M 21 40.78125 L 24 40.78125 L 24 108 L 21 108 Z M 21 40.78125 " clip-rule="nonzero"/></clipPath><clipPath id="329550fe82"><path d="M 6.734375 106 L 38 106 L 38 109 L 6.734375 109 Z M 6.734375 106 " clip-rule="nonzero"/></clipPath><clipPath id="233f7fa985"><path d="M 32 54 L 85 54 L 85 109.03125 L 32 109.03125 Z M 32 54 " clip-rule="nonzero"/></clipPath><clipPath id="f8d5c7e7b1"><path d="M 53 70 L 100 70 L 100 109.03125 L 53 109.03125 Z M 53 70 " clip-rule="nonzero"/></clipPath><clipPath id="0e0fcf2200"><path d="M 53 70 L 69 70 L 69 109.03125 L 53 109.03125 Z M 53 70 " clip-rule="nonzero"/></clipPath><clipPath id="0a5544e58b"><path d="M 31 106 L 39 106 L 39 109.03125 L 31 109.03125 Z M 31 106 " clip-rule="nonzero"/></clipPath><clipPath id="868ffbc5a3"><path d="M 89 93 L 113 93 L 113 109.03125 L 89 109.03125 Z M 89 93 " clip-rule="nonzero"/></clipPath><clipPath id="eb06df6026"><path d="M 106 103 L 115 103 L 115 109.03125 L 106 109.03125 Z M 106 103 " clip-rule="nonzero"/></clipPath><clipPath id="4865005ce2"><path d="M 106 103 L 112 103 L 112 109.03125 L 106 109.03125 Z M 106 103 " clip-rule="nonzero"/></clipPath><clipPath id="d241deb9b1"><path d="M 42 76 L 63 76 L 63 109.03125 L 42 109.03125 Z M 42 76 " clip-rule="nonzero"/></clipPath><clipPath id="d262671ed4"><path d="M 40 96 L 49 96 L 49 109.03125 L 40 109.03125 Z M 40 96 " clip-rule="nonzero"/></clipPath><clipPath id="5f9ca02f9f"><path d="M 40 96 L 46 96 L 46 109.03125 L 40 109.03125 Z M 40 96 " clip-rule="nonzero"/></clipPath><clipPath id="4fb109fb73"><path d="M 56 106 L 64 106 L 64 109.03125 L 56 109.03125 Z M 56 106 " clip-rule="nonzero"/></clipPath></defs><g clip-path="url(#bfa07254c7)"><g transform="matrix(1, 0, 0, 1, 0, -0.000000000000007527)"><g clip-path="url(#385757e981)"><g clip-path="url(#7ca015e920)"><g clip-path="url(#4152cea691)"><rect x="-33" width="216" fill="#671833" height="215.999996" y="-32.999999" fill-opacity="1"/></g></g></g></g></g><path fill="#ffffff" d="M 128.589844 106.960938 L 126.53125 106.960938 L 126.53125 41.277344 L 128.589844 41.277344 L 128.589844 106.960938 " fill-opacity="1" fill-rule="nonzero"/><g clip-path="url(#83a3933dba)"><path stroke-linecap="round" transform="matrix(0.00810046, 0, 0, -0.00807966, -3.448005, 153.191273)" fill="none" stroke-linejoin="round" d="M 16300.040708 5721.820346 L 16045.907804 5721.820346 L 16045.907804 13851.324892 L 16300.040708 13851.324892 Z M 16300.040708 5721.820346 " stroke="#000000" stroke-width="91.091003" stroke-opacity="1" stroke-miterlimit="10"/></g><path fill="#ffffff" d="M 129.164062 44.957031 L 129.164062 47.765625 L 125.953125 47.765625 L 125.953125 44.957031 L 123.300781 44.957031 L 123.300781 50.574219 L 131.816406 50.574219 L 131.816406 44.957031 L 129.164062 44.957031 " fill-opacity="1" fill-rule="nonzero"/><path stroke-linecap="round" transform="matrix(0.00829865, 0, 0, -0.00827733, -3.448005, 153.191273)" fill="none" stroke-linejoin="round" d="M 15980.434944 13075.984113 L 15980.434944 12737.144494 L 15593.511888 12737.144494 L 15593.511888 13075.984113 L 15273.900264 13075.984113 L 15273.900264 12397.832954 L 16300.046568 12397.832954 L 16300.046568 13075.984113 Z M 15980.434944 13075.984113 " stroke="#000000" stroke-width="88.917" stroke-opacity="1" stroke-miterlimit="10"/><path fill="#ffffff" d="M 127.265625 99.832031 L 127.6875 101.640625 L 116.09375 91.6875 L 116.691406 90.632812 L 127.265625 99.832031 " fill-opacity="1" fill-rule="nonzero"/><path stroke-linecap="round" transform="matrix(0.00804574, 0, 0, -0.00802507, -3.448005, 153.191273)" fill="none" stroke-linejoin="round" d="M 16247.776135 6649.553598 L 16300.210729 6424.185689 L 14858.744906 7664.43932 L 14933.027247 7795.86337 Z M 16247.776135 6649.553598 " stroke="#000000" stroke-width="91.714996" stroke-opacity="1" stroke-miterlimit="10"/><path fill="#ffffff" d="M 116.027344 99.832031 L 115.605469 101.640625 L 127.203125 91.6875 L 126.605469 90.632812 L 116.027344 99.832031 " fill-opacity="1" fill-rule="nonzero"/><path stroke-linecap="round" transform="matrix(0.00801542, 0, 0, -0.00799483, -3.448005, 153.191273)" fill="none" stroke-linejoin="round" d="M 14905.68979 6674.21736 L 14853.056858 6447.996983 L 16299.97514 7692.941953 L 16225.41182 7824.863123 Z M 14905.68979 6674.21736 " stroke="#000000" stroke-width="92.056999" stroke-opacity="1" stroke-miterlimit="10"/><path fill="#ffffff" d="M 116.09375 90.160156 L 116.707031 90.632812 L 127.714844 77.59375 L 127.242188 76.648438 L 116.09375 90.160156 " fill-opacity="1" fill-rule="nonzero"/><path stroke-linecap="round" transform="matrix(0.00804648, 0, 0, -0.00802581, -3.448005, 153.191273)" fill="none" stroke-linejoin="round" d="M 14855.436272 7853.552068 L 14931.653624 7794.173326 L 16300.167727 9418.814637 L 16240.941505 9536.598699 Z M 14855.436272 7853.552068 " stroke="#000000" stroke-width="91.696999" stroke-opacity="1" stroke-miterlimit="10"/><path fill="#ffffff" d="M 127.785156 90.394531 L 127.171875 90.871094 L 118.519531 77.59375 L 118.992188 76.648438 L 127.785156 90.394531 " fill-opacity="1" fill-rule="nonzero"/><path stroke-linecap="round" transform="matrix(0.00805091, 0, 0, -0.00803024, -3.448005, 153.191273)" fill="none" stroke-linejoin="round" d="M 16299.919114 7819.550833 L 16224.228955 7760.691258 L 15149.040539 9414.110211 L 15208.234125 9531.342916 Z M 16299.919114 7819.550833 " stroke="#000000" stroke-width="91.648003" stroke-opacity="1" stroke-miterlimit="10"/><path fill="#ffffff" d="M 127.753906 76.589844 L 126.730469 77.421875 L 120.210938 62.050781 L 121.503906 62.050781 L 127.753906 76.589844 " fill-opacity="1" fill-rule="nonzero"/><path stroke-linecap="round" transform="matrix(0.00804944, 0, 0, -0.00802876, -3.448005, 153.191273)" fill="none" stroke-linejoin="round" d="M 16300.001631 9541.365342 L 16172.857627 9437.733994 L 15362.921208 11352.237992 L 15523.549701 11352.237992 Z M 16300.001631 9541.365342 " stroke="#000000" stroke-width="91.670998" stroke-opacity="1" stroke-miterlimit="10"/><path fill="#ffffff" d="M 118.484375 76.589844 L 119.503906 77.417969 L 127.675781 62.050781 L 126.382812 62.050781 L 118.484375 76.589844 " fill-opacity="1" fill-rule="nonzero"/><path stroke-linecap="round" transform="matrix(0.00804426, 0, 0, -0.0080236, -3.448005, 153.191273)" fill="none" stroke-linejoin="round" d="M 15157.203786 9547.018287 L 15283.944017 9443.320254 L 16299.808244 11358.569374 L 16139.07638 11358.569374 Z M 15157.203786 9547.018287 " stroke="#000000" stroke-width="91.723999" stroke-opacity="1" stroke-miterlimit="10"/><path fill="#ffffff" d="M 120.535156 61.222656 L 121.148438 61.695312 L 127.921875 51.125 L 127.003906 50.574219 L 120.535156 61.222656 " fill-opacity="1" fill-rule="nonzero"/><path stroke-linecap="round" transform="matrix(0.00805905, 0, 0, -0.00803835, -3.448005, 153.191273)" fill="none" stroke-linejoin="round" d="M 15383.855235 11440.745759 L 15459.468988 11381.459644 L 16299.944936 12696.445112 L 16186.524307 12765.450262 Z M 15383.855235 11440.745759 " stroke="#000000" stroke-width="91.553001" stroke-opacity="1" stroke-miterlimit="10"/><path fill="#ffffff" d="M 127.507812 61.222656 L 126.894531 61.699219 L 122.007812 51.128906 L 122.921875 50.574219 L 127.507812 61.222656 " fill-opacity="1" fill-rule="nonzero"/><path stroke-linecap="round" transform="matrix(0.00803391, 0, 0, -0.00801327, -3.448005, 153.191273)" fill="none" stroke-linejoin="round" d="M 16299.904507 11476.550009 L 16224.054112 11417.565829 L 15615.306063 12736.666593 L 15729.567877 12805.887698 Z M 16299.904507 11476.550009 " stroke="#000000" stroke-width="91.843002" stroke-opacity="1" stroke-miterlimit="10"/><path fill="#ffffff" d="M 115.195312 107.273438 L 114.246094 107.273438 L 121.929688 50.574219 L 122.878906 50.574219 L 115.195312 107.273438 " fill-opacity="1" fill-rule="nonzero"/><path stroke-linecap="round" transform="matrix(0.00774994, 0, 0, -0.00773003, -3.448005, 153.191273)" fill="none" stroke-linejoin="round" d="M 15308.936786 5940.186359 L 15186.455974 5940.186359 L 16177.391266 13275.112355 L 16299.872078 13275.112355 Z M 15308.936786 5940.186359 " stroke="#000000" stroke-width="95.207001" stroke-opacity="1" stroke-miterlimit="10"/><path fill="#ffffff" d="M 128.734375 51.417969 L 121.148438 51.417969 L 121.148438 49.730469 L 128.734375 49.730469 L 128.734375 51.417969 " fill-opacity="1" fill-rule="nonzero"/><path stroke-linecap="round" transform="matrix(0.00810934, 0, 0, -0.00808851, -3.448005, 153.191273)" fill="none" stroke-linejoin="round" d="M 16300.025525 12582.459129 L 15364.086507 12582.459129 L 15364.086507 12791.088493 L 16300.025525 12791.088493 Z M 16300.025525 12582.459129 " stroke="#000000" stroke-width="90.988998" stroke-opacity="1" stroke-miterlimit="10"/><path fill="#ffffff" d="M 127.507812 62.898438 L 119.394531 62.898438 L 119.394531 61.207031 L 127.507812 61.207031 L 127.507812 62.898438 " fill-opacity="1" fill-rule="nonzero"/><path stroke-linecap="round" transform="matrix(0.00803391, 0, 0, -0.00801327, -3.448005, 153.191273)" fill="none" stroke-linejoin="round" d="M 16299.904507 11267.911751 L 15290.510778 11267.911751 L 15290.510778 11478.4999 L 16299.904507 11478.4999 Z M 16299.904507 11267.911751 " stroke="#000000" stroke-width="91.843002" stroke-opacity="1" stroke-miterlimit="10"/><path fill="#ffffff" d="M 127.789062 77.671875 L 117.207031 77.851562 L 117.207031 76.160156 L 127.789062 75.980469 L 127.789062 77.671875 " fill-opacity="1" fill-rule="nonzero"/><path stroke-linecap="round" transform="matrix(0.00805165, 0, 0, -0.00803097, -3.448005, 153.191273)" fill="none" stroke-linejoin="round" d="M 16299.877624 9404.004107 L 14985.609607 9381.629795 L 14985.609607 9592.240168 L 16299.877624 9614.128083 Z M 16299.877624 9404.004107 " stroke="#000000" stroke-width="91.644997" stroke-opacity="1" stroke-miterlimit="10"/><path fill="#ffffff" d="M 127.269531 91.476562 L 115.539062 91.476562 L 115.539062 89.789062 L 127.269531 89.789062 L 127.269531 91.476562 " fill-opacity="1" fill-rule="nonzero"/><path stroke-linecap="round" transform="matrix(0.00801912, 0, 0, -0.00799852, -3.448005, 153.191273)" fill="none" stroke-linejoin="round" d="M 16299.766824 7715.766842 L 14837.440771 7715.766842 L 14837.440771 7926.743389 L 16299.766824 7926.743389 Z M 16299.766824 7715.766842 " stroke="#000000" stroke-width="92.011002" stroke-opacity="1" stroke-miterlimit="10"/><path fill="#ffffff" d="M 127.851562 99.832031 L 127.429688 101.640625 L 139.027344 91.6875 L 138.429688 90.632812 L 127.851562 99.832031 " fill-opacity="1" fill-rule="nonzero"/><path stroke-linecap="round" transform="matrix(0.00874087, 0, 0, -0.00871842, -3.448005, 153.191273)" fill="none" stroke-linejoin="round" d="M 15021.343413 6120.290774 L 14973.078751 5912.845554 L 16299.910062 7054.466332 L 16231.535124 7175.438706 Z M 15021.343413 6120.290774 " stroke="#000000" stroke-width="84.417999" stroke-opacity="1" stroke-miterlimit="10"/><path fill="#ffffff" d="M 139.089844 99.832031 L 139.511719 101.640625 L 127.917969 91.6875 L 128.515625 90.632812 L 139.089844 99.832031 " fill-opacity="1" fill-rule="nonzero"/><path stroke-linecap="round" transform="matrix(0.00877045, 0, 0, -0.00874792, -3.448005, 153.191273)" fill="none" stroke-linejoin="round" d="M 16252.063059 6099.202803 L 16300.164944 5892.903753 L 14977.808514 7030.227739 L 15045.95285 7151.238653 Z M 16252.063059 6099.202803 " stroke="#000000" stroke-width="84.129997" stroke-opacity="1" stroke-miterlimit="10"/><path fill="#ffffff" d="M 139.027344 90.160156 L 138.414062 90.632812 L 127.402344 77.59375 L 127.878906 76.648438 L 139.027344 90.160156 " fill-opacity="1" fill-rule="nonzero"/><path stroke-linecap="round" transform="matrix(0.00874087, 0, 0, -0.00871842, -3.448005, 153.191273)" fill="none" stroke-linejoin="round" d="M 16299.910062 7230.100297 L 16230.194439 7175.438706 L 14970.397381 8671.463735 L 15024.471678 8779.442781 Z M 16299.910062 7230.100297 " stroke="#000000" stroke-width="84.417999" stroke-opacity="1" stroke-miterlimit="10"/><path fill="#ffffff" d="M 127.332031 90.394531 L 127.945312 90.867188 L 136.597656 77.59375 L 136.125 76.648438 L 127.332031 90.394531 " fill-opacity="1" fill-rule="nonzero"/><path stroke-linecap="round" transform="matrix(0.00859149, 0, 0, -0.00856942, -3.448005, 153.191273)" fill="none" stroke-linejoin="round" d="M 15221.594601 7327.548264 L 15292.977036 7272.392107 L 16300.060431 8821.778693 L 16244.591278 8931.635171 Z M 15221.594601 7327.548264 " stroke="#000000" stroke-width="85.879997" stroke-opacity="1" stroke-miterlimit="10"/><path fill="#ffffff" d="M 127.367188 76.589844 L 128.386719 77.421875 L 134.910156 62.050781 L 133.617188 62.050781 L 127.367188 76.589844 " fill-opacity="1" fill-rule="nonzero"/><path stroke-linecap="round" transform="matrix(0.00848796, 0, 0, -0.00846616, -3.448005, 153.191273)" fill="none" stroke-linejoin="round" d="M 15411.398128 9047.958397 L 15531.973372 8949.681064 L 16300.06529 10764.812641 L 16147.735497 10764.812641 Z M 15411.398128 9047.958397 " stroke="#000000" stroke-width="86.929001" stroke-opacity="1" stroke-miterlimit="10"/><path fill="#ffffff" d="M 136.636719 76.589844 L 135.613281 77.421875 L 127.441406 62.054688 L 128.734375 62.054688 L 136.636719 76.589844 " fill-opacity="1" fill-rule="nonzero"/><path stroke-linecap="round" transform="matrix(0.00859371, 0, 0, -0.00857163, -3.448005, 153.191273)" fill="none" stroke-linejoin="round" d="M 16299.94241 8936.164459 L 16181.305438 8839.552181 L 15230.391467 10631.892225 L 15380.846784 10631.892225 Z M 16299.94241 8936.164459 " stroke="#000000" stroke-width="85.858002" stroke-opacity="1" stroke-miterlimit="10"/><path fill="#ffffff" d="M 134.582031 61.222656 L 133.96875 61.699219 L 127.199219 51.128906 L 128.113281 50.574219 L 134.582031 61.222656 " fill-opacity="1" fill-rule="nonzero"/><path stroke-linecap="round" transform="matrix(0.00846799, 0, 0, -0.00844624, -3.448005, 153.191273)" fill="none" stroke-linejoin="round" d="M 16300.210962 10888.240393 L 16227.787495 10832.279853 L 15427.900288 12083.761023 L 15536.304841 12149.433723 Z M 16300.210962 10888.240393 " stroke="#000000" stroke-width="87.135002" stroke-opacity="1" stroke-miterlimit="10"/><path fill="#ffffff" d="M 127.609375 61.222656 L 128.222656 61.695312 L 133.113281 51.125 L 132.195312 50.574219 L 127.609375 61.222656 " fill-opacity="1" fill-rule="nonzero"/><path stroke-linecap="round" transform="matrix(0.00837851, 0, 0, -0.00835699, -3.448005, 153.191273)" fill="none" stroke-linejoin="round" d="M 15643.48107 11005.457526 L 15716.211763 10948.899349 L 16299.92219 12213.745864 L 16190.359929 12280.119923 Z M 15643.48107 11005.457526 " stroke="#000000" stroke-width="88.072998" stroke-opacity="1" stroke-miterlimit="10"/><path fill="#ffffff" d="M 139.921875 107.273438 L 140.871094 107.273438 L 133.1875 50.574219 L 132.242188 50.574219 L 139.921875 107.273438 " fill-opacity="1" fill-rule="nonzero"/><path stroke-linecap="round" transform="matrix(0.00885401, 0, 0, -0.00883127, -3.448005, 153.191273)" fill="none" stroke-linejoin="round" d="M 16192.649644 5199.460967 L 16299.857425 5199.460967 L 15432.489125 11620.183579 L 15325.281344 11620.183579 Z M 16192.649644 5199.460967 " stroke="#000000" stroke-width="83.337997" stroke-opacity="1" stroke-miterlimit="10"/><path fill="#ffffff" d="M 127.609375 62.898438 L 135.722656 62.898438 L 135.722656 61.207031 L 127.609375 61.207031 L 127.609375 62.898438 " fill-opacity="1" fill-rule="nonzero"/><path stroke-linecap="round" transform="matrix(0.00853824, 0, 0, -0.00851631, -3.448005, 153.191273)" fill="none" stroke-linejoin="round" d="M 15349.910976 10602.79673 L 16300.139289 10602.79673 L 16300.139289 10800.945845 L 15349.910976 10800.945845 Z M 15349.910976 10602.79673 " stroke="#000000" stroke-width="86.421997" stroke-opacity="1" stroke-miterlimit="10"/><path fill="#ffffff" d="M 127.328125 77.671875 L 137.910156 77.851562 L 137.910156 76.160156 L 127.328125 75.984375 L 127.328125 77.671875 " fill-opacity="1" fill-rule="nonzero"/><path stroke-linecap="round" transform="matrix(0.00867209, 0, 0, -0.00864982, -3.448005, 153.191273)" fill="none" stroke-linejoin="round" d="M 15080.110711 8730.749328 L 16299.899798 8709.975771 L 16299.899798 8905.066567 L 15080.110711 8925.840124 Z M 15080.110711 8730.749328 " stroke="#000000" stroke-width="85.084" stroke-opacity="1" stroke-miterlimit="10"/><path fill="#ffffff" d="M 127.851562 91.476562 L 139.578125 91.476562 L 139.578125 89.789062 L 127.851562 89.789062 L 127.851562 91.476562 " fill-opacity="1" fill-rule="nonzero"/><path stroke-linecap="round" transform="matrix(0.00877488, 0, 0, -0.00875235, -3.448005, 153.191273)" fill="none" stroke-linejoin="round" d="M 14963.558604 7051.219915 L 16299.936844 7051.219915 L 16299.936844 7244.471691 L 14963.558604 7244.471691 Z M 14963.558604 7051.219915 " stroke="#000000" stroke-width="84.091003" stroke-opacity="1" stroke-miterlimit="10"/><path fill="#ffffff" d="M 127.085938 107.273438 L 128.035156 107.273438 L 128.035156 50.574219 L 127.085938 50.574219 L 127.085938 107.273438 " fill-opacity="1" fill-rule="nonzero"/><path stroke-linecap="round" transform="matrix(0.00806644, 0, 0, -0.00804573, -3.448005, 153.191273)" fill="none" stroke-linejoin="round" d="M 16182.339562 5707.109427 L 16300.01455 5707.109427 L 16300.01455 12754.23266 L 16182.339562 12754.23266 Z M 16182.339562 5707.109427 " stroke="#000000" stroke-width="91.474998" stroke-opacity="1" stroke-miterlimit="10"/><path fill="#ffffff" d="M 142.722656 108.566406 L 112.394531 108.566406 L 112.394531 106.5625 L 142.722656 106.5625 L 142.722656 108.566406 " fill-opacity="1" fill-rule="nonzero"/><g clip-path="url(#4de323bd6c)"><path stroke-linecap="round" transform="matrix(0.00896715, 0, 0, -0.00894412, -3.448005, 153.191273)" fill="none" stroke-linejoin="round" d="M 16299.806116 4988.859494 L 12918.106248 4988.859494 L 12918.106248 5212.906816 L 16299.806116 5212.906816 Z M 16299.806116 4988.859494 " stroke="#000000" stroke-width="82.281998" stroke-opacity="1" stroke-miterlimit="10"/></g><path fill="#ffffff" d="M 23.445312 106.835938 L 21.386719 106.835938 L 21.386719 41.152344 L 23.445312 41.152344 L 23.445312 106.835938 " fill-opacity="1" fill-rule="nonzero"/><g clip-path="url(#a3f3e46cab)"><path stroke-linecap="round" transform="matrix(0.00739498, 0, 0, -0.00737599, -3.448005, 153.191273)" fill="none" stroke-linejoin="round" d="M 3636.699206 6284.629168 L 3358.322012 6284.629168 L 3358.322012 15189.688837 L 3636.699206 15189.688837 Z M 3636.699206 6284.629168 " stroke="#000000" stroke-width="99.779999" stroke-opacity="1" stroke-miterlimit="10"/></g><path fill="#ffffff" d="M 24.023438 44.832031 L 24.023438 47.640625 L 20.808594 47.640625 L 20.808594 44.832031 L 18.160156 44.832031 L 18.160156 50.449219 L 26.671875 50.449219 L 26.671875 44.832031 L 24.023438 44.832031 " fill-opacity="1" fill-rule="nonzero"/><path stroke-linecap="round" transform="matrix(0.00739498, 0, 0, -0.00737599, -3.448005, 153.191273)" fill="none" stroke-linejoin="round" d="M 3714.877241 14690.814843 L 3714.877241 14310.03947 L 3280.143977 14310.03947 L 3280.143977 14690.814843 L 2922.004057 14690.814843 L 2922.004057 13929.264096 L 4073.017161 13929.264096 L 4073.017161 14690.814843 Z M 3714.877241 14690.814843 " stroke="#000000" stroke-width="99.779999" stroke-opacity="1" stroke-miterlimit="10"/><path fill="#ffffff" d="M 15.390625 61.097656 L 16.003906 61.570312 L 22.777344 51.003906 L 21.859375 50.449219 L 15.390625 61.097656 " fill-opacity="1" fill-rule="nonzero"/><path stroke-linecap="round" transform="matrix(0.00739498, 0, 0, -0.00737599, -3.448005, 153.191273)" fill="none" stroke-linejoin="round" d="M 2547.489009 12485.601137 L 2630.421114 12421.52072 L 3546.371881 13854.062284 L 3422.237838 13929.264096 Z M 2547.489009 12485.601137 " stroke="#000000" stroke-width="99.779999" stroke-opacity="1" stroke-miterlimit="10"/><path fill="#ffffff" d="M 22.363281 61.097656 L 21.753906 61.570312 L 16.863281 51.003906 L 17.78125 50.449219 L 22.363281 61.097656 " fill-opacity="1" fill-rule="nonzero"/><path stroke-linecap="round" transform="matrix(0.00739498, 0, 0, -0.00737599, -3.448005, 153.191273)" fill="none" stroke-linejoin="round" d="M 3490.379504 12485.601137 L 3407.975629 12421.52072 L 2746.631708 13854.062284 L 2870.76575 13929.264096 Z M 3490.379504 12485.601137 " stroke="#000000" stroke-width="99.779999" stroke-opacity="1" stroke-miterlimit="10"/><path fill="#ffffff" d="M 22.609375 76.464844 L 21.585938 77.296875 L 15.066406 61.925781 L 16.359375 61.925781 L 22.609375 76.464844 " fill-opacity="1" fill-rule="nonzero"/><path stroke-linecap="round" transform="matrix(0.00739498, 0, 0, -0.00737599, -3.448005, 153.191273)" fill="none" stroke-linejoin="round" d="M 3523.657992 10402.193184 L 3385.261741 10289.390465 L 2503.645922 12373.328009 L 2678.490042 12373.328009 Z M 3523.657992 10402.193184 " stroke="#000000" stroke-width="99.779999" stroke-opacity="1" stroke-miterlimit="10"/><path fill="#ffffff" d="M 13.339844 76.464844 L 14.363281 77.296875 L 22.535156 61.925781 L 21.238281 61.925781 L 13.339844 76.464844 " fill-opacity="1" fill-rule="nonzero"/><path stroke-linecap="round" transform="matrix(0.00739498, 0, 0, -0.00737599, -3.448005, 153.191273)" fill="none" stroke-linejoin="round" d="M 2270.168275 10402.193184 L 2408.564527 10289.390465 L 3513.621623 12373.328009 L 3338.249273 12373.328009 Z M 2270.168275 10402.193184 " stroke="#000000" stroke-width="99.779999" stroke-opacity="1" stroke-miterlimit="10"/><path fill="#ffffff" d="M 10.949219 90.035156 L 11.5625 90.507812 L 22.570312 77.46875 L 22.097656 76.523438 L 10.949219 90.035156 " fill-opacity="1" fill-rule="nonzero"/><path stroke-linecap="round" transform="matrix(0.00739498, 0, 0, -0.00737599, -3.448005, 153.191273)" fill="none" stroke-linejoin="round" d="M 1946.891534 8562.396735 L 2029.823639 8498.316317 L 3518.375693 10266.088495 L 3454.459867 10394.24933 Z M 1946.891534 8562.396735 " stroke="#000000" stroke-width="99.779999" stroke-opacity="1" stroke-miterlimit="10"/><path fill="#ffffff" d="M 22.640625 90.269531 L 22.027344 90.742188 L 13.375 77.46875 L 13.851562 76.523438 L 22.640625 90.269531 " fill-opacity="1" fill-rule="nonzero"/><path stroke-linecap="round" transform="matrix(0.00739498, 0, 0, -0.00737599, -3.448005, 153.191273)" fill="none" stroke-linejoin="round" d="M 3527.883832 8530.621321 L 3444.951727 8466.540904 L 2274.922345 10266.088495 L 2339.366401 10394.24933 Z M 3527.883832 8530.621321 " stroke="#000000" stroke-width="99.779999" stroke-opacity="1" stroke-miterlimit="10"/><path fill="#ffffff" d="M 22.125 99.707031 L 22.546875 101.515625 L 10.949219 91.5625 L 11.546875 90.507812 L 22.125 99.707031 " fill-opacity="1" fill-rule="nonzero"/><path stroke-linecap="round" transform="matrix(0.00739498, 0, 0, -0.00737599, -3.448005, 153.191273)" fill="none" stroke-linejoin="round" d="M 3458.157476 7251.131333 L 3515.206313 7005.931057 L 1946.891534 8355.326956 L 2027.710719 8498.316317 Z M 3458.157476 7251.131333 " stroke="#000000" stroke-width="99.779999" stroke-opacity="1" stroke-miterlimit="10"/><path fill="#ffffff" d="M 10.882812 99.707031 L 10.460938 101.515625 L 22.058594 91.5625 L 21.460938 90.507812 L 10.882812 99.707031 " fill-opacity="1" fill-rule="nonzero"/><path stroke-linecap="round" transform="matrix(0.00739498, 0, 0, -0.00737599, -3.448005, 153.191273)" fill="none" stroke-linejoin="round" d="M 1937.911624 7251.131333 L 1880.862788 7005.931057 L 3449.177567 8355.326956 L 3368.358381 8498.316317 Z M 1937.911624 7251.131333 " stroke="#000000" stroke-width="99.779999" stroke-opacity="1" stroke-miterlimit="10"/><path fill="#ffffff" d="M 10.050781 107.148438 L 9.105469 107.148438 L 16.785156 50.449219 L 17.734375 50.449219 L 10.050781 107.148438 " fill-opacity="1" fill-rule="nonzero"/><path stroke-linecap="round" transform="matrix(0.00739498, 0, 0, -0.00737599, -3.448005, 153.191273)" fill="none" stroke-linejoin="round" d="M 1825.398641 6242.26195 L 1697.566988 6242.26195 L 2736.067108 13929.264096 L 2864.426991 13929.264096 Z M 1825.398641 6242.26195 " stroke="#000000" stroke-width="99.779999" stroke-opacity="1" stroke-miterlimit="10"/><path fill="#ffffff" d="M 23.59375 51.292969 L 16.003906 51.292969 L 16.003906 49.605469 L 23.59375 49.605469 L 23.59375 51.292969 " fill-opacity="1" fill-rule="nonzero"/><path stroke-linecap="round" transform="matrix(0.00739498, 0, 0, -0.00737599, -3.448005, 153.191273)" fill="none" stroke-linejoin="round" d="M 3656.771945 13814.872607 L 2630.421114 13814.872607 L 2630.421114 14043.655585 L 3656.771945 14043.655585 Z M 3656.771945 13814.872607 " stroke="#000000" stroke-width="99.779999" stroke-opacity="1" stroke-miterlimit="10"/><path fill="#ffffff" d="M 22.363281 62.773438 L 14.253906 62.773438 L 14.253906 61.082031 L 22.363281 61.082031 L 22.363281 62.773438 " fill-opacity="1" fill-rule="nonzero"/><path stroke-linecap="round" transform="matrix(0.00739498, 0, 0, -0.00737599, -3.448005, 153.191273)" fill="none" stroke-linejoin="round" d="M 3490.379504 12258.40693 L 2393.774088 12258.40693 L 2393.774088 12487.719498 L 3490.379504 12487.719498 Z M 3490.379504 12258.40693 " stroke="#000000" stroke-width="99.779999" stroke-opacity="1" stroke-miterlimit="10"/><path fill="#ffffff" d="M 22.644531 77.546875 L 12.066406 77.722656 L 12.066406 76.035156 L 22.644531 75.855469 L 22.644531 77.546875 " fill-opacity="1" fill-rule="nonzero"/><path stroke-linecap="round" transform="matrix(0.00739498, 0, 0, -0.00737599, -3.448005, 153.191273)" fill="none" stroke-linejoin="round" d="M 3528.412062 10255.496691 L 2097.965305 10231.665131 L 2097.965305 10460.448109 L 3528.412062 10484.809259 Z M 3528.412062 10255.496691 " stroke="#000000" stroke-width="99.779999" stroke-opacity="1" stroke-miterlimit="10"/><path fill="#ffffff" d="M 22.125 91.351562 L 10.398438 91.351562 L 10.398438 89.664062 L 22.125 89.664062 L 22.125 91.351562 " fill-opacity="1" fill-rule="nonzero"/><path stroke-linecap="round" transform="matrix(0.00739498, 0, 0, -0.00737599, -3.448005, 153.191273)" fill="none" stroke-linejoin="round" d="M 3458.157476 8383.924828 L 1872.411108 8383.924828 L 1872.411108 8612.707806 L 3458.157476 8612.707806 Z M 3458.157476 8383.924828 " stroke="#000000" stroke-width="99.779999" stroke-opacity="1" stroke-miterlimit="10"/><path fill="#ffffff" d="M 22.707031 99.707031 L 22.285156 101.515625 L 33.882812 91.5625 L 33.285156 90.507812 L 22.707031 99.707031 " fill-opacity="1" fill-rule="nonzero"/><path stroke-linecap="round" transform="matrix(0.00739498, 0, 0, -0.00737599, -3.448005, 153.191273)" fill="none" stroke-linejoin="round" d="M 3536.863742 7251.131333 L 3479.814905 7005.931057 L 5048.129684 8355.326956 L 4967.310499 8498.316317 Z M 3536.863742 7251.131333 " stroke="#000000" stroke-width="99.779999" stroke-opacity="1" stroke-miterlimit="10"/><path fill="#ffffff" d="M 33.949219 99.707031 L 34.371094 101.515625 L 22.773438 91.5625 L 23.371094 90.507812 L 33.949219 99.707031 " fill-opacity="1" fill-rule="nonzero"/><path stroke-linecap="round" transform="matrix(0.00739498, 0, 0, -0.00737599, -3.448005, 153.191273)" fill="none" stroke-linejoin="round" d="M 5057.109594 7251.131333 L 5114.15843 7005.931057 L 3545.843651 8355.326956 L 3626.662837 8498.316317 Z M 5057.109594 7251.131333 " stroke="#000000" stroke-width="99.779999" stroke-opacity="1" stroke-miterlimit="10"/><path fill="#ffffff" d="M 33.882812 90.035156 L 33.269531 90.507812 L 22.257812 77.46875 L 22.734375 76.523438 L 33.882812 90.035156 " fill-opacity="1" fill-rule="nonzero"/><path stroke-linecap="round" transform="matrix(0.00739498, 0, 0, -0.00737599, -3.448005, 153.191273)" fill="none" stroke-linejoin="round" d="M 5048.129684 8562.396735 L 4965.197579 8498.316317 L 3476.117295 10266.088495 L 3540.561352 10394.24933 Z M 5048.129684 8562.396735 " stroke="#000000" stroke-width="99.779999" stroke-opacity="1" stroke-miterlimit="10"/><path fill="#ffffff" d="M 22.191406 90.269531 L 22.800781 90.742188 L 31.457031 77.46875 L 30.980469 76.523438 L 22.191406 90.269531 " fill-opacity="1" fill-rule="nonzero"/><path stroke-linecap="round" transform="matrix(0.00739498, 0, 0, -0.00737599, -3.448005, 153.191273)" fill="none" stroke-linejoin="round" d="M 3467.137386 8530.621321 L 3549.541261 8466.540904 L 4720.098873 10266.088495 L 4655.654817 10394.24933 Z M 3467.137386 8530.621321 " stroke="#000000" stroke-width="99.779999" stroke-opacity="1" stroke-miterlimit="10"/><path fill="#ffffff" d="M 22.222656 76.464844 L 23.246094 77.296875 L 29.765625 61.925781 L 28.472656 61.925781 L 22.222656 76.464844 " fill-opacity="1" fill-rule="nonzero"/><path stroke-linecap="round" transform="matrix(0.00739498, 0, 0, -0.00737599, -3.448005, 153.191273)" fill="none" stroke-linejoin="round" d="M 3471.363226 10402.193184 L 3609.759477 10289.390465 L 4491.375296 12373.328009 L 4316.531177 12373.328009 Z M 3471.363226 10402.193184 " stroke="#000000" stroke-width="99.779999" stroke-opacity="1" stroke-miterlimit="10"/><path fill="#ffffff" d="M 31.492188 76.464844 L 30.46875 77.296875 L 22.296875 61.925781 L 23.59375 61.925781 L 31.492188 76.464844 " fill-opacity="1" fill-rule="nonzero"/><path stroke-linecap="round" transform="matrix(0.00739498, 0, 0, -0.00737599, -3.448005, 153.191273)" fill="none" stroke-linejoin="round" d="M 4724.852943 10402.193184 L 4586.456691 10289.390465 L 3481.399595 12373.328009 L 3656.771945 12373.328009 Z M 4724.852943 10402.193184 " stroke="#000000" stroke-width="99.779999" stroke-opacity="1" stroke-miterlimit="10"/><path fill="#ffffff" d="M 29.4375 61.097656 L 28.828125 61.570312 L 22.054688 51.003906 L 22.96875 50.449219 L 29.4375 61.097656 " fill-opacity="1" fill-rule="nonzero"/><path stroke-linecap="round" transform="matrix(0.00739498, 0, 0, -0.00737599, -3.448005, 153.191273)" fill="none" stroke-linejoin="round" d="M 4447.003979 12485.601137 L 4364.600104 12421.52072 L 3448.649337 13854.062284 L 3572.25515 13929.264096 Z M 4447.003979 12485.601137 " stroke="#000000" stroke-width="99.779999" stroke-opacity="1" stroke-miterlimit="10"/><path fill="#ffffff" d="M 22.46875 61.097656 L 23.078125 61.570312 L 27.96875 51.003906 L 27.050781 50.449219 L 22.46875 61.097656 " fill-opacity="1" fill-rule="nonzero"/><path stroke-linecap="round" transform="matrix(0.00739498, 0, 0, -0.00737599, -3.448005, 153.191273)" fill="none" stroke-linejoin="round" d="M 3504.641714 12485.601137 L 3587.045589 12421.52072 L 4248.38951 13854.062284 L 4124.255468 13929.264096 Z M 3504.641714 12485.601137 " stroke="#000000" stroke-width="99.779999" stroke-opacity="1" stroke-miterlimit="10"/><path fill="#ffffff" d="M 34.777344 107.148438 L 35.726562 107.148438 L 28.042969 50.449219 L 27.097656 50.449219 L 34.777344 107.148438 " fill-opacity="1" fill-rule="nonzero"/><path stroke-linecap="round" transform="matrix(0.00739498, 0, 0, -0.00737599, -3.448005, 153.191273)" fill="none" stroke-linejoin="round" d="M 5169.094347 6242.26195 L 5297.45423 6242.26195 L 4258.42588 13929.264096 L 4130.594227 13929.264096 Z M 5169.094347 6242.26195 " stroke="#000000" stroke-width="99.779999" stroke-opacity="1" stroke-miterlimit="10"/><path fill="#ffffff" d="M 22.46875 62.773438 L 30.578125 62.773438 L 30.578125 61.082031 L 22.46875 61.082031 L 22.46875 62.773438 " fill-opacity="1" fill-rule="nonzero"/><path stroke-linecap="round" transform="matrix(0.00739498, 0, 0, -0.00737599, -3.448005, 153.191273)" fill="none" stroke-linejoin="round" d="M 3504.641714 12258.40693 L 4601.24713 12258.40693 L 4601.24713 12487.719498 L 3504.641714 12487.719498 Z M 3504.641714 12258.40693 " stroke="#000000" stroke-width="99.779999" stroke-opacity="1" stroke-miterlimit="10"/><path fill="#ffffff" d="M 22.1875 77.546875 L 32.765625 77.722656 L 32.765625 76.035156 L 22.1875 75.855469 L 22.1875 77.546875 " fill-opacity="1" fill-rule="nonzero"/><path stroke-linecap="round" transform="matrix(0.00739498, 0, 0, -0.00737599, -3.448005, 153.191273)" fill="none" stroke-linejoin="round" d="M 3466.609156 10255.496691 L 4897.055913 10231.665131 L 4897.055913 10460.448109 L 3466.609156 10484.809259 Z M 3466.609156 10255.496691 " stroke="#000000" stroke-width="99.779999" stroke-opacity="1" stroke-miterlimit="10"/><path fill="#ffffff" d="M 22.707031 91.351562 L 34.433594 91.351562 L 34.433594 89.664062 L 22.707031 89.664062 L 22.707031 91.351562 " fill-opacity="1" fill-rule="nonzero"/><path stroke-linecap="round" transform="matrix(0.00739498, 0, 0, -0.00737599, -3.448005, 153.191273)" fill="none" stroke-linejoin="round" d="M 3536.863742 8383.924828 L 5122.61011 8383.924828 L 5122.61011 8612.707806 L 3536.863742 8612.707806 Z M 3536.863742 8383.924828 " stroke="#000000" stroke-width="99.779999" stroke-opacity="1" stroke-miterlimit="10"/><path fill="#ffffff" d="M 21.941406 107.148438 L 22.890625 107.148438 L 22.890625 50.449219 L 21.941406 50.449219 L 21.941406 107.148438 " fill-opacity="1" fill-rule="nonzero"/><path stroke-linecap="round" transform="matrix(0.00739498, 0, 0, -0.00737599, -3.448005, 153.191273)" fill="none" stroke-linejoin="round" d="M 3433.330668 6242.26195 L 3561.69055 6242.26195 L 3561.69055 13929.264096 L 3433.330668 13929.264096 Z M 3433.330668 6242.26195 " stroke="#000000" stroke-width="99.779999" stroke-opacity="1" stroke-miterlimit="10"/><path fill="#ffffff" d="M 37.578125 108.441406 L 7.253906 108.441406 L 7.253906 106.4375 L 37.578125 106.4375 L 37.578125 108.441406 " fill-opacity="1" fill-rule="nonzero"/><g clip-path="url(#329550fe82)"><path stroke-linecap="round" transform="matrix(0.00739498, 0, 0, -0.00737599, -3.448005, 153.191273)" fill="none" stroke-linejoin="round" d="M 5547.835235 6066.967585 L 1447.185983 6066.967585 L 1447.185983 6338.647371 L 5547.835235 6338.647371 Z M 5547.835235 6066.967585 " stroke="#000000" stroke-width="99.779999" stroke-opacity="1" stroke-miterlimit="10"/></g><path fill="#ffffff" d="M 33.328125 108.664062 L 37.515625 108.664062 L 37.515625 69.378906 C 37.515625 63.683594 42.160156 59.054688 47.867188 59.054688 L 69.402344 59.054688 C 75.109375 59.054688 79.753906 64.128906 79.753906 69.820312 L 79.753906 70.460938 L 83.941406 70.460938 L 83.941406 69.820312 C 83.941406 61.824219 77.417969 54.875 69.402344 54.875 L 47.867188 54.875 C 39.851562 54.875 33.328125 61.382812 33.328125 69.378906 L 33.328125 108.664062 " fill-opacity="1" fill-rule="nonzero"/><g clip-path="url(#233f7fa985)"><path stroke-linecap="round" transform="matrix(0.00739498, 0, 0, -0.00737599, -3.448005, 153.191273)" fill="none" stroke-linejoin="round" d="M 4973.121028 6036.780942 L 5539.383556 6036.780942 L 5539.383556 11362.869856 C 5539.383556 12135.012407 6167.448989 12762.576826 6939.192974 12762.576826 L 9851.324795 12762.576826 C 10623.068781 12762.576826 11251.134214 12074.639121 11251.134214 11303.02616 L 11251.134214 11216.173363 L 11817.396741 11216.173363 L 11817.396741 11303.02616 C 11817.396741 12387.097355 10935.252693 13329.238369 9851.324795 13329.238369 L 6939.192974 13329.238369 C 5855.265077 13329.238369 4973.121028 12446.941051 4973.121028 11362.869856 Z M 4973.121028 6036.780942 " stroke="#000000" stroke-width="99.779999" stroke-opacity="1" stroke-miterlimit="10"/></g><path fill="#ffffff" d="M 85.445312 71.636719 L 92.207031 71.636719 L 92.207031 50.703125 L 85.445312 50.703125 L 85.445312 71.636719 " fill-opacity="1" fill-rule="nonzero"/><path stroke-linecap="round" transform="matrix(0.00739498, 0, 0, -0.00737599, -3.448005, 153.191273)" fill="none" stroke-linejoin="round" d="M 12020.76528 11056.766704 L 12935.131357 11056.766704 L 12935.131357 13894.840731 L 12020.76528 13894.840731 Z M 12020.76528 11056.766704 " stroke="#000000" stroke-width="99.779999" stroke-opacity="1" stroke-miterlimit="10"/><path fill="#ffffff" d="M 85.445312 71.636719 L 88.054688 71.636719 L 88.054688 50.703125 L 85.445312 50.703125 L 85.445312 71.636719 " fill-opacity="1" fill-rule="nonzero"/><path stroke-linecap="round" transform="matrix(0.00739498, 0, 0, -0.00737599, -3.448005, 153.191273)" fill="none" stroke-linejoin="round" d="M 12020.76528 11056.766704 L 12373.622899 11056.766704 L 12373.622899 13894.840731 L 12020.76528 13894.840731 Z M 12020.76528 11056.766704 " stroke="#000000" stroke-width="99.779999" stroke-opacity="1" stroke-miterlimit="10"/><path fill="#ffffff" d="M 94.164062 49.136719 C 94.015625 51.957031 91.679688 54.195312 88.820312 54.195312 C 85.957031 54.195312 83.621094 51.957031 83.476562 49.136719 L 94.164062 49.136719 " fill-opacity="1" fill-rule="nonzero"/><path stroke-linecap="round" transform="matrix(0.00739498, 0, 0, -0.00737599, -3.448005, 153.191273)" fill="none" stroke-linejoin="round" d="M 13199.774571 14107.206413 C 13179.701832 13724.842269 12863.820311 13421.387068 12477.155973 13421.387068 C 12089.963406 13421.387068 11774.081884 13724.842269 11754.537375 14107.206413 Z M 13199.774571 14107.206413 " stroke="#000000" stroke-width="99.779999" stroke-opacity="1" stroke-miterlimit="10"/><path fill="#ffffff" d="M 82.9375 48.8125 C 82.9375 48.992188 83.082031 49.136719 83.261719 49.136719 L 94.324219 49.136719 C 94.503906 49.136719 94.648438 48.992188 94.648438 48.8125 C 94.648438 48.632812 94.503906 48.488281 94.324219 48.488281 L 83.261719 48.488281 C 83.082031 48.488281 82.9375 48.632812 82.9375 48.8125 " fill-opacity="1" fill-rule="nonzero"/><path stroke-linecap="round" transform="matrix(0.00739498, 0, 0, -0.00737599, -3.448005, 153.191273)" fill="none" stroke-linejoin="round" d="M 11681.641639 14151.162401 C 11681.641639 14126.801251 11701.186148 14107.206413 11725.484727 14107.206413 L 13221.432 14107.206413 C 13245.730579 14107.206413 13265.275087 14126.801251 13265.275087 14151.162401 C 13265.275087 14175.523552 13245.730579 14195.11839 13221.432 14195.11839 L 11725.484727 14195.11839 C 11701.186148 14195.11839 11681.641639 14175.523552 11681.641639 14151.162401 Z M 11681.641639 14151.162401 " stroke="#000000" stroke-width="99.779999" stroke-opacity="1" stroke-miterlimit="10"/><path fill="#ffffff" d="M 64.5 71.636719 L 71.261719 71.636719 L 71.261719 50.703125 L 64.5 50.703125 L 64.5 71.636719 " fill-opacity="1" fill-rule="nonzero"/><path stroke-linecap="round" transform="matrix(0.00739498, 0, 0, -0.00737599, -3.448005, 153.191273)" fill="none" stroke-linejoin="round" d="M 9188.396184 11056.766704 L 10102.762261 11056.766704 L 10102.762261 13894.840731 L 9188.396184 13894.840731 Z M 9188.396184 11056.766704 " stroke="#000000" stroke-width="99.779999" stroke-opacity="1" stroke-miterlimit="10"/><path fill="#ffffff" d="M 64.5 71.636719 L 67.109375 71.636719 L 67.109375 50.703125 L 64.5 50.703125 L 64.5 71.636719 " fill-opacity="1" fill-rule="nonzero"/><path stroke-linecap="round" transform="matrix(0.00739498, 0, 0, -0.00737599, -3.448005, 153.191273)" fill="none" stroke-linejoin="round" d="M 9188.396184 11056.766704 L 9541.253803 11056.766704 L 9541.253803 13894.840731 L 9188.396184 13894.840731 Z M 9188.396184 11056.766704 " stroke="#000000" stroke-width="99.779999" stroke-opacity="1" stroke-miterlimit="10"/><path fill="#ffffff" d="M 73.21875 49.136719 C 73.074219 51.957031 70.738281 54.195312 67.875 54.195312 C 65.015625 54.195312 62.675781 51.957031 62.53125 49.136719 L 73.21875 49.136719 " fill-opacity="1" fill-rule="nonzero"/><path stroke-linecap="round" transform="matrix(0.00739498, 0, 0, -0.00737599, -3.448005, 153.191273)" fill="none" stroke-linejoin="round" d="M 10367.405476 14107.206413 C 10347.860967 13724.842269 10031.979445 13421.387068 9644.786877 13421.387068 C 9258.12254 13421.387068 8941.712788 13724.842269 8922.168279 14107.206413 Z M 10367.405476 14107.206413 " stroke="#000000" stroke-width="99.779999" stroke-opacity="1" stroke-miterlimit="10"/><path fill="#ffffff" d="M 61.992188 48.8125 C 61.992188 48.992188 62.136719 49.136719 62.316406 49.136719 L 73.378906 49.136719 C 73.558594 49.136719 73.703125 48.992188 73.703125 48.8125 C 73.703125 48.632812 73.558594 48.488281 73.378906 48.488281 L 62.316406 48.488281 C 62.136719 48.488281 61.992188 48.632812 61.992188 48.8125 " fill-opacity="1" fill-rule="nonzero"/><path stroke-linecap="round" transform="matrix(0.00739498, 0, 0, -0.00737599, -3.448005, 153.191273)" fill="none" stroke-linejoin="round" d="M 8849.272544 14151.162401 C 8849.272544 14126.801251 8868.817052 14107.206413 8893.115631 14107.206413 L 10389.062904 14107.206413 C 10413.361483 14107.206413 10432.905992 14126.801251 10432.905992 14151.162401 C 10432.905992 14175.523552 10413.361483 14195.11839 10389.062904 14195.11839 L 8893.115631 14195.11839 C 8868.817052 14195.11839 8849.272544 14175.523552 8849.272544 14151.162401 Z M 8849.272544 14151.162401 " stroke="#000000" stroke-width="99.779999" stroke-opacity="1" stroke-miterlimit="10"/><path fill="#ffffff" d="M 54.207031 108.664062 L 99.269531 108.664062 L 99.269531 70.460938 L 54.207031 70.460938 L 54.207031 108.664062 " fill-opacity="1" fill-rule="nonzero"/><g clip-path="url(#f8d5c7e7b1)"><path stroke-linecap="round" transform="matrix(0.00739498, 0, 0, -0.00737599, -3.448005, 153.191273)" fill="none" stroke-linejoin="round" d="M 7796.510215 6036.780942 L 13890.171141 6036.780942 L 13890.171141 11216.173363 L 7796.510215 11216.173363 Z M 7796.510215 6036.780942 " stroke="#000000" stroke-width="99.779999" stroke-opacity="1" stroke-miterlimit="10"/></g><path fill="#ffffff" d="M 54.207031 108.664062 L 67.847656 108.664062 L 67.847656 70.460938 L 54.207031 70.460938 L 54.207031 108.664062 " fill-opacity="1" fill-rule="nonzero"/><g clip-path="url(#0e0fcf2200)"><path stroke-linecap="round" transform="matrix(0.00739498, 0, 0, -0.00737599, -3.448005, 153.191273)" fill="none" stroke-linejoin="round" d="M 7796.510215 6036.780942 L 9641.089268 6036.780942 L 9641.089268 11216.173363 L 7796.510215 11216.173363 Z M 7796.510215 6036.780942 " stroke="#000000" stroke-width="99.779999" stroke-opacity="1" stroke-miterlimit="10"/></g><path fill="#ffffff" d="M 46.402344 59.511719 C 46.402344 59.96875 46.773438 60.335938 47.230469 60.335938 C 47.683594 60.335938 48.054688 59.96875 48.054688 59.511719 L 48.054688 54.605469 C 48.054688 54.152344 47.683594 53.785156 47.230469 53.785156 C 46.773438 53.785156 46.402344 54.152344 46.402344 54.605469 L 46.402344 59.511719 " fill-opacity="1" fill-rule="nonzero"/><path stroke-linecap="round" transform="matrix(0.00739498, 0, 0, -0.00737599, -3.448005, 153.191273)" fill="none" stroke-linejoin="round" d="M 6741.106736 12700.614769 C 6741.106736 12638.652713 6791.288583 12588.871231 6853.091489 12588.871231 C 6914.366166 12588.871231 6964.548013 12638.652713 6964.548013 12700.614769 L 6964.548013 13365.780095 C 6964.548013 13427.212561 6914.366166 13476.994042 6853.091489 13476.994042 C 6791.288583 13476.994042 6741.106736 13427.212561 6741.106736 13365.780095 Z M 6741.106736 12700.614769 " stroke="#000000" stroke-width="99.779999" stroke-opacity="1" stroke-miterlimit="10"/><path fill="#ffffff" d="M 37.800781 70.839844 C 38.257812 70.839844 38.628906 70.46875 38.628906 70.015625 C 38.628906 69.558594 38.257812 69.191406 37.800781 69.191406 L 32.882812 69.191406 C 32.429688 69.191406 32.058594 69.558594 32.058594 70.015625 C 32.058594 70.46875 32.429688 70.839844 32.882812 70.839844 L 37.800781 70.839844 " fill-opacity="1" fill-rule="nonzero"/><path stroke-linecap="round" transform="matrix(0.00739498, 0, 0, -0.00737599, -3.448005, 153.191273)" fill="none" stroke-linejoin="round" d="M 5577.944343 11164.803111 C 5639.74725 11164.803111 5689.929097 11215.114182 5689.929097 11276.546649 C 5689.929097 11338.508705 5639.74725 11388.290187 5577.944343 11388.290187 L 4912.902812 11388.290187 C 4851.628135 11388.290187 4801.446288 11338.508705 4801.446288 11276.546649 C 4801.446288 11215.114182 4851.628135 11164.803111 4912.902812 11164.803111 Z M 5577.944343 11164.803111 " stroke="#000000" stroke-width="99.779999" stroke-opacity="1" stroke-miterlimit="10"/><path fill="#ffffff" d="M 37.800781 108.664062 C 38.257812 108.664062 38.628906 108.292969 38.628906 107.839844 C 38.628906 107.382812 38.257812 107.011719 37.800781 107.011719 L 32.882812 107.011719 C 32.429688 107.011719 32.058594 107.382812 32.058594 107.839844 C 32.058594 108.292969 32.429688 108.664062 32.882812 108.664062 L 37.800781 108.664062 " fill-opacity="1" fill-rule="nonzero"/><g clip-path="url(#0a5544e58b)"><path stroke-linecap="round" transform="matrix(0.00739498, 0, 0, -0.00737599, -3.448005, 153.191273)" fill="none" stroke-linejoin="round" d="M 5577.944343 6036.780942 C 5639.74725 6036.780942 5689.929097 6087.092013 5689.929097 6148.52448 C 5689.929097 6210.486536 5639.74725 6260.797608 5577.944343 6260.797608 L 4912.902812 6260.797608 C 4851.628135 6260.797608 4801.446288 6210.486536 4801.446288 6148.52448 C 4801.446288 6087.092013 4851.628135 6036.780942 4912.902812 6036.780942 Z M 5577.944343 6036.780942 " stroke="#000000" stroke-width="99.779999" stroke-opacity="1" stroke-miterlimit="10"/></g><path fill="#ffffff" d="M 37.800781 90.753906 C 38.257812 90.753906 38.628906 90.382812 38.628906 89.929688 C 38.628906 89.472656 38.257812 89.105469 37.800781 89.105469 L 32.882812 89.105469 C 32.429688 89.105469 32.058594 89.472656 32.058594 89.929688 C 32.058594 90.382812 32.429688 90.753906 32.882812 90.753906 L 37.800781 90.753906 " fill-opacity="1" fill-rule="nonzero"/><path stroke-linecap="round" transform="matrix(0.00739498, 0, 0, -0.00737599, -3.448005, 153.191273)" fill="none" stroke-linejoin="round" d="M 5577.944343 8464.952133 C 5639.74725 8464.952133 5689.929097 8515.263205 5689.929097 8576.695671 C 5689.929097 8638.657728 5639.74725 8688.439209 5577.944343 8688.439209 L 4912.902812 8688.439209 C 4851.628135 8688.439209 4801.446288 8638.657728 4801.446288 8576.695671 C 4801.446288 8515.263205 4851.628135 8464.952133 4912.902812 8464.952133 Z M 5577.944343 8464.952133 " stroke="#000000" stroke-width="99.779999" stroke-opacity="1" stroke-miterlimit="10"/><path fill="#ffffff" d="M 108.15625 108.664062 L 112.34375 108.664062 L 112.34375 102.238281 C 112.34375 97.859375 108.773438 94.300781 104.386719 94.300781 L 89.550781 94.300781 L 89.550781 98.476562 L 104.386719 98.476562 C 106.464844 98.476562 108.15625 100.164062 108.15625 102.238281 L 108.15625 108.664062 " fill-opacity="1" fill-rule="nonzero"/><g clip-path="url(#868ffbc5a3)"><path stroke-linecap="round" transform="matrix(0.00739498, 0, 0, -0.00737599, -3.448005, 153.191273)" fill="none" stroke-linejoin="round" d="M 15091.894322 6036.780942 L 15658.156849 6036.780942 L 15658.156849 6907.956865 C 15658.156849 7501.62751 15175.354657 7984.084207 14582.152401 7984.084207 L 12575.934977 7984.084207 L 12575.934977 7417.952254 L 14582.152401 7417.952254 C 14863.170745 7417.952254 15091.894322 7189.169276 15091.894322 6907.956865 Z M 15091.894322 6036.780942 " stroke="#000000" stroke-width="99.779999" stroke-opacity="1" stroke-miterlimit="10"/></g><path fill="#ffffff" d="M 88.351562 98.980469 C 88.351562 99.4375 88.722656 99.804688 89.179688 99.804688 C 89.636719 99.804688 90.003906 99.4375 90.003906 98.980469 L 90.003906 94.078125 C 90.003906 93.621094 89.636719 93.253906 89.179688 93.253906 C 88.722656 93.253906 88.351562 93.621094 88.351562 94.078125 L 88.351562 98.980469 " fill-opacity="1" fill-rule="nonzero"/><path stroke-linecap="round" transform="matrix(0.00739498, 0, 0, -0.00737599, -3.448005, 153.191273)" fill="none" stroke-linejoin="round" d="M 12413.768377 7349.635115 C 12413.768377 7287.673058 12463.950224 7237.891577 12525.75313 7237.891577 C 12587.556037 7237.891577 12637.209654 7287.673058 12637.209654 7349.635115 L 12637.209654 8014.27085 C 12637.209654 8076.232906 12587.556037 8126.014388 12525.75313 8126.014388 C 12463.950224 8126.014388 12413.768377 8076.232906 12413.768377 8014.27085 Z M 12413.768377 7349.635115 " stroke="#000000" stroke-width="99.779999" stroke-opacity="1" stroke-miterlimit="10"/><path fill="#ffffff" d="M 102.589844 98.980469 C 102.589844 99.4375 102.960938 99.804688 103.417969 99.804688 C 103.875 99.804688 104.242188 99.4375 104.242188 98.980469 L 104.242188 94.078125 C 104.242188 93.621094 103.875 93.253906 103.417969 93.253906 C 102.960938 93.253906 102.589844 93.621094 102.589844 94.078125 L 102.589844 98.980469 " fill-opacity="1" fill-rule="nonzero"/><path stroke-linecap="round" transform="matrix(0.00739498, 0, 0, -0.00737599, -3.448005, 153.191273)" fill="none" stroke-linejoin="round" d="M 14339.166615 7349.635115 C 14339.166615 7287.673058 14389.348462 7237.891577 14451.151369 7237.891577 C 14512.954275 7237.891577 14562.607892 7287.673058 14562.607892 7349.635115 L 14562.607892 8014.27085 C 14562.607892 8076.232906 14512.954275 8126.014388 14451.151369 8126.014388 C 14389.348462 8126.014388 14339.166615 8076.232906 14339.166615 8014.27085 Z M 14339.166615 7349.635115 " stroke="#000000" stroke-width="99.779999" stroke-opacity="1" stroke-miterlimit="10"/><path fill="#ffffff" d="M 106.71875 108.664062 L 114.078125 108.664062 L 114.078125 103.875 L 106.71875 103.875 L 106.71875 108.664062 " fill-opacity="1" fill-rule="nonzero"/><g clip-path="url(#eb06df6026)"><path stroke-linecap="round" transform="matrix(0.00739498, 0, 0, -0.00737599, -3.448005, 153.191273)" fill="none" stroke-linejoin="round" d="M 14897.505693 6036.780942 L 15892.690955 6036.780942 L 15892.690955 6686.05856 L 14897.505693 6686.05856 Z M 14897.505693 6036.780942 " stroke="#000000" stroke-width="99.779999" stroke-opacity="1" stroke-miterlimit="10"/></g><path fill="#ffffff" d="M 106.71875 108.664062 L 110.816406 108.664062 L 110.816406 103.875 L 106.71875 103.875 L 106.71875 108.664062 " fill-opacity="1" fill-rule="nonzero"/><g clip-path="url(#4865005ce2)"><path stroke-linecap="round" transform="matrix(0.00739498, 0, 0, -0.00737599, -3.448005, 153.191273)" fill="none" stroke-linejoin="round" d="M 14897.505693 6036.780942 L 15451.618931 6036.780942 L 15451.618931 6686.05856 L 14897.505693 6686.05856 Z M 14897.505693 6036.780942 " stroke="#000000" stroke-width="99.779999" stroke-opacity="1" stroke-miterlimit="10"/></g><path fill="#ffffff" d="M 43.007812 108.664062 L 47.195312 108.664062 L 47.195312 85.316406 C 47.195312 83.046875 49.046875 81.199219 51.324219 81.199219 L 53.414062 81.199219 C 55.691406 81.199219 57.542969 83.046875 57.542969 85.316406 L 57.542969 108.664062 L 61.730469 108.664062 L 61.730469 85.316406 C 61.730469 80.742188 58 77.023438 53.414062 77.023438 L 51.324219 77.023438 C 46.738281 77.023438 43.007812 80.742188 43.007812 85.316406 L 43.007812 108.664062 " fill-opacity="1" fill-rule="nonzero"/><g clip-path="url(#d241deb9b1)"><path stroke-linecap="round" transform="matrix(0.00739498, 0, 0, -0.00737599, -3.448005, 153.191273)" fill="none" stroke-linejoin="round" d="M 6282.074892 6036.780942 L 6848.33742 6036.780942 L 6848.33742 9202.141729 C 6848.33742 9509.833651 7098.718425 9760.329829 7406.676497 9760.329829 L 7689.279531 9760.329829 C 7997.237603 9760.329829 8247.618608 9509.833651 8247.618608 9202.141729 L 8247.618608 6036.780942 L 8813.881136 6036.780942 L 8813.881136 9202.141729 C 8813.881136 9822.291885 8309.421515 10326.461781 7689.279531 10326.461781 L 7406.676497 10326.461781 C 6786.534513 10326.461781 6282.074892 9822.291885 6282.074892 9202.141729 Z M 6282.074892 6036.780942 " stroke="#000000" stroke-width="99.779999" stroke-opacity="1" stroke-miterlimit="10"/></g><path fill="#ffffff" d="M 41.179688 108.664062 L 48.539062 108.664062 L 48.539062 96.527344 L 41.179688 96.527344 L 41.179688 108.664062 " fill-opacity="1" fill-rule="nonzero"/><g clip-path="url(#d262671ed4)"><path stroke-linecap="round" transform="matrix(0.00739498, 0, 0, -0.00737599, -3.448005, 153.191273)" fill="none" stroke-linejoin="round" d="M 6034.863267 6036.780942 L 7030.048529 6036.780942 L 7030.048529 7682.217777 L 6034.863267 7682.217777 Z M 6034.863267 6036.780942 " stroke="#000000" stroke-width="99.779999" stroke-opacity="1" stroke-miterlimit="10"/></g><path fill="#ffffff" d="M 41.179688 108.664062 L 45.277344 108.664062 L 45.277344 96.527344 L 41.179688 96.527344 L 41.179688 108.664062 " fill-opacity="1" fill-rule="nonzero"/><g clip-path="url(#5f9ca02f9f)"><path stroke-linecap="round" transform="matrix(0.00739498, 0, 0, -0.00737599, -3.448005, 153.191273)" fill="none" stroke-linejoin="round" d="M 6034.863267 6036.780942 L 6588.976505 6036.780942 L 6588.976505 7682.217777 L 6034.863267 7682.217777 Z M 6034.863267 6036.780942 " stroke="#000000" stroke-width="99.779999" stroke-opacity="1" stroke-miterlimit="10"/></g><path fill="#ffffff" d="M 47.734375 85.570312 C 48.191406 85.570312 48.5625 85.203125 48.5625 84.75 C 48.5625 84.292969 48.191406 83.925781 47.734375 83.925781 L 42.816406 83.925781 C 42.359375 83.925781 41.992188 84.292969 41.992188 84.75 C 41.992188 85.203125 42.359375 85.570312 42.816406 85.570312 L 47.734375 85.570312 " fill-opacity="1" fill-rule="nonzero"/><path stroke-linecap="round" transform="matrix(0.00739498, 0, 0, -0.00737599, -3.448005, 153.191273)" fill="none" stroke-linejoin="round" d="M 6921.233155 9167.718364 C 6983.036062 9167.718364 7033.217909 9217.499846 7033.217909 9278.932312 C 7033.217909 9340.894369 6983.036062 9390.67585 6921.233155 9390.67585 L 6256.191624 9390.67585 C 6194.388718 9390.67585 6144.7351 9340.894369 6144.7351 9278.932312 C 6144.7351 9217.499846 6194.388718 9167.718364 6256.191624 9167.718364 Z M 6921.233155 9167.718364 " stroke="#000000" stroke-width="99.779999" stroke-opacity="1" stroke-miterlimit="10"/><path fill="#ffffff" d="M 62.332031 85.570312 C 62.789062 85.570312 63.160156 85.203125 63.160156 84.75 C 63.160156 84.292969 62.789062 83.925781 62.332031 83.925781 L 57.414062 83.925781 C 56.957031 83.925781 56.589844 84.292969 56.589844 84.75 C 56.589844 85.203125 56.957031 85.570312 57.414062 85.570312 L 62.332031 85.570312 " fill-opacity="1" fill-rule="nonzero"/><path stroke-linecap="round" transform="matrix(0.00739498, 0, 0, -0.00737599, -3.448005, 153.191273)" fill="none" stroke-linejoin="round" d="M 8895.228551 9167.718364 C 8957.031457 9167.718364 9007.213304 9217.499846 9007.213304 9278.932312 C 9007.213304 9340.894369 8957.031457 9390.67585 8895.228551 9390.67585 L 8230.18702 9390.67585 C 8168.384113 9390.67585 8118.730496 9340.894369 8118.730496 9278.932312 C 8118.730496 9217.499846 8168.384113 9167.718364 8230.18702 9167.718364 Z M 8895.228551 9167.718364 " stroke="#000000" stroke-width="99.779999" stroke-opacity="1" stroke-miterlimit="10"/><path fill="#ffffff" d="M 62.332031 108.664062 C 62.789062 108.664062 63.160156 108.292969 63.160156 107.839844 C 63.160156 107.382812 62.789062 107.011719 62.332031 107.011719 L 57.414062 107.011719 C 56.957031 107.011719 56.589844 107.382812 56.589844 107.839844 C 56.589844 108.292969 56.957031 108.664062 57.414062 108.664062 L 62.332031 108.664062 " fill-opacity="1" fill-rule="nonzero"/><g clip-path="url(#4fb109fb73)"><path stroke-linecap="round" transform="matrix(0.00739498, 0, 0, -0.00737599, -3.448005, 153.191273)" fill="none" stroke-linejoin="round" d="M 8895.228551 6036.780942 C 8957.031457 6036.780942 9007.213304 6087.092013 9007.213304 6148.52448 C 9007.213304 6210.486536 8957.031457 6260.797608 8895.228551 6260.797608 L 8230.18702 6260.797608 C 8168.384113 6260.797608 8118.730496 6210.486536 8118.730496 6148.52448 C 8118.730496 6087.092013 8168.384113 6036.780942 8230.18702 6036.780942 Z M 8895.228551 6036.780942 " stroke="#000000" stroke-width="99.779999" stroke-opacity="1" stroke-miterlimit="10"/></g><path fill="#ffffff" d="M 126.382812 51.417969 L 133.96875 51.417969 L 133.96875 49.730469 L 126.382812 49.730469 L 126.382812 51.417969 " fill-opacity="1" fill-rule="nonzero"/><path stroke-linecap="round" transform="matrix(0.00843028, 0, 0, -0.00840862, -3.448005, 153.191273)" fill="none" stroke-linejoin="round" d="M 15400.077972 12102.9779 L 16299.922448 12102.9779 L 16299.922448 12304.129257 L 15400.077972 12304.129257 Z M 15400.077972 12102.9779 " stroke="#000000" stroke-width="87.523003" stroke-opacity="1" stroke-miterlimit="10"/><path fill="#ffffff" d="M 21.238281 51.292969 L 28.828125 51.292969 L 28.828125 49.605469 L 21.238281 49.605469 L 21.238281 51.292969 " fill-opacity="1" fill-rule="nonzero"/><path stroke-linecap="round" transform="matrix(0.00739498, 0, 0, -0.00737599, -3.448005, 153.191273)" fill="none" stroke-linejoin="round" d="M 3338.249273 13814.872607 L 4364.600104 13814.872607 L 4364.600104 14043.655585 L 3338.249273 14043.655585 Z M 3338.249273 13814.872607 " stroke="#000000" stroke-width="99.779999" stroke-opacity="1" stroke-miterlimit="10"/></svg>