<svg xmlns="http://www.w3.org/2000/svg" xmlns:xlink="http://www.w3.org/1999/xlink" width="200" zoomAndPan="magnify" viewBox="0 0 150 149.999998" height="200" preserveAspectRatio="xMidYMid meet" version="1.0"><defs><clipPath id="61a0902596"><path d="M 22.5 0 L 127.5 0 C 139.925781 0 150 10.074219 150 22.5 L 150 127.5 C 150 139.925781 139.925781 150 127.5 150 L 22.5 150 C 10.074219 150 0 139.925781 0 127.5 L 0 22.5 C 0 10.074219 10.074219 0 22.5 0 Z M 22.5 0 " clip-rule="nonzero"/></clipPath><clipPath id="135a69c541"><path d="M 0 0 L 150 0 L 150 150 L 0 150 Z M 0 0 " clip-rule="nonzero"/></clipPath><clipPath id="6a7c19b8a5"><path d="M 22.5 0 L 127.5 0 C 139.925781 0 150 10.074219 150 22.5 L 150 127.5 C 150 139.925781 139.925781 150 127.5 150 L 22.5 150 C 10.074219 150 0 139.925781 0 127.5 L 0 22.5 C 0 10.074219 10.074219 0 22.5 0 Z M 22.5 0 " clip-rule="nonzero"/></clipPath><clipPath id="32190e4789"><rect x="0" width="150" y="0" height="150"/></clipPath><clipPath id="580ee83de1"><path d="M 7.433594 67 L 142.433594 67 L 142.433594 98.6875 L 7.433594 98.6875 Z M 7.433594 67 " clip-rule="nonzero"/></clipPath><clipPath id="fdbb38abfb"><path d="M 107 51.4375 L 133 51.4375 L 133 84 L 107 84 Z M 107 51.4375 " clip-rule="nonzero"/></clipPath></defs><g clip-path="url(#61a0902596)"><g transform="matrix(1, 0, 0, 1, 0, -0.000000000000007527)"><g clip-path="url(#32190e4789)"><g clip-path="url(#135a69c541)"><g clip-path="url(#6a7c19b8a5)"><rect x="-33" width="216" fill="#671833" height="215.999996" y="-32.999999" fill-opacity="1"/></g></g></g></g></g><path fill="#f2f2f2" d="M 105.175781 75.441406 L 105.277344 75.441406 L 105.277344 73.8125 L 105.175781 73.8125 L 105.175781 75.441406 " fill-opacity="1" fill-rule="nonzero"/><path fill="#f2f2f2" d="M 102.589844 75.441406 L 102.695312 75.441406 L 102.695312 73.8125 L 102.589844 73.8125 L 102.589844 75.441406 " fill-opacity="1" fill-rule="nonzero"/><path fill="#f2f2f2" d="M 100.003906 75.441406 L 100.109375 75.441406 L 100.109375 73.8125 L 100.003906 73.8125 L 100.003906 75.441406 " fill-opacity="1" fill-rule="nonzero"/><path fill="#f2f2f2" d="M 97.421875 75.441406 L 97.523438 75.441406 L 97.523438 73.8125 L 97.421875 73.8125 L 97.421875 75.441406 " fill-opacity="1" fill-rule="nonzero"/><path fill="#f2f2f2" d="M 94.839844 75.441406 L 94.941406 75.441406 L 94.941406 73.8125 L 94.839844 73.8125 L 94.839844 75.441406 " fill-opacity="1" fill-rule="nonzero"/><path fill="#f2f2f2" d="M 92.253906 75.441406 L 92.359375 75.441406 L 92.359375 73.8125 L 92.253906 73.8125 L 92.253906 75.441406 " fill-opacity="1" fill-rule="nonzero"/><path fill="#f2f2f2" d="M 89.667969 75.441406 L 89.773438 75.441406 L 89.773438 73.8125 L 89.667969 73.8125 L 89.667969 75.441406 " fill-opacity="1" fill-rule="nonzero"/><path fill="#f2f2f2" d="M 87.085938 75.441406 L 87.1875 75.441406 L 87.1875 73.8125 L 87.085938 73.8125 L 87.085938 75.441406 " fill-opacity="1" fill-rule="nonzero"/><path fill="#f2f2f2" d="M 84.5 75.441406 L 84.605469 75.441406 L 84.605469 73.8125 L 84.5 73.8125 L 84.5 75.441406 " fill-opacity="1" fill-rule="nonzero"/><path fill="#f2f2f2" d="M 81.917969 75.441406 L 82.019531 75.441406 L 82.019531 73.8125 L 81.917969 73.8125 L 81.917969 75.441406 " fill-opacity="1" fill-rule="nonzero"/><path fill="#f2f2f2" d="M 79.332031 75.441406 L 79.4375 75.441406 L 79.4375 73.8125 L 79.332031 73.8125 L 79.332031 75.441406 " fill-opacity="1" fill-rule="nonzero"/><path fill="#f2f2f2" d="M 76.746094 75.441406 L 76.851562 75.441406 L 76.851562 73.8125 L 76.746094 73.8125 L 76.746094 75.441406 " fill-opacity="1" fill-rule="nonzero"/><path fill="#f2f2f2" d="M 74.164062 75.441406 L 74.265625 75.441406 L 74.265625 73.8125 L 74.164062 73.8125 L 74.164062 75.441406 " fill-opacity="1" fill-rule="nonzero"/><path fill="#f2f2f2" d="M 71.582031 75.441406 L 71.683594 75.441406 L 71.683594 73.8125 L 71.582031 73.8125 L 71.582031 75.441406 " fill-opacity="1" fill-rule="nonzero"/><path fill="#f2f2f2" d="M 68.996094 75.441406 L 69.101562 75.441406 L 69.101562 73.8125 L 68.996094 73.8125 L 68.996094 75.441406 " fill-opacity="1" fill-rule="nonzero"/><path fill="#f2f2f2" d="M 66.410156 75.441406 L 66.511719 75.441406 L 66.511719 73.8125 L 66.410156 73.8125 L 66.410156 75.441406 " fill-opacity="1" fill-rule="nonzero"/><path fill="#f2f2f2" d="M 63.824219 75.441406 L 63.929688 75.441406 L 63.929688 73.8125 L 63.824219 73.8125 L 63.824219 75.441406 " fill-opacity="1" fill-rule="nonzero"/><path fill="#f2f2f2" d="M 61.242188 75.441406 L 61.347656 75.441406 L 61.347656 73.8125 L 61.242188 73.8125 L 61.242188 75.441406 " fill-opacity="1" fill-rule="nonzero"/><path fill="#f2f2f2" d="M 58.660156 75.441406 L 58.761719 75.441406 L 58.761719 73.8125 L 58.660156 73.8125 L 58.660156 75.441406 " fill-opacity="1" fill-rule="nonzero"/><path fill="#f2f2f2" d="M 56.070312 75.441406 L 56.179688 75.441406 L 56.179688 73.8125 L 56.070312 73.8125 L 56.070312 75.441406 " fill-opacity="1" fill-rule="nonzero"/><path fill="#f2f2f2" d="M 53.488281 75.441406 L 53.59375 75.441406 L 53.59375 73.8125 L 53.488281 73.8125 L 53.488281 75.441406 " fill-opacity="1" fill-rule="nonzero"/><path fill="#f2f2f2" d="M 50.90625 75.441406 L 51.007812 75.441406 L 51.007812 73.8125 L 50.90625 73.8125 L 50.90625 75.441406 " fill-opacity="1" fill-rule="nonzero"/><path fill="#f2f2f2" d="M 48.320312 75.441406 L 48.425781 75.441406 L 48.425781 73.8125 L 48.320312 73.8125 L 48.320312 75.441406 " fill-opacity="1" fill-rule="nonzero"/><path fill="#f2f2f2" d="M 45.738281 75.441406 L 45.84375 75.441406 L 45.84375 73.8125 L 45.738281 73.8125 L 45.738281 75.441406 " fill-opacity="1" fill-rule="nonzero"/><path fill="#f2f2f2" d="M 105.277344 73.8125 L 45.738281 73.8125 L 45.738281 74.089844 L 105.277344 74.089844 L 105.277344 73.8125 " fill-opacity="1" fill-rule="nonzero"/><g clip-path="url(#580ee83de1)"><path fill="#f2f2f2" d="M 138.292969 95.429688 L 138.292969 98.074219 L 136.140625 98.074219 C 136.136719 97.757812 136.132812 97.324219 136.125 96.890625 L 136.40625 96.890625 C 136.710938 96.890625 136.964844 96.660156 136.996094 96.359375 C 137.011719 96.363281 137.035156 96.363281 137.058594 96.363281 C 137.101562 96.363281 137.148438 96.359375 137.199219 96.359375 C 137.214844 97.128906 137.308594 97.726562 137.429688 97.726562 C 137.546875 97.726562 137.648438 97.109375 137.65625 96.320312 C 137.949219 96.285156 138.199219 96.226562 138.199219 96.160156 C 138.199219 96.09375 137.949219 96.035156 137.65625 96 C 137.648438 95.214844 137.546875 94.597656 137.429688 94.597656 C 137.308594 94.597656 137.214844 95.195312 137.199219 95.964844 C 137.148438 95.960938 137.101562 95.960938 137.058594 95.960938 L 136.996094 95.960938 C 136.964844 95.664062 136.710938 95.429688 136.40625 95.429688 L 136.113281 95.429688 C 136.136719 94.566406 136.871094 93.773438 137.707031 93.292969 C 137.898438 93.183594 138.097656 93.089844 138.292969 93.015625 Z M 59.054688 77.414062 C 58.945312 77.523438 58.835938 77.632812 58.734375 77.75 C 58.726562 77.757812 58.71875 77.769531 58.710938 77.78125 C 58.679688 77.808594 58.65625 77.84375 58.625 77.875 C 58.613281 77.886719 58.605469 77.902344 58.59375 77.910156 C 58.566406 77.945312 58.542969 77.972656 58.515625 78.007812 C 58.503906 78.019531 58.496094 78.035156 58.480469 78.046875 C 58.453125 78.078125 58.433594 78.113281 58.40625 78.140625 C 58.394531 78.15625 58.386719 78.171875 58.375 78.183594 C 58.347656 78.21875 58.324219 78.25 58.296875 78.28125 C 58.289062 78.292969 58.28125 78.304688 58.273438 78.316406 C 58.269531 78.324219 58.265625 78.328125 58.257812 78.335938 C 58.234375 78.367188 58.214844 78.394531 58.191406 78.425781 C 58.179688 78.445312 58.167969 78.457031 58.15625 78.476562 C 58.152344 78.480469 58.152344 78.484375 58.148438 78.488281 C 58.117188 78.535156 58.085938 78.578125 58.054688 78.621094 C 58.050781 78.628906 58.046875 78.632812 58.042969 78.640625 C 58.015625 78.683594 57.984375 78.726562 57.957031 78.773438 C 57.953125 78.78125 57.949219 78.789062 57.941406 78.796875 C 57.9375 78.804688 57.929688 78.816406 57.921875 78.824219 C 57.917969 78.828125 57.914062 78.835938 57.910156 78.847656 C 57.894531 78.875 57.875 78.898438 57.859375 78.929688 C 57.855469 78.933594 57.851562 78.941406 57.847656 78.953125 C 57.84375 78.953125 57.84375 78.957031 57.839844 78.960938 C 57.832031 78.972656 57.824219 78.984375 57.816406 78.996094 C 57.800781 79.027344 57.785156 79.054688 57.765625 79.085938 C 57.761719 79.09375 57.753906 79.097656 57.75 79.109375 C 57.746094 79.121094 57.738281 79.136719 57.730469 79.148438 C 57.710938 79.183594 57.691406 79.210938 57.675781 79.246094 C 57.671875 79.25 57.667969 79.253906 57.664062 79.261719 C 57.65625 79.277344 57.648438 79.289062 57.640625 79.304688 C 57.625 79.335938 57.605469 79.371094 57.585938 79.40625 C 57.585938 79.414062 57.585938 79.417969 57.582031 79.417969 C 57.578125 79.429688 57.570312 79.441406 57.566406 79.453125 C 57.542969 79.492188 57.527344 79.53125 57.503906 79.574219 L 57.503906 79.578125 C 57.402344 79.78125 57.3125 79.992188 57.226562 80.207031 C 57.21875 80.222656 57.214844 80.230469 57.207031 80.246094 C 57.195312 80.28125 57.183594 80.324219 57.167969 80.359375 C 57.160156 80.382812 57.152344 80.402344 57.144531 80.425781 C 57.132812 80.457031 57.121094 80.496094 57.105469 80.527344 C 57.097656 80.554688 57.089844 80.582031 57.082031 80.609375 L 57.046875 80.707031 C 57.042969 80.730469 57.03125 80.761719 57.023438 80.789062 C 57.011719 80.824219 57.003906 80.851562 56.992188 80.882812 C 56.988281 80.914062 56.980469 80.941406 56.96875 80.976562 C 56.960938 81.003906 56.953125 81.039062 56.941406 81.066406 C 56.933594 81.097656 56.929688 81.128906 56.921875 81.160156 C 56.910156 81.191406 56.902344 81.222656 56.894531 81.253906 L 56.875 81.351562 C 56.867188 81.378906 56.859375 81.410156 56.851562 81.441406 C 56.84375 81.472656 56.839844 81.507812 56.832031 81.539062 C 56.828125 81.570312 56.820312 81.601562 56.816406 81.632812 C 56.808594 81.664062 56.800781 81.695312 56.796875 81.734375 C 56.789062 81.761719 56.785156 81.792969 56.777344 81.820312 C 56.773438 81.855469 56.769531 81.894531 56.765625 81.925781 C 56.757812 81.957031 56.753906 81.984375 56.75 82.015625 C 56.746094 82.050781 56.738281 82.085938 56.734375 82.121094 L 56.722656 82.210938 L 56.714844 82.296875 L 54.179688 82.296875 C 54.066406 81.277344 53.773438 80.320312 53.328125 79.453125 C 53.324219 79.441406 53.316406 79.429688 53.3125 79.417969 C 53.292969 79.378906 53.269531 79.34375 53.253906 79.304688 C 53.246094 79.289062 53.238281 79.273438 53.230469 79.261719 C 53.207031 79.222656 53.1875 79.1875 53.167969 79.148438 C 53.15625 79.136719 53.148438 79.121094 53.144531 79.105469 L 53.078125 78.996094 C 53.070312 78.984375 53.0625 78.972656 53.054688 78.960938 C 53.03125 78.921875 53.007812 78.882812 52.984375 78.847656 C 52.980469 78.835938 52.976562 78.828125 52.972656 78.824219 C 52.882812 78.6875 52.796875 78.554688 52.703125 78.429688 L 52.703125 78.425781 C 52.675781 78.390625 52.652344 78.351562 52.621094 78.316406 C 52.613281 78.304688 52.605469 78.292969 52.597656 78.28125 C 52.570312 78.25 52.546875 78.21875 52.519531 78.183594 C 52.507812 78.171875 52.5 78.15625 52.488281 78.140625 C 52.464844 78.113281 52.441406 78.078125 52.414062 78.046875 C 52.402344 78.035156 52.390625 78.019531 52.378906 78.007812 C 52.351562 77.972656 52.328125 77.945312 52.300781 77.910156 C 52.289062 77.902344 52.28125 77.886719 52.269531 77.871094 C 52.238281 77.84375 52.214844 77.808594 52.183594 77.78125 C 52.175781 77.769531 52.167969 77.757812 52.160156 77.75 C 52.058594 77.632812 51.953125 77.523438 51.839844 77.414062 C 50.902344 76.484375 49.738281 75.792969 48.445312 75.441406 L 62.449219 75.441406 C 61.15625 75.792969 59.992188 76.484375 59.054688 77.414062 Z M 77.046875 77.414062 C 76.9375 77.523438 76.828125 77.632812 76.726562 77.75 C 76.71875 77.761719 76.707031 77.769531 76.699219 77.78125 C 76.671875 77.808594 76.644531 77.84375 76.617188 77.875 C 76.605469 77.886719 76.59375 77.902344 76.582031 77.910156 C 76.558594 77.945312 76.53125 77.972656 76.507812 78.007812 C 76.496094 78.019531 76.484375 78.035156 76.46875 78.046875 C 76.445312 78.078125 76.421875 78.113281 76.398438 78.140625 C 76.386719 78.15625 76.375 78.171875 76.363281 78.183594 C 76.339844 78.21875 76.3125 78.25 76.289062 78.28125 C 76.28125 78.292969 76.269531 78.304688 76.261719 78.316406 C 76.257812 78.324219 76.253906 78.328125 76.25 78.335938 C 76.226562 78.367188 76.203125 78.394531 76.183594 78.425781 C 76.171875 78.445312 76.15625 78.457031 76.144531 78.476562 C 76.140625 78.480469 76.140625 78.484375 76.140625 78.488281 C 76.105469 78.535156 76.078125 78.578125 76.042969 78.621094 C 76.039062 78.628906 76.035156 78.632812 76.03125 78.640625 C 76.003906 78.683594 75.976562 78.726562 75.945312 78.773438 C 75.941406 78.78125 75.9375 78.789062 75.929688 78.796875 C 75.925781 78.804688 75.921875 78.816406 75.914062 78.824219 C 75.910156 78.828125 75.90625 78.839844 75.898438 78.847656 C 75.882812 78.875 75.867188 78.898438 75.851562 78.929688 C 75.84375 78.933594 75.839844 78.941406 75.835938 78.953125 C 75.832031 78.953125 75.832031 78.957031 75.828125 78.960938 C 75.820312 78.972656 75.816406 78.984375 75.808594 78.996094 C 75.789062 79.027344 75.773438 79.054688 75.757812 79.085938 C 75.753906 79.09375 75.75 79.097656 75.742188 79.109375 C 75.734375 79.121094 75.726562 79.136719 75.71875 79.148438 C 75.703125 79.183594 75.683594 79.210938 75.664062 79.246094 C 75.660156 79.25 75.65625 79.253906 75.652344 79.261719 C 75.648438 79.277344 75.640625 79.289062 75.632812 79.304688 C 75.613281 79.335938 75.597656 79.371094 75.578125 79.40625 C 75.578125 79.414062 75.574219 79.417969 75.570312 79.417969 C 75.566406 79.429688 75.558594 79.441406 75.554688 79.453125 C 75.535156 79.492188 75.515625 79.53125 75.492188 79.574219 L 75.492188 79.578125 C 75.390625 79.78125 75.300781 79.992188 75.21875 80.207031 C 75.210938 80.222656 75.207031 80.230469 75.199219 80.246094 C 75.183594 80.28125 75.171875 80.324219 75.160156 80.359375 C 75.152344 80.382812 75.140625 80.402344 75.132812 80.425781 C 75.121094 80.457031 75.113281 80.496094 75.097656 80.527344 C 75.089844 80.554688 75.078125 80.582031 75.070312 80.609375 L 75.039062 80.707031 C 75.03125 80.730469 75.019531 80.761719 75.011719 80.789062 C 75.003906 80.824219 74.996094 80.851562 74.984375 80.882812 C 74.976562 80.914062 74.96875 80.941406 74.957031 80.976562 C 74.949219 81.003906 74.945312 81.039062 74.933594 81.066406 C 74.925781 81.097656 74.917969 81.128906 74.910156 81.160156 C 74.898438 81.191406 74.894531 81.222656 74.886719 81.253906 L 74.863281 81.351562 C 74.855469 81.378906 74.847656 81.410156 74.84375 81.441406 C 74.839844 81.472656 74.832031 81.507812 74.824219 81.539062 C 74.816406 81.570312 74.808594 81.601562 74.804688 81.632812 C 74.796875 81.664062 74.789062 81.695312 74.789062 81.734375 C 74.78125 81.761719 74.777344 81.792969 74.769531 81.820312 C 74.765625 81.855469 74.757812 81.894531 74.753906 81.925781 C 74.746094 81.957031 74.742188 81.984375 74.738281 82.015625 C 74.734375 82.050781 74.730469 82.085938 74.726562 82.121094 L 74.714844 82.210938 L 74.703125 82.296875 L 72.171875 82.296875 C 72.058594 81.277344 71.761719 80.320312 71.320312 79.453125 C 71.316406 79.441406 71.308594 79.429688 71.304688 79.417969 C 71.28125 79.378906 71.261719 79.34375 71.242188 79.304688 L 71.21875 79.257812 C 71.199219 79.222656 71.175781 79.1875 71.160156 79.148438 C 71.148438 79.136719 71.140625 79.121094 71.132812 79.105469 L 71.066406 78.996094 C 71.058594 78.984375 71.054688 78.972656 71.046875 78.960938 C 71.019531 78.921875 71 78.882812 70.976562 78.847656 C 70.96875 78.835938 70.964844 78.828125 70.960938 78.824219 C 70.875 78.6875 70.785156 78.554688 70.691406 78.425781 C 70.667969 78.390625 70.640625 78.351562 70.613281 78.316406 C 70.605469 78.304688 70.59375 78.292969 70.585938 78.28125 C 70.5625 78.25 70.535156 78.21875 70.511719 78.183594 C 70.5 78.171875 70.488281 78.15625 70.476562 78.140625 C 70.457031 78.113281 70.429688 78.078125 70.40625 78.046875 C 70.394531 78.035156 70.378906 78.019531 70.367188 78.007812 C 70.34375 77.972656 70.316406 77.945312 70.292969 77.910156 C 70.28125 77.902344 70.269531 77.886719 70.257812 77.875 C 70.230469 77.84375 70.203125 77.808594 70.175781 77.78125 C 70.167969 77.769531 70.15625 77.757812 70.148438 77.75 C 70.046875 77.632812 69.941406 77.523438 69.832031 77.414062 C 69.828125 77.414062 69.828125 77.414062 69.828125 77.414062 C 68.890625 76.484375 67.730469 75.792969 66.4375 75.441406 L 80.4375 75.441406 C 79.144531 75.792969 77.980469 76.484375 77.046875 77.414062 Z M 95.035156 77.414062 C 94.925781 77.523438 94.820312 77.632812 94.714844 77.75 C 94.707031 77.761719 94.695312 77.769531 94.691406 77.78125 C 94.660156 77.808594 94.636719 77.84375 94.605469 77.875 C 94.59375 77.886719 94.585938 77.902344 94.574219 77.910156 C 94.546875 77.945312 94.523438 77.972656 94.496094 78.007812 C 94.484375 78.019531 94.476562 78.03125 94.464844 78.046875 C 94.433594 78.078125 94.414062 78.113281 94.386719 78.140625 C 94.375 78.15625 94.367188 78.171875 94.355469 78.183594 C 94.328125 78.21875 94.304688 78.25 94.277344 78.28125 C 94.269531 78.292969 94.261719 78.304688 94.253906 78.316406 C 94.25 78.324219 94.246094 78.328125 94.242188 78.335938 C 94.238281 78.335938 94.238281 78.335938 94.238281 78.335938 C 94.214844 78.367188 94.195312 78.394531 94.171875 78.425781 C 94.160156 78.445312 94.148438 78.457031 94.136719 78.476562 C 94.132812 78.480469 94.132812 78.484375 94.128906 78.488281 C 94.097656 78.535156 94.066406 78.578125 94.039062 78.621094 C 94.03125 78.628906 94.027344 78.632812 94.023438 78.640625 C 93.992188 78.683594 93.964844 78.726562 93.9375 78.773438 L 93.925781 78.796875 C 93.917969 78.804688 93.910156 78.816406 93.902344 78.824219 C 93.898438 78.828125 93.894531 78.839844 93.890625 78.847656 C 93.875 78.875 93.855469 78.898438 93.839844 78.929688 C 93.832031 78.933594 93.832031 78.941406 93.828125 78.953125 C 93.824219 78.953125 93.824219 78.957031 93.820312 78.960938 C 93.8125 78.972656 93.804688 78.984375 93.796875 78.996094 C 93.777344 79.027344 93.765625 79.054688 93.746094 79.085938 C 93.742188 79.09375 93.734375 79.097656 93.730469 79.109375 C 93.722656 79.121094 93.71875 79.136719 93.710938 79.148438 C 93.691406 79.183594 93.671875 79.210938 93.65625 79.246094 C 93.652344 79.25 93.648438 79.253906 93.644531 79.261719 C 93.636719 79.277344 93.628906 79.292969 93.621094 79.304688 C 93.605469 79.339844 93.585938 79.371094 93.566406 79.40625 C 93.566406 79.414062 93.5625 79.417969 93.5625 79.417969 C 93.558594 79.429688 93.550781 79.441406 93.546875 79.453125 C 93.523438 79.492188 93.507812 79.53125 93.484375 79.574219 L 93.484375 79.578125 C 93.382812 79.785156 93.289062 79.992188 93.207031 80.207031 C 93.199219 80.222656 93.195312 80.230469 93.1875 80.246094 C 93.175781 80.28125 93.164062 80.324219 93.148438 80.359375 C 93.140625 80.382812 93.128906 80.402344 93.125 80.425781 C 93.113281 80.457031 93.101562 80.496094 93.085938 80.53125 C 93.078125 80.554688 93.074219 80.582031 93.0625 80.609375 L 93.027344 80.707031 C 93.019531 80.730469 93.011719 80.761719 93.003906 80.789062 C 92.992188 80.824219 92.984375 80.851562 92.972656 80.882812 C 92.964844 80.914062 92.960938 80.941406 92.949219 80.976562 C 92.941406 81.003906 92.933594 81.039062 92.921875 81.066406 C 92.914062 81.097656 92.910156 81.128906 92.902344 81.160156 C 92.890625 81.191406 92.882812 81.222656 92.875 81.253906 L 92.855469 81.351562 C 92.847656 81.378906 92.839844 81.410156 92.835938 81.441406 L 92.8125 81.539062 C 92.804688 81.570312 92.804688 81.601562 92.796875 81.632812 C 92.789062 81.664062 92.78125 81.695312 92.777344 81.734375 C 92.769531 81.761719 92.765625 81.792969 92.757812 81.820312 C 92.753906 81.855469 92.75 81.894531 92.746094 81.925781 C 92.738281 81.957031 92.734375 81.984375 92.730469 82.015625 C 92.726562 82.050781 92.71875 82.085938 92.714844 82.121094 L 92.703125 82.210938 L 92.695312 82.296875 L 90.160156 82.296875 C 90.054688 81.328125 89.78125 80.410156 89.375 79.578125 C 89.351562 79.535156 89.332031 79.496094 89.3125 79.453125 C 89.304688 79.441406 89.296875 79.429688 89.292969 79.417969 C 89.273438 79.378906 89.253906 79.34375 89.234375 79.304688 C 89.226562 79.289062 89.21875 79.273438 89.207031 79.257812 C 89.1875 79.222656 89.167969 79.1875 89.148438 79.148438 C 89.140625 79.136719 89.128906 79.121094 89.125 79.105469 L 89.058594 78.996094 C 89.050781 78.984375 89.042969 78.972656 89.035156 78.960938 C 89.015625 78.921875 88.988281 78.882812 88.964844 78.847656 C 88.960938 78.839844 88.957031 78.828125 88.953125 78.824219 C 88.863281 78.6875 88.777344 78.554688 88.683594 78.425781 C 88.65625 78.390625 88.628906 78.351562 88.601562 78.316406 C 88.59375 78.304688 88.585938 78.292969 88.578125 78.28125 C 88.550781 78.25 88.527344 78.21875 88.5 78.183594 C 88.492188 78.171875 88.476562 78.15625 88.472656 78.140625 C 88.445312 78.113281 88.421875 78.078125 88.394531 78.046875 C 88.382812 78.03125 88.367188 78.019531 88.359375 78.007812 C 88.332031 77.972656 88.308594 77.945312 88.28125 77.910156 C 88.269531 77.902344 88.257812 77.886719 88.25 77.875 C 88.21875 77.84375 88.195312 77.808594 88.164062 77.78125 C 88.15625 77.769531 88.152344 77.761719 88.140625 77.75 C 88.039062 77.632812 87.929688 77.523438 87.820312 77.414062 C 86.882812 76.484375 85.71875 75.792969 84.425781 75.441406 L 98.429688 75.441406 C 97.132812 75.792969 95.976562 76.484375 95.035156 77.414062 Z M 123.355469 79.207031 L 122.246094 81.148438 C 121.84375 81.855469 121.054688 82.296875 120.199219 82.296875 L 108.152344 82.296875 C 108.039062 81.277344 107.746094 80.320312 107.300781 79.453125 C 107.296875 79.441406 107.289062 79.429688 107.285156 79.417969 C 107.261719 79.378906 107.246094 79.34375 107.222656 79.304688 C 107.214844 79.289062 107.207031 79.273438 107.199219 79.261719 C 107.179688 79.222656 107.15625 79.1875 107.140625 79.148438 C 107.132812 79.136719 107.121094 79.121094 107.113281 79.105469 L 107.046875 78.996094 C 107.039062 78.984375 107.03125 78.972656 107.027344 78.960938 C 107.003906 78.921875 106.976562 78.882812 106.957031 78.847656 C 106.953125 78.839844 106.945312 78.828125 106.941406 78.824219 C 106.855469 78.6875 106.765625 78.554688 106.671875 78.425781 C 106.648438 78.390625 106.621094 78.351562 106.59375 78.316406 C 106.585938 78.304688 106.578125 78.292969 106.566406 78.28125 C 106.542969 78.25 106.515625 78.21875 106.492188 78.183594 C 106.484375 78.171875 106.46875 78.15625 106.460938 78.140625 C 106.4375 78.113281 106.410156 78.078125 106.382812 78.046875 C 106.375 78.035156 106.363281 78.019531 106.347656 78.007812 C 106.324219 77.972656 106.296875 77.945312 106.273438 77.910156 C 106.261719 77.902344 106.25 77.886719 106.238281 77.875 C 106.210938 77.84375 106.183594 77.808594 106.15625 77.78125 C 106.148438 77.769531 106.140625 77.761719 106.128906 77.75 C 106.027344 77.632812 105.917969 77.523438 105.808594 77.414062 C 104.871094 76.484375 103.710938 75.792969 102.417969 75.441406 L 105.277344 75.441406 L 105.277344 74.890625 L 101.453125 74.890625 L 101.453125 74.628906 L 99.195312 74.628906 L 99.195312 74.890625 L 83.558594 74.890625 L 83.558594 74.628906 L 81.304688 74.628906 L 81.304688 74.890625 L 65.667969 74.890625 L 65.667969 74.628906 L 63.414062 74.628906 L 63.414062 74.890625 L 47.777344 74.890625 L 47.777344 74.628906 L 45.519531 74.628906 L 45.519531 75.234375 C 43.640625 75.46875 41.964844 76.386719 40.746094 77.75 C 40.738281 77.761719 40.726562 77.769531 40.71875 77.78125 C 40.691406 77.808594 40.664062 77.84375 40.636719 77.875 C 40.625 77.886719 40.613281 77.902344 40.601562 77.910156 C 40.578125 77.945312 40.550781 77.972656 40.527344 78.007812 C 40.515625 78.019531 40.503906 78.035156 40.488281 78.046875 C 40.464844 78.078125 40.4375 78.113281 40.417969 78.140625 C 40.40625 78.15625 40.394531 78.171875 40.382812 78.183594 C 40.359375 78.21875 40.332031 78.25 40.308594 78.28125 C 40.300781 78.292969 40.289062 78.304688 40.28125 78.316406 C 40.277344 78.324219 40.273438 78.328125 40.269531 78.335938 C 40.246094 78.367188 40.222656 78.394531 40.203125 78.425781 C 40.191406 78.445312 40.175781 78.457031 40.164062 78.476562 C 40.164062 78.480469 40.164062 78.484375 40.160156 78.488281 C 40.125 78.53125 40.097656 78.578125 40.0625 78.621094 C 40.058594 78.628906 40.054688 78.636719 40.054688 78.640625 C 40.023438 78.683594 39.996094 78.726562 39.964844 78.773438 C 39.960938 78.78125 39.957031 78.789062 39.949219 78.796875 C 39.949219 78.804688 39.941406 78.816406 39.933594 78.824219 C 39.929688 78.828125 39.925781 78.839844 39.917969 78.847656 C 39.902344 78.875 39.886719 78.898438 39.871094 78.929688 C 39.863281 78.933594 39.859375 78.941406 39.855469 78.953125 C 39.851562 78.953125 39.851562 78.957031 39.847656 78.960938 C 39.839844 78.972656 39.835938 78.984375 39.828125 78.996094 C 39.808594 79.027344 39.792969 79.054688 39.777344 79.085938 C 39.773438 79.09375 39.765625 79.097656 39.761719 79.109375 C 39.753906 79.121094 39.746094 79.136719 39.738281 79.148438 C 39.722656 79.183594 39.703125 79.210938 39.683594 79.246094 C 39.679688 79.25 39.679688 79.253906 39.675781 79.261719 C 39.667969 79.277344 39.660156 79.289062 39.652344 79.304688 C 39.632812 79.335938 39.617188 79.371094 39.597656 79.40625 C 39.597656 79.414062 39.59375 79.417969 39.589844 79.417969 C 39.585938 79.429688 39.578125 79.441406 39.574219 79.453125 C 39.554688 79.492188 39.535156 79.53125 39.515625 79.574219 L 39.515625 79.578125 C 39.410156 79.785156 39.320312 79.992188 39.238281 80.207031 C 39.230469 80.222656 39.226562 80.230469 39.21875 80.246094 C 39.203125 80.28125 39.191406 80.324219 39.179688 80.359375 C 39.171875 80.382812 39.160156 80.402344 39.152344 80.425781 C 39.140625 80.457031 39.128906 80.496094 39.117188 80.527344 C 39.109375 80.554688 39.097656 80.582031 39.089844 80.609375 L 39.058594 80.707031 C 39.050781 80.730469 39.039062 80.761719 39.03125 80.789062 C 39.023438 80.824219 39.015625 80.851562 39.003906 80.882812 C 38.996094 80.914062 38.984375 80.941406 38.976562 80.976562 C 38.972656 81.003906 38.964844 81.039062 38.953125 81.066406 C 38.945312 81.097656 38.9375 81.128906 38.925781 81.160156 C 38.921875 81.191406 38.914062 81.222656 38.90625 81.253906 L 38.882812 81.351562 C 38.875 81.378906 38.867188 81.410156 38.863281 81.441406 C 38.855469 81.472656 38.851562 81.507812 38.84375 81.539062 C 38.835938 81.570312 38.828125 81.601562 38.824219 81.632812 C 38.816406 81.664062 38.8125 81.695312 38.808594 81.734375 C 38.800781 81.761719 38.796875 81.792969 38.789062 81.820312 C 38.785156 81.855469 38.777344 81.894531 38.773438 81.925781 C 38.765625 81.957031 38.761719 81.984375 38.757812 82.015625 C 38.757812 82.050781 38.75 82.085938 38.746094 82.121094 L 38.734375 82.210938 L 38.722656 82.296875 L 36.953125 82.296875 C 35.921875 82.296875 34.929688 81.925781 34.179688 81.261719 L 32.566406 79.828125 L 25.78125 79.660156 L 25.726562 69.933594 L 27.0625 69.933594 L 27.0625 69.207031 L 25.71875 69.207031 L 25.71875 68.722656 L 26.59375 68.722656 L 26.59375 68.421875 L 25.714844 68.421875 L 25.707031 67.214844 L 25.425781 67.214844 L 25.425781 67.472656 L 24.777344 67.472656 L 24.777344 67.941406 L 25.421875 67.941406 L 25.417969 68.421875 L 24.542969 68.421875 L 24.542969 68.722656 L 25.417969 68.722656 L 25.414062 69.207031 L 24.074219 69.207031 L 24.074219 69.933594 L 25.410156 69.933594 L 25.351562 79.648438 L 7.476562 79.207031 L 10.101562 82.296875 L 10.082031 82.296875 L 16.214844 89.480469 C 16.914062 90.695312 16.785156 92.175781 15.886719 93.265625 L 14.972656 94.375 C 13.164062 95.75 14.519531 98.558594 17.152344 98.558594 L 140.992188 98.558594 C 141.386719 98.558594 141.707031 98.238281 141.707031 97.839844 L 141.707031 93.851562 C 141.707031 93.457031 141.386719 93.136719 140.992188 93.136719 L 139.28125 93.136719 L 139.28125 92.554688 C 141.121094 91.507812 142.378906 89.660156 142.507812 87.53125 C 142.511719 87.527344 142.511719 87.519531 142.511719 87.511719 C 142.511719 87.476562 142.515625 87.445312 142.515625 87.414062 C 142.515625 87.394531 142.515625 87.375 142.519531 87.359375 L 142.519531 87.292969 C 142.523438 87.25 142.523438 87.207031 142.523438 87.167969 L 142.523438 79.207031 L 123.355469 79.207031 " fill-opacity="1" fill-rule="nonzero"/></g><path fill="#f2f2f2" d="M 117.546875 60.6875 L 117.472656 60.132812 L 117.21875 58.371094 L 117.230469 58.371094 L 117.792969 57.886719 L 113.433594 57.886719 L 113.433594 69.113281 L 118.738281 69.113281 L 117.546875 60.6875 " fill-opacity="1" fill-rule="nonzero"/><g clip-path="url(#fdbb38abfb)"><path fill="#f2f2f2" d="M 128.257812 73.039062 L 129.125 73.039062 L 129.125 73.480469 L 128.257812 73.480469 Z M 128.128906 73.480469 L 127.265625 73.480469 L 127.265625 73.039062 L 128.128906 73.039062 Z M 128.03125 75.496094 L 127.503906 75.496094 L 127.503906 74.558594 L 128.03125 74.558594 Z M 128.007812 78.691406 L 127.402344 78.691406 L 127.402344 77.753906 L 128.007812 77.753906 Z M 127.140625 73.480469 L 126.277344 73.480469 L 126.277344 73.039062 L 127.140625 73.039062 Z M 126.777344 75.496094 L 123.984375 75.496094 L 123.984375 74.558594 L 126.777344 74.558594 Z M 126.34375 76.378906 L 126.34375 76.394531 C 126.34375 76.824219 126.035156 77.179688 125.65625 77.179688 L 120.96875 77.179688 C 120.589844 77.179688 119.878906 76.824219 119.878906 76.394531 L 119.878906 76.175781 L 120.875 76.175781 L 120.875 75.8125 L 120.84375 75.8125 L 120.84375 75.671875 L 121.050781 75.671875 L 121.050781 75.8125 L 121.023438 75.8125 L 121.023438 76.175781 L 125.5 76.175781 L 125.5 75.8125 L 125.472656 75.8125 L 125.472656 75.671875 L 125.679688 75.671875 L 125.679688 75.8125 L 125.644531 75.8125 L 125.644531 76.175781 L 126.34375 76.175781 Z M 124.351562 78.691406 L 123.75 78.691406 L 123.75 77.753906 L 124.351562 77.753906 Z M 121.863281 78.691406 L 121.261719 78.691406 L 121.261719 77.753906 L 121.863281 77.753906 Z M 119.726562 74.558594 L 120.660156 74.558594 L 120.660156 75.496094 L 119.726562 75.496094 Z M 119.292969 70.820312 L 118.355469 70.820312 L 118.355469 69.890625 L 119.292969 69.890625 Z M 119.292969 75.496094 L 118.355469 75.496094 L 118.355469 74.558594 L 119.292969 74.558594 Z M 118.90625 78.691406 L 118.300781 78.691406 L 118.300781 77.753906 L 118.90625 77.753906 Z M 117.921875 75.496094 L 116.984375 75.496094 L 116.984375 74.558594 L 117.921875 74.558594 Z M 116.554688 75.496094 L 115.621094 75.496094 L 115.621094 74.558594 L 116.554688 74.558594 Z M 116.417969 78.691406 L 115.8125 78.691406 L 115.8125 77.753906 L 116.417969 77.753906 Z M 111.015625 77.179688 C 110.640625 77.179688 109.929688 76.824219 109.929688 76.394531 L 109.929688 76.175781 L 110.921875 76.175781 L 110.921875 75.8125 L 110.890625 75.8125 L 110.890625 75.671875 L 111.097656 75.671875 L 111.097656 75.8125 L 111.070312 75.8125 L 111.070312 76.175781 L 115.546875 76.175781 L 115.546875 75.8125 L 115.519531 75.8125 L 115.519531 75.671875 L 115.726562 75.671875 L 115.726562 75.8125 L 115.695312 75.8125 L 115.695312 76.175781 L 116.390625 76.175781 L 116.390625 76.394531 C 116.390625 76.824219 116.082031 77.179688 115.707031 77.179688 Z M 113.460938 78.691406 L 112.855469 78.691406 L 112.855469 77.753906 L 113.460938 77.753906 Z M 110.972656 78.691406 L 110.367188 78.691406 L 110.367188 77.753906 L 110.972656 77.753906 Z M 109.503906 68.101562 L 111.722656 68.101562 L 111.722656 69.035156 L 109.503906 69.035156 Z M 108.492188 67.3125 L 108.492188 66.378906 L 110.710938 66.378906 L 110.710938 67.3125 Z M 109.574219 55.78125 L 109.574219 55.492188 L 109.773438 55.492188 L 109.773438 55.78125 Z M 109.457031 55.78125 L 108.980469 55.78125 L 108.980469 55.492188 L 109.457031 55.492188 Z M 108.863281 55.78125 L 108.386719 55.78125 L 108.386719 55.492188 L 108.863281 55.492188 Z M 108.269531 55.78125 L 107.792969 55.78125 L 107.792969 55.492188 L 108.269531 55.492188 Z M 107.675781 55.78125 L 107.199219 55.78125 L 107.199219 55.492188 L 107.675781 55.492188 Z M 111.011719 66.378906 L 112.285156 66.378906 L 112.285156 67.3125 L 111.011719 67.3125 Z M 112.449219 70.820312 L 111.515625 70.820312 L 111.515625 69.890625 L 112.449219 69.890625 Z M 112.878906 70.820312 L 112.878906 69.890625 L 113.816406 69.890625 L 113.816406 70.820312 Z M 112.878906 74.558594 L 113.816406 74.558594 L 113.816406 75.496094 L 112.878906 75.496094 Z M 110.144531 70.820312 L 110.144531 69.890625 L 111.082031 69.890625 L 111.082031 70.820312 Z M 111.082031 74.558594 L 111.082031 75.496094 L 110.144531 75.496094 L 110.144531 74.558594 Z M 112.449219 74.558594 L 112.449219 75.496094 L 111.515625 75.496094 L 111.515625 74.558594 Z M 110.144531 72.808594 L 110.144531 71.871094 L 113.351562 71.871094 L 113.351562 72.808594 Z M 112.449219 68.101562 L 114.667969 68.101562 L 114.667969 69.035156 L 112.449219 69.035156 Z M 115.1875 74.558594 L 115.1875 75.496094 L 114.25 75.496094 L 114.25 74.558594 Z M 115.1875 69.890625 L 115.1875 70.820312 L 114.25 70.820312 L 114.25 69.890625 Z M 115.386719 71.871094 L 118.589844 71.871094 L 118.589844 72.808594 L 115.386719 72.808594 Z M 115.621094 69.890625 L 116.554688 69.890625 L 116.554688 70.820312 L 115.621094 70.820312 Z M 116.984375 69.890625 L 117.921875 69.890625 L 117.921875 70.820312 L 116.984375 70.820312 Z M 119.726562 69.890625 L 120.660156 69.890625 L 120.660156 70.820312 L 119.726562 70.820312 Z M 121.09375 69.890625 L 122.027344 69.890625 L 122.027344 70.820312 L 121.09375 70.820312 Z M 122.460938 69.890625 L 123.398438 69.890625 L 123.398438 70.820312 L 122.460938 70.820312 Z M 122.027344 74.558594 L 122.027344 75.496094 L 121.09375 75.496094 L 121.09375 74.558594 Z M 123.398438 74.558594 L 123.398438 75.496094 L 122.460938 75.496094 L 122.460938 74.558594 Z M 120.625 72.808594 L 120.625 71.871094 L 123.828125 71.871094 L 123.828125 72.808594 Z M 124.289062 73.039062 L 125.15625 73.039062 L 125.15625 73.480469 L 124.289062 73.480469 Z M 125.28125 73.039062 L 126.144531 73.039062 L 126.144531 73.480469 L 125.28125 73.480469 Z M 109.09375 73.480469 L 108.414062 73.480469 L 108.414062 73.039062 L 109.09375 73.039062 Z M 129.640625 78.828125 L 129.617188 78.800781 L 129.039062 78.140625 L 128.605469 77.644531 L 129.050781 77.644531 L 129.050781 77.179688 L 128.605469 77.179688 L 128.605469 74.183594 L 129.253906 74.183594 L 129.253906 72.808594 L 124.25 72.808594 L 124.171875 68.824219 L 116.1875 68.824219 L 114.957031 67.496094 L 112.761719 67.496094 L 112.761719 66.167969 L 112.082031 66.167969 C 112.304688 65.980469 112.449219 65.695312 112.449219 65.382812 C 112.449219 64.808594 111.984375 64.34375 111.414062 64.34375 C 110.84375 64.34375 110.378906 64.808594 110.378906 65.382812 C 110.378906 65.695312 110.519531 65.980469 110.746094 66.167969 L 110.144531 66.167969 L 110.078125 55.027344 L 110.953125 55.027344 L 110.953125 54.726562 L 110.074219 54.726562 L 110.066406 53.523438 L 109.929688 53.523438 L 109.929688 51.4375 L 109.898438 51.4375 L 109.898438 53.199219 L 109.707031 53.199219 L 109.707031 53.664062 L 109.785156 53.664062 L 109.785156 53.777344 L 109.277344 53.777344 L 109.277344 54.25 L 109.78125 54.25 L 109.78125 54.726562 L 108.902344 54.726562 L 108.902344 55.027344 L 109.777344 55.027344 L 109.777344 55.382812 L 107.082031 55.382812 L 107.082031 56.242188 L 109.769531 56.242188 L 109.710938 66.167969 L 108.199219 66.167969 L 108.425781 67.886719 L 109.09375 67.886719 L 109.09375 72.808594 L 108.285156 72.808594 L 108.285156 74.183594 L 109.09375 74.183594 L 109.09375 77.179688 L 108.285156 77.179688 L 108.285156 77.644531 L 109.09375 77.644531 L 109.09375 83.203125 L 132.644531 83.203125 L 132.644531 78.828125 L 129.640625 78.828125 " fill-opacity="1" fill-rule="nonzero"/></g></svg>